# 3ds Max Wavefront OBJ Exporter v0.97b - (c)2007 guruware
# File Created: 02.08.2015 16:09:59

mtllib Puddle of oil.mtl

#
# object Puddle_of_oil
#

v  -1250.0000 8.3852 -1250.0000
v  -1250.0000 8.3852 1250.0000
v  1250.0000 8.3852 1250.0000
v  1250.0000 8.3852 -1250.0000
# 4 vertices

vn 0.0000 1.0000 -0.0000
# 1 vertex normals

vt 0.0000 1.0000 0.0000
vt 0.0000 0.0000 0.0000
vt 1.0000 0.0000 0.0000
vt 1.0000 1.0000 0.0000
# 4 texture coords

g Puddle_of_oil
usemtl wire_229154215
s 1
f 1/1/1 2/2/1 3/3/1 4/4/1 
# 1 polygons

