# 3ds Max Wavefront OBJ Exporter v0.97b - (c)2007 guruware
# File Created: 17.07.2015 18:21:24

#
# object Buggy_Car__01_FW_R
#

v  1087.9773 284.8178 654.6835
v  1064.4070 403.3139 654.6834
v  1064.4070 403.3138 885.9703
v  1087.9773 284.8178 885.9703
v  997.2844 503.7700 654.6834
v  997.2845 503.7700 885.9702
v  896.8282 570.8926 654.6834
v  896.8283 570.8926 885.9702
v  778.3322 594.4630 654.6834
v  778.3322 594.4630 885.9702
v  659.8361 570.8927 654.6835
v  659.8361 570.8926 885.9701
v  559.3800 503.7700 654.6833
v  559.3801 503.7700 885.9701
v  492.2574 403.3139 654.6833
v  492.2574 403.3138 885.9703
v  468.6870 284.8179 654.6835
v  468.6870 284.8179 885.9703
v  492.2574 166.3218 654.6833
v  492.2574 166.3218 885.9702
v  559.3799 65.8657 654.6833
v  559.3799 65.8656 885.9702
v  659.8361 -1.2570 654.6833
v  659.8361 -1.2571 885.9702
v  778.3322 -24.8275 654.6832
v  778.3322 -24.8275 885.9700
v  896.8283 -1.2570 654.6832
v  896.8283 -1.2571 885.9702
v  997.2845 65.8657 654.6834
v  997.2845 65.8656 885.9702
v  1064.4071 166.3219 654.6832
v  1064.4071 166.3218 885.9702
v  941.4288 352.3746 885.9703
v  954.8666 284.8178 885.9703
v  903.1610 409.6465 885.9703
v  845.8891 447.9144 885.9702
v  778.3322 461.3523 885.9702
v  710.7753 447.9144 885.9702
v  653.5034 409.6465 885.9703
v  615.2357 352.3746 885.9703
v  601.7977 284.8178 885.9703
v  615.2355 217.2610 885.9702
v  653.5034 159.9890 885.9702
v  710.7753 121.7211 885.9702
v  778.3322 108.2833 885.9702
v  845.8891 121.7211 885.9702
v  903.1610 159.9891 885.9702
v  941.4288 217.2610 885.9702
v  941.4288 352.3746 813.4503
v  954.8666 284.8178 813.4502
v  903.1610 409.6465 813.4503
v  845.8891 447.9144 813.4503
v  778.3322 461.3523 813.4503
v  710.7753 447.9144 813.4503
v  653.5034 409.6466 813.4502
v  615.2357 352.3746 813.4502
v  601.7977 284.8178 813.4502
v  615.2355 217.2610 813.4502
v  653.5034 159.9890 813.4502
v  710.7753 121.7211 813.4502
v  778.3322 108.2833 813.4503
v  845.8891 121.7211 813.4502
v  903.1610 159.9891 813.4502
v  941.4288 217.2610 813.4502
v  838.2098 309.6199 813.4502
v  843.1432 284.8178 813.4502
v  824.1606 330.6461 813.4502
v  803.1342 344.6954 813.4502
v  778.3322 349.6288 813.4502
v  753.5300 344.6953 813.4502
v  732.5040 330.6461 813.4502
v  718.4547 309.6199 813.4502
v  713.5213 284.8178 813.4502
v  718.4547 260.0157 813.4502
v  732.5038 238.9895 813.4502
v  753.5300 224.9402 813.4502
v  778.3322 220.0068 813.4502
v  803.1342 224.9402 813.4502
v  824.1606 238.9895 813.4502
v  838.2098 260.0158 813.4502
v  838.2098 309.6199 843.4725
v  843.1433 284.8177 843.4725
v  824.1606 330.6461 843.4725
v  803.1343 344.6954 843.4725
v  778.3323 349.6288 843.4725
v  753.5300 344.6953 843.4725
v  732.5040 330.6461 843.4725
v  718.4547 309.6199 843.4725
v  713.5214 284.8178 843.4725
v  718.4547 260.0157 843.4725
v  732.5038 238.9895 843.4725
v  753.5300 224.9402 843.4724
v  778.3323 220.0068 843.4724
v  803.1343 224.9402 843.4724
v  824.1606 238.9895 843.4725
v  838.2098 260.0157 843.4725
v  819.9598 302.0605 862.2445
v  810.1926 316.6781 862.2445
v  761.0895 326.4453 862.2445
v  746.4720 316.6782 862.2445
v  795.5750 326.4453 862.2445
v  778.3323 329.8751 862.2445
v  819.9598 267.5752 862.2445
v  823.3896 284.8177 862.2445
v  736.7048 302.0605 862.2445
v  733.2750 284.8178 862.2445
v  778.3322 284.8178 654.6834
v  736.7048 267.5751 862.2445
v  810.1926 252.9575 862.2445
v  746.4719 252.9575 862.2445
v  795.5750 243.1903 862.2444
v  761.0895 243.1903 862.2444
v  778.3323 239.7605 862.2444
# 113 vertices

vn 1.0000 0.0000 0.0000
vn 0.9239 0.3827 -0.0000
vn 0.9239 0.3827 0.0000
vn 0.7071 0.7071 -0.0000
vn 0.7071 0.7071 0.0000
vn 0.3827 0.9239 -0.0000
vn 0.0000 1.0000 0.0000
vn -0.3827 0.9239 0.0000
vn -0.7071 0.7071 0.0000
vn -0.9239 0.3827 -0.0000
vn -1.0000 0.0000 -0.0000
vn -0.9239 -0.3827 -0.0000
vn -0.7071 -0.7071 -0.0000
vn -0.3827 -0.9239 -0.0000
vn -0.0000 -1.0000 -0.0000
vn 0.3827 -0.9239 -0.0000
vn 0.7071 -0.7071 -0.0000
vn 0.9239 -0.3827 -0.0000
vn 0.0000 -0.0000 1.0000
vn 0.0000 0.0000 1.0000
vn -0.0000 -0.0000 1.0000
vn -0.0000 0.0000 1.0000
vn -1.0000 -0.0000 -0.0000
vn -1.0000 0.0000 0.0000
vn -0.7071 -0.7071 0.0000
vn 0.0000 -1.0000 -0.0000
vn 1.0000 -0.0000 -0.0000
vn 0.0000 1.0000 -0.0000
vn -0.3827 0.9239 -0.0000
vn -0.9239 0.3827 0.0000
vn -0.0000 1.0000 0.0000
vn -1.0000 -0.0000 0.0000
vn -0.9239 -0.3827 0.0000
vn 0.3783 0.1567 0.9123
vn 0.2895 0.2895 0.9123
vn -0.1567 0.3783 0.9123
vn -0.2895 0.2895 0.9123
vn 0.1567 0.3783 0.9123
vn -0.0000 0.4095 0.9123
vn 0.3783 -0.1567 0.9123
vn 0.4095 -0.0000 0.9123
vn -0.3783 0.1567 0.9123
vn -0.4095 -0.0000 0.9123
vn 0.0000 -0.0000 -1.0000
vn 0.0000 0.0000 -1.0000
vn -0.0000 0.0000 -1.0000
vn -0.0000 -0.0000 -1.0000
vn -0.3783 -0.1567 0.9123
vn 0.2895 -0.2895 0.9123
vn -0.2895 -0.2895 0.9123
vn 0.1567 -0.3783 0.9123
vn -0.1567 -0.3783 0.9123
vn 0.0000 -0.4095 0.9123
vn 0.6889 -0.0000 0.7249
vn 0.6364 0.2636 0.7249
vn 0.4871 0.4871 0.7249
vn 0.2636 0.6364 0.7249
vn -0.0000 0.6889 0.7249
vn -0.2636 0.6364 0.7249
vn -0.4871 0.4871 0.7249
vn -0.6364 0.2636 0.7249
vn -0.6889 -0.0000 0.7249
vn -0.6364 -0.2636 0.7249
vn -0.4871 -0.4871 0.7249
vn -0.2636 -0.6364 0.7249
vn 0.0000 -0.6889 0.7249
vn 0.2636 -0.6364 0.7249
vn 0.4871 -0.4871 0.7249
vn 0.6364 -0.2636 0.7249
# 69 vertex normals

vt 0.2218 0.1508 0.0000
vt 0.2218 0.1356 0.0000
vt 0.2625 0.1356 0.0000
vt 0.2625 0.1508 0.0000
vt 0.2218 0.1192 0.0000
vt 0.2625 0.1192 0.0000
vt 0.2218 0.1031 0.0000
vt 0.2625 0.1031 0.0000
vt 0.2218 0.0854 0.0000
vt 0.2625 0.0854 0.0000
vt 0.2218 0.0677 0.0000
vt 0.2625 0.0677 0.0000
vt 0.2218 0.0510 0.0000
vt 0.2625 0.0510 0.0000
vt 0.2218 0.0344 0.0000
vt 0.2625 0.0344 0.0000
vt 0.2218 0.0183 0.0000
vt 0.2625 0.0183 0.0000
vt 0.2218 0.2860 0.0000
vt 0.2218 0.2706 0.0000
vt 0.2625 0.2706 0.0000
vt 0.2625 0.2860 0.0000
vt 0.2218 0.2550 0.0000
vt 0.2625 0.2550 0.0000
vt 0.2218 0.2381 0.0000
vt 0.2625 0.2381 0.0000
vt 0.2218 0.2204 0.0000
vt 0.2625 0.2204 0.0000
vt 0.2218 0.2026 0.0000
vt 0.2625 0.2026 0.0000
vt 0.2218 0.1843 0.0000
vt 0.2625 0.1843 0.0000
vt 0.2218 0.1665 0.0000
vt 0.2625 0.1665 0.0000
vt 0.4002 0.1832 0.0000
vt 0.3955 0.2069 0.0000
vt 0.3720 0.1972 0.0000
vt 0.3748 0.1832 0.0000
vt 0.3821 0.2270 0.0000
vt 0.3641 0.2090 0.0000
vt 0.3620 0.2404 0.0000
vt 0.3522 0.2169 0.0000
vt 0.3383 0.2452 0.0000
vt 0.3383 0.2197 0.0000
vt 0.3146 0.2404 0.0000
vt 0.3243 0.2169 0.0000
vt 0.2945 0.2270 0.0000
vt 0.3125 0.2090 0.0000
vt 0.2810 0.2069 0.0000
vt 0.3046 0.1972 0.0000
vt 0.2763 0.1832 0.0000
vt 0.3018 0.1832 0.0000
vt 0.2810 0.1595 0.0000
vt 0.3046 0.1692 0.0000
vt 0.2945 0.1394 0.0000
vt 0.3125 0.1574 0.0000
vt 0.3146 0.1259 0.0000
vt 0.3243 0.1495 0.0000
vt 0.3383 0.1212 0.0000
vt 0.3383 0.1467 0.0000
vt 0.3620 0.1259 0.0000
vt 0.3522 0.1495 0.0000
vt 0.3821 0.1394 0.0000
vt 0.3641 0.1574 0.0000
vt 0.3955 0.1595 0.0000
vt 0.3720 0.1692 0.0000
vt 0.3692 0.1960 0.0000
vt 0.3717 0.1832 0.0000
vt 0.3619 0.2069 0.0000
vt 0.3511 0.2141 0.0000
vt 0.3383 0.2167 0.0000
vt 0.3255 0.2141 0.0000
vt 0.3146 0.2069 0.0000
vt 0.3074 0.1960 0.0000
vt 0.3048 0.1832 0.0000
vt 0.3074 0.1704 0.0000
vt 0.3146 0.1595 0.0000
vt 0.3255 0.1523 0.0000
vt 0.3383 0.1497 0.0000
vt 0.3511 0.1523 0.0000
vt 0.3619 0.1595 0.0000
vt 0.3692 0.1704 0.0000
vt 0.3508 0.1884 0.0000
vt 0.3518 0.1832 0.0000
vt 0.3478 0.1927 0.0000
vt 0.3434 0.1957 0.0000
vt 0.3383 0.1967 0.0000
vt 0.3331 0.1957 0.0000
vt 0.3287 0.1927 0.0000
vt 0.3258 0.1884 0.0000
vt 0.3248 0.1832 0.0000
vt 0.3258 0.1780 0.0000
vt 0.3287 0.1736 0.0000
vt 0.3331 0.1707 0.0000
vt 0.3383 0.1697 0.0000
vt 0.3434 0.1707 0.0000
vt 0.3478 0.1736 0.0000
vt 0.3508 0.1780 0.0000
vt 0.3500 0.1880 0.0000
vt 0.3509 0.1832 0.0000
vt 0.3472 0.1921 0.0000
vt 0.3431 0.1949 0.0000
vt 0.3383 0.1958 0.0000
vt 0.3334 0.1949 0.0000
vt 0.3293 0.1921 0.0000
vt 0.3266 0.1880 0.0000
vt 0.3256 0.1832 0.0000
vt 0.3266 0.1784 0.0000
vt 0.3293 0.1743 0.0000
vt 0.3334 0.1715 0.0000
vt 0.3383 0.1705 0.0000
vt 0.3431 0.1715 0.0000
vt 0.3472 0.1743 0.0000
vt 0.3500 0.1784 0.0000
vt 0.3492 0.1877 0.0000
vt 0.3466 0.1915 0.0000
vt 0.3338 0.1941 0.0000
vt 0.3299 0.1915 0.0000
vt 0.3428 0.1941 0.0000
vt 0.3383 0.1950 0.0000
vt 0.3492 0.1787 0.0000
vt 0.3501 0.1832 0.0000
vt 0.3274 0.1877 0.0000
vt 0.3265 0.1832 0.0000
vt 0.3206 0.0222 0.0000
vt 0.3398 0.0187 0.0000
vt 0.3389 0.0688 0.0000
vt 0.3589 0.0229 0.0000
vt 0.3750 0.0340 0.0000
vt 0.3855 0.0505 0.0000
vt 0.3890 0.0697 0.0000
vt 0.3849 0.0888 0.0000
vt 0.3737 0.1049 0.0000
vt 0.3573 0.1154 0.0000
vt 0.3381 0.1189 0.0000
vt 0.3190 0.1147 0.0000
vt 0.3029 0.1036 0.0000
vt 0.2923 0.0872 0.0000
vt 0.2889 0.0679 0.0000
vt 0.2930 0.0488 0.0000
vt 0.3042 0.0328 0.0000
vt 0.3274 0.1787 0.0000
vt 0.3466 0.1749 0.0000
vt 0.3299 0.1749 0.0000
vt 0.3428 0.1723 0.0000
vt 0.3338 0.1723 0.0000
vt 0.3383 0.1714 0.0000
# 147 texture coords

g Buggy_Car__01_FW_R
s 1
f 1/1/1 2/2/2 3/3/3 4/4/1 
f 2/2/2 5/5/4 6/6/5 3/3/3 
f 5/5/4 7/7/6 8/8/6 6/6/5 
f 7/7/6 9/9/7 10/10/7 8/8/6 
f 9/9/7 11/11/8 12/12/8 10/10/7 
f 11/11/8 13/13/9 14/14/9 12/12/8 
f 13/13/9 15/15/10 16/16/10 14/14/9 
f 15/15/10 17/17/11 18/18/11 16/16/10 
f 17/19/11 19/20/12 20/21/12 18/22/11 
f 19/20/12 21/23/13 22/24/13 20/21/12 
f 21/23/13 23/25/14 24/26/14 22/24/13 
f 23/25/14 25/27/15 26/28/15 24/26/14 
f 25/27/15 27/29/16 28/30/16 26/28/15 
f 27/29/16 29/31/17 30/32/17 28/30/16 
f 29/31/17 31/33/18 32/34/18 30/32/17 
f 31/33/18 1/1/1 4/4/1 32/34/18 
s 2
f 4/35/19 3/36/20 33/37/20 34/38/21 
f 3/36/20 6/39/22 35/40/22 33/37/20 
f 6/39/22 8/41/20 36/42/22 35/40/22 
f 8/41/20 10/43/22 37/44/20 36/42/22 
f 10/43/22 12/45/22 38/46/20 37/44/20 
f 12/45/22 14/47/22 39/48/22 38/46/20 
f 14/47/22 16/49/20 40/50/22 39/48/22 
f 16/49/20 18/51/19 41/52/21 40/50/22 
f 18/51/19 20/53/19 42/54/19 41/52/21 
f 20/53/19 22/55/20 43/56/20 42/54/19 
f 22/55/20 24/57/19 44/58/20 43/56/20 
f 24/57/19 26/59/19 45/60/19 44/58/20 
f 26/59/19 28/61/21 46/62/21 45/60/19 
f 28/61/21 30/63/20 47/64/20 46/62/21 
f 30/63/20 32/65/21 48/66/21 47/64/20 
f 32/65/21 4/35/19 34/38/21 48/66/21 
s 1
f 34/38/23 33/37/12 49/67/12 50/68/24 
f 33/37/12 35/40/25 51/69/25 49/67/12 
f 35/40/25 36/42/14 52/70/14 51/69/25 
f 36/42/14 37/44/15 53/71/26 52/70/14 
f 37/44/15 38/46/16 54/72/16 53/71/26 
f 38/46/16 39/48/17 55/73/17 54/72/16 
f 39/48/17 40/50/18 56/74/18 55/73/17 
f 40/50/18 41/52/27 57/75/27 56/74/18 
f 41/52/27 42/54/3 58/76/3 57/75/27 
f 42/54/3 43/56/5 59/77/5 58/76/3 
f 43/56/5 44/58/6 60/78/6 59/77/5 
f 44/58/6 45/60/28 61/79/28 60/78/6 
f 45/60/28 46/62/29 62/80/29 61/79/28 
f 46/62/29 47/64/9 63/81/9 62/80/29 
f 47/64/9 48/66/30 64/82/30 63/81/9 
f 48/66/30 34/38/23 50/68/24 64/82/30 
s off
f 50/68/21 49/67/21 65/83/21 66/84/21 
f 49/67/21 51/69/21 67/85/21 65/83/21 
f 51/69/21 52/70/21 68/86/21 67/85/21 
f 52/70/21 53/71/21 69/87/21 68/86/21 
f 53/71/19 54/72/19 70/88/19 69/87/19 
f 54/72/21 55/73/21 71/89/21 70/88/21 
f 55/73/20 56/74/20 72/90/20 71/89/20 
f 56/74/20 57/75/20 73/91/20 72/90/20 
f 57/75/20 58/76/20 74/92/20 73/91/20 
f 58/76/20 59/77/20 75/93/20 74/92/20 
f 59/77/20 60/78/20 76/94/20 75/93/20 
f 60/78/22 61/79/22 77/95/22 76/94/22 
f 61/79/20 62/80/20 78/96/20 77/95/20 
f 62/80/20 63/81/20 79/97/20 78/96/20 
f 63/81/20 64/82/20 80/98/20 79/97/20 
f 64/82/20 50/68/20 66/84/20 80/98/20 
s 1
f 65/83/2 81/99/2 82/100/27 66/84/27 
f 67/85/4 83/101/4 81/99/2 65/83/2 
f 68/86/6 84/102/6 83/101/4 67/85/4 
f 69/87/31 85/103/28 84/102/6 68/86/6 
f 70/88/8 86/104/8 85/103/28 69/87/31 
f 71/89/9 87/105/9 86/104/8 70/88/8 
f 72/90/30 88/106/30 87/105/9 71/89/9 
f 73/91/32 89/107/32 88/106/30 72/90/30 
f 74/92/33 90/108/12 89/107/32 73/91/32 
f 75/93/13 91/109/13 90/108/12 74/92/33 
f 76/94/14 92/110/14 91/109/13 75/93/13 
f 77/95/26 93/111/26 92/110/14 76/94/14 
f 78/96/16 94/112/16 93/111/26 77/95/26 
f 79/97/17 95/113/17 94/112/16 78/96/16 
f 80/98/18 96/114/18 95/113/17 79/97/17 
f 66/84/27 82/100/27 96/114/18 80/98/18 
s 2
f 97/115/34 98/116/35 99/117/36 100/118/37 
f 98/116/35 101/119/38 102/120/39 99/117/36 
f 103/121/40 104/122/41 105/123/42 106/124/43 
f 2/125/44 1/126/45 107/127/46 
f 1/126/45 31/128/46 107/127/46 
f 31/128/46 29/129/47 107/127/46 
f 29/129/47 27/130/45 107/127/46 
f 27/130/45 25/131/46 107/127/46 
f 25/131/46 23/132/46 107/127/46 
f 23/132/46 21/133/46 107/127/46 
f 21/133/46 19/134/46 107/127/46 
f 19/134/46 17/135/47 107/127/46 
f 17/135/47 15/136/47 107/127/46 
f 15/136/47 13/137/45 107/127/46 
f 13/137/45 11/138/45 107/127/46 
f 11/138/45 9/139/47 107/127/46 
f 9/139/47 7/140/45 107/127/46 
f 7/140/45 5/141/45 107/127/46 
f 5/141/45 2/125/44 107/127/46 
f 97/115/34 100/118/37 105/123/42 104/122/41 
f 108/142/48 109/143/49 103/121/40 106/124/43 
f 110/144/50 111/145/51 109/143/49 108/142/48 
f 112/146/52 113/147/53 111/145/51 110/144/50 
f 97/115/34 104/122/41 82/100/54 81/99/55 
f 98/116/35 97/115/34 81/99/55 83/101/56 
f 101/119/38 98/116/35 83/101/56 84/102/57 
f 102/120/39 101/119/38 84/102/57 85/103/58 
f 99/117/36 102/120/39 85/103/58 86/104/59 
f 100/118/37 99/117/36 86/104/59 87/105/60 
f 105/123/42 100/118/37 87/105/60 88/106/61 
f 106/124/43 105/123/42 88/106/61 89/107/62 
f 108/142/48 106/124/43 89/107/62 90/108/63 
f 110/144/50 108/142/48 90/108/63 91/109/64 
f 112/146/52 110/144/50 91/109/64 92/110/65 
f 113/147/53 112/146/52 92/110/65 93/111/66 
f 111/145/51 113/147/53 93/111/66 94/112/67 
f 109/143/49 111/145/51 94/112/67 95/113/68 
f 103/121/40 109/143/49 95/113/68 96/114/69 
f 104/122/41 103/121/40 96/114/69 82/100/54 
# 103 polygons - 16 triangles

