# 3ds Max Wavefront OBJ Exporter v0.97b - (c)2007 guruware
# File Created: 17.07.2015 18:22:00

#
# object Buggy_Car__01_FW_L
#

v  1087.9773 284.8180 -654.6843
v  1087.9775 284.8181 -885.9713
v  1064.4072 403.3141 -885.9713
v  1064.4070 403.3141 -654.6843
v  997.2845 503.7703 -885.9713
v  997.2845 503.7702 -654.6842
v  896.8284 570.8929 -885.9713
v  896.8284 570.8928 -654.6843
v  778.3323 594.4633 -885.9713
v  778.3323 594.4631 -654.6843
v  659.8362 570.8929 -885.9713
v  659.8362 570.8928 -654.6843
v  559.3801 503.7703 -885.9714
v  559.3801 503.7702 -654.6841
v  492.2574 403.3141 -885.9713
v  492.2574 403.3141 -654.6842
v  468.6871 284.8181 -885.9714
v  468.6870 284.8181 -654.6842
v  492.2574 166.3220 -885.9714
v  492.2574 166.3220 -654.6843
v  559.3800 65.8660 -885.9714
v  559.3801 65.8658 -654.6841
v  659.8361 -1.2567 -885.9714
v  659.8362 -1.2568 -654.6842
v  778.3323 -24.8272 -885.9714
v  778.3323 -24.8272 -654.6843
v  896.8284 -1.2567 -885.9714
v  896.8284 -1.2568 -654.6843
v  997.2845 65.8660 -885.9713
v  997.2846 65.8658 -654.6842
v  1064.4072 166.3221 -885.9714
v  1064.4072 166.3221 -654.6843
v  954.8667 284.8181 -885.9714
v  941.4289 352.3749 -885.9713
v  903.1611 409.6468 -885.9713
v  845.8892 447.9147 -885.9713
v  778.3323 461.3526 -885.9713
v  710.7753 447.9147 -885.9713
v  653.5035 409.6469 -885.9713
v  615.2357 352.3749 -885.9714
v  601.7978 284.8181 -885.9714
v  615.2356 217.2613 -885.9714
v  653.5035 159.9894 -885.9714
v  710.7753 121.7215 -885.9714
v  778.3323 108.2836 -885.9713
v  845.8892 121.7215 -885.9714
v  903.1611 159.9894 -885.9714
v  941.4289 217.2613 -885.9714
v  954.8667 284.8181 -813.4514
v  941.4289 352.3749 -813.4513
v  903.1611 409.6468 -813.4513
v  845.8892 447.9147 -813.4513
v  778.3323 461.3526 -813.4513
v  710.7753 447.9147 -813.4513
v  653.5035 409.6469 -813.4514
v  615.2357 352.3749 -813.4514
v  601.7978 284.8181 -813.4514
v  615.2356 217.2613 -813.4514
v  653.5035 159.9894 -813.4514
v  710.7753 121.7215 -813.4514
v  778.3323 108.2836 -813.4514
v  845.8892 121.7215 -813.4514
v  903.1611 159.9894 -813.4514
v  941.4289 217.2614 -813.4514
v  843.1433 284.8181 -813.4514
v  838.2099 309.6202 -813.4514
v  824.1606 330.6464 -813.4514
v  803.1343 344.6956 -813.4514
v  778.3323 349.6291 -813.4514
v  753.5300 344.6956 -813.4514
v  732.5040 330.6464 -813.4514
v  718.4548 309.6202 -813.4514
v  713.5214 284.8181 -813.4514
v  718.4548 260.0160 -813.4514
v  732.5038 238.9898 -813.4514
v  753.5300 224.9406 -813.4514
v  778.3323 220.0071 -813.4514
v  803.1343 224.9406 -813.4514
v  824.1606 238.9899 -813.4514
v  838.2099 260.0161 -813.4514
v  843.1432 284.8181 -843.4737
v  838.2099 309.6202 -843.4737
v  824.1607 330.6464 -843.4737
v  803.1343 344.6956 -843.4737
v  778.3323 349.6291 -843.4737
v  753.5301 344.6956 -843.4737
v  732.5041 330.6464 -843.4737
v  718.4548 309.6202 -843.4737
v  713.5214 284.8181 -843.4737
v  718.4548 260.0160 -843.4737
v  732.5038 238.9898 -843.4737
v  753.5301 224.9406 -843.4737
v  778.3323 220.0071 -843.4737
v  803.1343 224.9406 -843.4737
v  824.1607 238.9899 -843.4737
v  838.2099 260.0161 -843.4737
v  736.7049 302.0608 -862.2457
v  746.4720 316.6784 -862.2457
v  819.9599 302.0608 -862.2457
v  823.3896 284.8181 -862.2457
v  819.9599 267.5754 -862.2457
v  810.1927 252.9578 -862.2457
v  736.7049 267.5754 -862.2457
v  733.2751 284.8181 -862.2457
v  778.3323 284.8180 -654.6843
v  778.3323 329.8753 -862.2457
v  795.5749 326.4456 -862.2457
v  810.1927 316.6784 -862.2457
v  761.0895 326.4455 -862.2457
v  795.5749 243.1906 -862.2457
v  778.3323 239.7608 -862.2457
v  761.0895 243.1906 -862.2457
v  746.4719 252.9578 -862.2457
# 113 vertices

vn 1.0000 0.0000 0.0000
vn 0.9239 0.3827 0.0000
vn 0.7071 0.7071 0.0000
vn 0.3827 0.9239 0.0000
vn -0.0000 1.0000 0.0000
vn -0.3827 0.9239 0.0000
vn -0.7071 0.7071 0.0000
vn -0.9239 0.3827 0.0000
vn -0.9239 0.3827 -0.0000
vn -1.0000 0.0000 -0.0000
vn -0.9239 -0.3827 -0.0000
vn -0.7071 -0.7071 -0.0000
vn -0.3827 -0.9239 -0.0000
vn 0.0000 -1.0000 -0.0000
vn 0.3827 -0.9239 -0.0000
vn 0.7071 -0.7071 -0.0000
vn 0.9239 -0.3827 0.0000
vn 0.0000 0.0000 -1.0000
vn 0.0000 -0.0000 -1.0000
vn -0.0000 0.0000 -1.0000
vn 0.9239 -0.3827 -0.0000
vn 1.0000 -0.0000 -0.0000
vn 1.0000 -0.0000 0.0000
vn 0.9239 0.3827 -0.0000
vn 0.7071 0.7071 -0.0000
vn 0.3827 0.9239 -0.0000
vn -0.0000 1.0000 -0.0000
vn -0.3827 0.9239 -0.0000
vn -0.7071 0.7071 -0.0000
vn 0.0000 1.0000 -0.0000
vn 0.0000 1.0000 0.0000
vn -1.0000 -0.0000 -0.0000
vn -0.9239 -0.3827 0.0000
vn -0.7071 -0.7071 0.0000
vn 0.0000 -1.0000 0.0000
vn 0.3827 -0.9239 0.0000
vn 0.7071 -0.7071 0.0000
vn -0.3783 0.1567 -0.9123
vn -0.2895 0.2895 -0.9123
vn 0.3783 0.1567 -0.9123
vn 0.4095 -0.0000 -0.9123
vn 0.3783 -0.1567 -0.9123
vn 0.2895 -0.2895 -0.9123
vn -0.3783 -0.1567 -0.9123
vn -0.4095 0.0000 -0.9123
vn 0.0000 -0.0000 1.0000
vn 0.0000 0.0000 1.0000
vn -0.0000 -0.0000 1.0000
vn -0.0000 0.0000 1.0000
vn -0.0000 0.4095 -0.9123
vn 0.1567 0.3783 -0.9123
vn 0.2895 0.2895 -0.9123
vn -0.1567 0.3783 -0.9123
vn 0.1567 -0.3783 -0.9123
vn 0.0000 -0.4095 -0.9123
vn -0.1567 -0.3783 -0.9123
vn -0.2895 -0.2895 -0.9123
vn 0.6364 0.2636 -0.7249
vn 0.6889 -0.0000 -0.7249
vn 0.4871 0.4871 -0.7249
vn 0.2636 0.6364 -0.7249
vn -0.0000 0.6889 -0.7249
vn -0.2636 0.6364 -0.7249
vn -0.4871 0.4871 -0.7249
vn -0.6364 0.2636 -0.7249
vn -0.6889 0.0000 -0.7249
vn -0.6364 -0.2636 -0.7249
vn -0.4871 -0.4871 -0.7249
vn -0.2636 -0.6364 -0.7249
vn 0.0000 -0.6889 -0.7249
vn 0.2636 -0.6364 -0.7249
vn 0.4871 -0.4871 -0.7249
vn 0.6364 -0.2636 -0.7249
# 73 vertex normals

vt 0.0678 0.1504 0.0000
vt 0.0274 0.1504 0.0000
vt 0.0274 0.1332 0.0000
vt 0.0678 0.1332 0.0000
vt 0.0274 0.1163 0.0000
vt 0.0678 0.1163 0.0000
vt 0.0274 0.0992 0.0000
vt 0.0678 0.0992 0.0000
vt 0.0274 0.0818 0.0000
vt 0.0678 0.0818 0.0000
vt 0.0274 0.0644 0.0000
vt 0.0678 0.0644 0.0000
vt 0.0274 0.0480 0.0000
vt 0.0678 0.0480 0.0000
vt 0.0274 0.0335 0.0000
vt 0.0678 0.0335 0.0000
vt 0.0274 0.0164 0.0000
vt 0.0678 0.0164 0.0000
vt 0.0678 0.2842 0.0000
vt 0.0274 0.2842 0.0000
vt 0.0274 0.2683 0.0000
vt 0.0678 0.2683 0.0000
vt 0.0274 0.2532 0.0000
vt 0.0678 0.2532 0.0000
vt 0.0274 0.2373 0.0000
vt 0.0678 0.2373 0.0000
vt 0.0274 0.2199 0.0000
vt 0.0678 0.2199 0.0000
vt 0.0274 0.2025 0.0000
vt 0.0678 0.2025 0.0000
vt 0.0274 0.1850 0.0000
vt 0.0678 0.1850 0.0000
vt 0.0274 0.1671 0.0000
vt 0.0678 0.1671 0.0000
vt 0.0825 0.1844 0.0000
vt 0.1079 0.1844 0.0000
vt 0.1107 0.1984 0.0000
vt 0.0872 0.2081 0.0000
vt 0.1186 0.2102 0.0000
vt 0.1006 0.2282 0.0000
vt 0.1305 0.2181 0.0000
vt 0.1207 0.2417 0.0000
vt 0.1444 0.2209 0.0000
vt 0.1444 0.2464 0.0000
vt 0.1584 0.2181 0.0000
vt 0.1681 0.2417 0.0000
vt 0.1702 0.2102 0.0000
vt 0.1882 0.2282 0.0000
vt 0.1781 0.1984 0.0000
vt 0.2017 0.2081 0.0000
vt 0.1809 0.1844 0.0000
vt 0.2064 0.1844 0.0000
vt 0.1781 0.1704 0.0000
vt 0.2017 0.1607 0.0000
vt 0.1702 0.1586 0.0000
vt 0.1882 0.1406 0.0000
vt 0.1584 0.1507 0.0000
vt 0.1681 0.1272 0.0000
vt 0.1444 0.1479 0.0000
vt 0.1444 0.1224 0.0000
vt 0.1305 0.1507 0.0000
vt 0.1207 0.1272 0.0000
vt 0.1186 0.1586 0.0000
vt 0.1006 0.1406 0.0000
vt 0.1107 0.1704 0.0000
vt 0.0872 0.1607 0.0000
vt 0.1110 0.1844 0.0000
vt 0.1135 0.1972 0.0000
vt 0.1208 0.2081 0.0000
vt 0.1316 0.2153 0.0000
vt 0.1444 0.2179 0.0000
vt 0.1572 0.2153 0.0000
vt 0.1681 0.2081 0.0000
vt 0.1753 0.1972 0.0000
vt 0.1779 0.1844 0.0000
vt 0.1753 0.1716 0.0000
vt 0.1681 0.1608 0.0000
vt 0.1572 0.1535 0.0000
vt 0.1444 0.1510 0.0000
vt 0.1316 0.1535 0.0000
vt 0.1208 0.1608 0.0000
vt 0.1135 0.1716 0.0000
vt 0.1309 0.1844 0.0000
vt 0.1319 0.1896 0.0000
vt 0.1349 0.1940 0.0000
vt 0.1392 0.1969 0.0000
vt 0.1444 0.1979 0.0000
vt 0.1496 0.1969 0.0000
vt 0.1540 0.1940 0.0000
vt 0.1569 0.1896 0.0000
vt 0.1579 0.1844 0.0000
vt 0.1569 0.1792 0.0000
vt 0.1540 0.1749 0.0000
vt 0.1496 0.1719 0.0000
vt 0.1444 0.1709 0.0000
vt 0.1392 0.1719 0.0000
vt 0.1349 0.1749 0.0000
vt 0.1319 0.1792 0.0000
vt 0.1318 0.1844 0.0000
vt 0.1327 0.1893 0.0000
vt 0.1355 0.1934 0.0000
vt 0.1396 0.1961 0.0000
vt 0.1444 0.1971 0.0000
vt 0.1493 0.1961 0.0000
vt 0.1534 0.1934 0.0000
vt 0.1561 0.1893 0.0000
vt 0.1571 0.1844 0.0000
vt 0.1561 0.1796 0.0000
vt 0.1534 0.1755 0.0000
vt 0.1493 0.1727 0.0000
vt 0.1444 0.1718 0.0000
vt 0.1396 0.1727 0.0000
vt 0.1355 0.1755 0.0000
vt 0.1327 0.1796 0.0000
vt 0.1553 0.1889 0.0000
vt 0.1528 0.1927 0.0000
vt 0.1335 0.1889 0.0000
vt 0.1326 0.1844 0.0000
vt 0.1335 0.1799 0.0000
vt 0.1361 0.1761 0.0000
vt 0.1553 0.1799 0.0000
vt 0.1562 0.1844 0.0000
vt 0.1644 0.0260 0.0000
vt 0.1448 0.0710 0.0000
vt 0.1457 0.0219 0.0000
vt 0.1269 0.0253 0.0000
vt 0.1108 0.0357 0.0000
vt 0.0998 0.0514 0.0000
vt 0.0958 0.0701 0.0000
vt 0.0992 0.0890 0.0000
vt 0.1095 0.1051 0.0000
vt 0.1252 0.1160 0.0000
vt 0.1440 0.1201 0.0000
vt 0.1628 0.1167 0.0000
vt 0.1789 0.1063 0.0000
vt 0.1898 0.0906 0.0000
vt 0.1939 0.0719 0.0000
vt 0.1905 0.0530 0.0000
vt 0.1801 0.0369 0.0000
vt 0.1444 0.1962 0.0000
vt 0.1399 0.1953 0.0000
vt 0.1361 0.1927 0.0000
vt 0.1489 0.1953 0.0000
vt 0.1399 0.1735 0.0000
vt 0.1444 0.1726 0.0000
vt 0.1489 0.1735 0.0000
vt 0.1528 0.1761 0.0000
# 147 texture coords

g Buggy_Car__01_FW_L
s 1
f 1/1/1 2/2/1 3/3/2 4/4/2 
f 4/4/2 3/3/2 5/5/3 6/6/3 
f 6/6/3 5/5/3 7/7/4 8/8/4 
f 8/8/4 7/7/4 9/9/5 10/10/5 
f 10/10/5 9/9/5 11/11/6 12/12/6 
f 12/12/6 11/11/6 13/13/7 14/14/7 
f 14/14/7 13/13/7 15/15/8 16/16/9 
f 16/16/9 15/15/8 17/17/10 18/18/10 
f 18/19/10 17/20/10 19/21/11 20/22/11 
f 20/22/11 19/21/11 21/23/12 22/24/12 
f 22/24/12 21/23/12 23/25/13 24/26/13 
f 24/26/13 23/25/13 25/27/14 26/28/14 
f 26/28/14 25/27/14 27/29/15 28/30/15 
f 28/30/15 27/29/15 29/31/16 30/32/16 
f 30/32/16 29/31/16 31/33/17 32/34/17 
f 32/34/17 31/33/17 2/2/1 1/1/1 
s 2
f 2/35/18 33/36/18 34/37/18 3/38/18 
f 3/38/18 34/37/18 35/39/18 5/40/18 
f 5/40/18 35/39/18 36/41/18 7/42/18 
f 7/42/18 36/41/18 37/43/18 9/44/18 
f 9/44/18 37/43/18 38/45/18 11/46/19 
f 11/46/19 38/45/18 39/47/18 13/48/19 
f 13/48/19 39/47/18 40/49/20 15/50/20 
f 15/50/20 40/49/20 41/51/20 17/52/18 
f 17/52/18 41/51/20 42/53/18 19/54/18 
f 19/54/18 42/53/18 43/55/18 21/56/18 
f 21/56/18 43/55/18 44/57/19 23/58/18 
f 23/58/18 44/57/19 45/59/20 25/60/20 
f 25/60/20 45/59/20 46/61/20 27/62/19 
f 27/62/19 46/61/20 47/63/19 29/64/19 
f 29/64/19 47/63/19 48/65/19 31/66/19 
f 31/66/19 48/65/19 33/36/18 2/35/18 
s 1
f 33/36/10 49/67/10 50/68/11 34/37/11 
f 34/37/11 50/68/11 51/69/12 35/39/12 
f 35/39/12 51/69/12 52/70/13 36/41/13 
f 36/41/13 52/70/13 53/71/14 37/43/14 
f 37/43/14 53/71/14 54/72/15 38/45/15 
f 38/45/15 54/72/15 55/73/16 39/47/16 
f 39/47/16 55/73/16 56/74/21 40/49/17 
f 40/49/17 56/74/21 57/75/22 41/51/23 
f 41/51/23 57/75/22 58/76/24 42/53/24 
f 42/53/24 58/76/24 59/77/25 43/55/25 
f 43/55/25 59/77/25 60/78/26 44/57/26 
f 44/57/26 60/78/26 61/79/27 45/59/27 
f 45/59/27 61/79/27 62/80/28 46/61/28 
f 46/61/28 62/80/28 63/81/29 47/63/29 
f 47/63/29 63/81/29 64/82/9 48/65/9 
f 48/65/9 64/82/9 49/67/10 33/36/10 
s off
f 49/67/18 65/83/18 66/84/18 50/68/18 
f 50/68/18 66/84/18 67/85/18 51/69/18 
f 51/69/18 67/85/18 68/86/18 52/70/18 
f 52/70/18 68/86/18 69/87/18 53/71/18 
f 53/71/20 69/87/20 70/88/20 54/72/20 
f 54/72/18 70/88/18 71/89/18 55/73/18 
f 55/73/18 71/89/18 72/90/18 56/74/18 
f 56/74/18 72/90/18 73/91/18 57/75/18 
f 57/75/18 73/91/18 74/92/18 58/76/18 
f 58/76/18 74/92/18 75/93/18 59/77/18 
f 59/77/18 75/93/18 76/94/18 60/78/18 
f 60/78/18 76/94/18 77/95/18 61/79/18 
f 61/79/18 77/95/18 78/96/18 62/80/18 
f 62/80/18 78/96/18 79/97/18 63/81/18 
f 63/81/18 79/97/18 80/98/18 64/82/18 
f 64/82/18 80/98/18 65/83/18 49/67/18 
s 1
f 81/99/22 82/100/2 66/84/24 65/83/22 
f 82/100/2 83/101/3 67/85/3 66/84/24 
f 83/101/3 84/102/4 68/86/4 67/85/3 
f 84/102/4 85/103/30 69/87/31 68/86/4 
f 85/103/30 86/104/28 70/88/28 69/87/31 
f 86/104/28 87/105/29 71/89/29 70/88/28 
f 87/105/29 88/106/9 72/90/9 71/89/29 
f 88/106/9 89/107/32 73/91/32 72/90/9 
f 89/107/32 90/108/33 74/92/11 73/91/32 
f 90/108/33 91/109/12 75/93/34 74/92/11 
f 91/109/12 92/110/13 76/94/13 75/93/34 
f 92/110/13 93/111/35 77/95/35 76/94/13 
f 93/111/35 94/112/36 78/96/36 77/95/35 
f 94/112/36 95/113/37 79/97/37 78/96/36 
f 95/113/37 96/114/21 80/98/17 79/97/37 
f 96/114/21 81/99/22 65/83/22 80/98/17 
s 2
f 97/115/38 98/116/39 99/117/40 100/118/41 
f 101/119/42 102/120/43 103/121/44 104/122/45 
f 4/123/46 105/124/47 1/125/48 
f 1/125/48 105/124/47 32/126/47 
f 32/126/47 105/124/47 30/127/49 
f 30/127/49 105/124/47 28/128/49 
f 28/128/49 105/124/47 26/129/47 
f 26/129/47 105/124/47 24/130/47 
f 24/130/47 105/124/47 22/131/47 
f 22/131/47 105/124/47 20/132/47 
f 20/132/47 105/124/47 18/133/46 
f 18/133/46 105/124/47 16/134/46 
f 16/134/46 105/124/47 14/135/46 
f 14/135/46 105/124/47 12/136/47 
f 12/136/47 105/124/47 10/137/47 
f 10/137/47 105/124/47 8/138/49 
f 8/138/49 105/124/47 6/139/48 
f 6/139/48 105/124/47 4/123/46 
f 106/140/50 107/141/51 108/142/52 109/143/53 
f 109/143/53 108/142/52 99/117/40 98/116/39 
f 97/115/38 100/118/41 101/119/42 104/122/45 
f 110/144/54 111/145/55 112/146/56 113/147/57 
f 110/144/54 113/147/57 103/121/44 102/120/43 
f 100/118/41 99/117/40 82/100/58 81/99/59 
f 99/117/40 108/142/52 83/101/60 82/100/58 
f 108/142/52 107/141/51 84/102/61 83/101/60 
f 107/141/51 106/140/50 85/103/62 84/102/61 
f 106/140/50 109/143/53 86/104/63 85/103/62 
f 109/143/53 98/116/39 87/105/64 86/104/63 
f 98/116/39 97/115/38 88/106/65 87/105/64 
f 97/115/38 104/122/45 89/107/66 88/106/65 
f 104/122/45 103/121/44 90/108/67 89/107/66 
f 103/121/44 113/147/57 91/109/68 90/108/67 
f 113/147/57 112/146/56 92/110/69 91/109/68 
f 112/146/56 111/145/55 93/111/70 92/110/69 
f 111/145/55 110/144/54 94/112/71 93/111/70 
f 110/144/54 102/120/43 95/113/72 94/112/71 
f 102/120/43 101/119/42 96/114/73 95/113/72 
f 101/119/42 100/118/41 81/99/59 96/114/73 
# 103 polygons - 16 triangles

