# 3ds Max Wavefront OBJ Exporter v0.97b - (c)2007 guruware
# File Created: 27.07.2015 20:11:49

mtllib Buffalo Ribs C.mtl

#
# object Buffalo_Ribs_C
#

v  -62.6309 -2.4049 -149.6433
v  62.6307 -2.4049 -149.6433
v  38.8578 19.4682 -60.8429
v  -38.8579 19.4682 -60.8429
v  38.8578 69.0583 -60.8429
v  62.6307 90.9314 -149.6433
v  -62.6309 90.9314 -149.6433
v  -38.8579 69.0583 -60.8429
v  38.8578 19.4682 -238.4438
v  -38.8580 19.4682 -238.4437
v  -38.8579 69.0583 -238.4437
v  38.8578 69.0583 -238.4438
v  402.9370 171.7789 -115.2181
v  403.6830 172.0578 -179.1963
v  374.6451 184.9889 -179.4785
v  373.8991 184.7100 -115.5003
v  312.4788 59.4684 -114.7401
v  313.0700 59.5235 -182.1057
v  293.5562 86.7160 -182.2547
v  292.9650 86.6609 -114.8891
v  177.2824 8.0612 -113.9454
v  34.2093 32.0376 -112.5835
v  34.2093 32.0376 -186.7220
v  177.6007 8.0060 -184.6980
v  49.7759 65.4202 -186.7220
v  174.3341 43.0056 -184.7400
v  49.7759 65.4202 -112.5835
v  174.0158 43.0608 -113.9874
v  -402.9371 171.7790 -115.2180
v  -373.8992 184.7101 -115.5002
v  -374.6452 184.9890 -179.4784
v  -403.6831 172.0579 -179.1962
v  -313.0702 59.5236 -182.1057
v  -312.4790 59.4684 -114.7400
v  -293.5564 86.7161 -182.2546
v  -292.9652 86.6609 -114.8890
v  -177.2826 8.0612 -113.9453
v  -177.6008 8.0060 -184.6980
v  -34.2095 32.0376 -186.7220
v  -34.2095 32.0377 -112.5835
v  -174.3342 43.0057 -184.7400
v  -49.7760 65.4202 -186.7220
v  -174.0159 43.0609 -113.9873
v  -49.7760 65.4202 -112.5835
v  -60.4637 -1.2514 -318.9028
v  60.4635 -1.2514 -318.9028
v  37.5132 19.8648 -233.1752
v  -37.5133 19.8648 -233.1752
v  37.5132 67.7389 -233.1752
v  60.4635 88.8551 -318.9028
v  -60.4637 88.8551 -318.9028
v  -37.5133 67.7389 -233.1752
v  37.5131 19.8648 -404.6304
v  -37.5134 19.8648 -404.6304
v  -37.5134 67.7389 -404.6304
v  37.5131 67.7389 -404.6304
v  388.9940 166.9051 -285.6688
v  389.7142 167.1743 -347.4332
v  361.6812 179.6580 -347.7056
v  360.9610 179.3887 -285.9413
v  301.6660 58.4809 -285.2073
v  302.2368 58.5341 -350.2419
v  283.3982 84.7856 -350.3857
v  282.8274 84.7324 -285.3511
v  171.1479 8.8525 -284.4401
v  33.0256 31.9993 -283.1254
v  33.0255 31.9993 -354.6984
v  171.4551 8.7992 -352.7445
v  48.0534 64.2267 -354.6984
v  168.3016 42.5878 -352.7850
v  48.0535 64.2267 -283.1254
v  167.9943 42.6411 -284.4807
v  -388.9941 166.9052 -285.6687
v  -360.9612 179.3888 -285.9411
v  -361.6813 179.6580 -347.7055
v  -389.7144 167.1744 -347.4330
v  -302.2370 58.5341 -350.2418
v  -301.6662 58.4809 -285.2072
v  -283.3984 84.7857 -350.3857
v  -282.8277 84.7324 -285.3510
v  -171.1480 8.8525 -284.4401
v  -171.4553 8.7992 -352.7444
v  -33.0257 31.9993 -354.6984
v  -33.0257 31.9993 -283.1254
v  -168.3017 42.5878 -352.7850
v  -48.0536 64.2267 -354.6984
v  -167.9944 42.6411 -284.4806
v  -48.0536 64.2267 -283.1254
v  -58.2109 1.7539 21.4360
v  58.2108 1.7539 21.4360
v  36.1156 22.0833 103.9696
v  -36.1156 22.0833 103.9696
v  36.1156 68.1738 103.9696
v  58.2108 88.5032 21.4360
v  -58.2109 88.5032 21.4360
v  -36.1156 68.1738 103.9696
v  36.1155 22.0833 -61.0976
v  -36.1156 22.0833 -61.0976
v  -36.1156 68.1737 -61.0976
v  36.1155 68.1737 -61.0976
v  374.5009 163.6452 53.4318
v  375.1942 163.9044 -6.0314
v  348.2057 175.9229 -6.2937
v  347.5123 175.6637 53.1695
v  290.4265 59.2606 53.8760
v  290.9760 59.3119 -8.7355
v  272.8394 84.5853 -8.8740
v  272.2899 84.5341 53.7376
v  164.7713 11.4813 54.6147
v  31.7951 33.7657 55.8804
v  31.7951 33.7657 -13.0259
v  165.0670 11.4300 -11.1448
v  46.2631 64.7924 -13.0259
v  162.0310 43.9597 -11.1839
v  46.2631 64.7924 55.8804
v  161.7352 44.0110 54.5756
v  -374.5009 163.6452 53.4319
v  -347.5124 175.6638 53.1696
v  -348.2057 175.9230 -6.2936
v  -375.1943 163.9044 -6.0313
v  -290.9762 59.3119 -8.7354
v  -290.4267 59.2607 53.8761
v  -272.8395 84.5854 -8.8739
v  -272.2900 84.5341 53.7377
v  -164.7713 11.4814 54.6147
v  -165.0672 11.4301 -11.1448
v  -31.7952 33.7657 -13.0259
v  -31.7952 33.7657 55.8804
v  -162.0311 43.9597 -11.1838
v  -46.2632 64.7924 -13.0259
v  -161.7352 44.0110 54.5757
v  -46.2632 64.7924 55.8804
v  -55.0171 4.1716 181.2957
v  55.0170 4.1716 181.2957
v  34.1341 23.3857 259.3011
v  -34.1341 23.3857 259.3011
v  34.1341 66.9474 259.3011
v  55.0171 86.1614 181.2957
v  -55.0171 86.1615 181.2957
v  -34.1341 66.9474 259.3011
v  34.1341 23.3857 103.2904
v  -34.1341 23.3857 103.2904
v  -34.1341 66.9473 103.2904
v  34.1341 66.9473 103.2904
v  353.9539 157.1808 211.5360
v  354.6092 157.4257 155.3354
v  329.1013 168.7848 155.0874
v  328.4460 168.5399 211.2881
v  274.4923 58.5232 211.9560
v  275.0116 58.5717 152.7796
v  257.8700 82.4585 152.6487
v  257.3507 82.4101 211.8251
v  155.7311 13.3654 212.6541
v  30.0507 34.4271 213.8504
v  30.0507 34.4271 148.7246
v  156.0107 13.3169 150.5025
v  43.7249 63.7515 148.7245
v  153.1412 44.0618 150.4656
v  43.7249 63.7515 213.8504
v  152.8616 44.1103 212.6172
v  -353.9539 157.1808 211.5362
v  -328.4460 168.5399 211.2883
v  -329.1013 168.7849 155.0876
v  -354.6092 157.4258 155.3355
v  -275.0117 58.5717 152.7797
v  -274.4923 58.5233 211.9560
v  -257.8701 82.4586 152.6488
v  -257.3507 82.4101 211.8252
v  -155.7311 13.3654 212.6541
v  -156.0107 13.3169 150.5026
v  -30.0508 34.4271 148.7246
v  -30.0507 34.4271 213.8504
v  -153.1412 44.0618 150.4656
v  -43.7249 63.7515 148.7245
v  -152.8616 44.1103 212.6172
v  -43.7249 63.7515 213.8504
v  -51.9986 6.0423 330.9049
v  51.9986 6.0422 330.9049
v  32.2613 24.2021 404.6305
v  -32.2613 24.2021 404.6305
v  32.2613 65.3738 404.6305
v  51.9986 83.5337 330.9048
v  -51.9986 83.5337 330.9048
v  -32.2613 65.3738 404.6305
v  32.2613 24.2021 257.1793
v  -32.2613 24.2021 257.1793
v  -32.2613 65.3738 257.1792
v  32.2613 65.3738 257.1792
v  334.5342 150.6565 359.4861
v  335.1535 150.8880 306.3688
v  311.0452 161.6239 306.1345
v  310.4258 161.3924 359.2517
v  259.4323 57.4118 359.8829
v  259.9231 57.4576 303.9533
v  243.7220 80.0339 303.8296
v  243.2311 79.9881 359.7592
v  147.1869 14.7316 360.5427
v  28.4020 34.6378 361.6734
v  28.4020 34.6378 300.1207
v  147.4511 14.6858 301.8011
v  41.3259 62.3533 300.1207
v  144.7391 43.7438 301.7662
v  41.3260 62.3533 361.6734
v  144.4748 43.7897 360.5078
v  -334.5341 150.6566 359.4862
v  -310.4258 161.3924 359.2519
v  -311.0452 161.6240 306.1346
v  -335.1535 150.8881 306.3690
v  -259.9231 57.4577 303.9534
v  -259.4323 57.4119 359.8830
v  -243.7220 80.0340 303.8297
v  -243.2311 79.9882 359.7593
v  -147.1869 14.7316 360.5428
v  -147.4512 14.6858 301.8012
v  -28.4020 34.6378 300.1207
v  -28.4020 34.6378 361.6734
v  -144.7391 43.7439 301.7663
v  -41.3259 62.3533 300.1207
v  -144.4748 43.7897 360.5079
v  -41.3259 62.3533 361.6734
# 220 vertices

vn -0.0000 -0.9710 0.2392
vn 0.0000 0.9710 0.2392
vn 0.0000 0.0000 1.0000
vn 0.9660 -0.0000 0.2586
vn -0.0000 -0.0000 -1.0000
vn -0.9660 0.0000 -0.2586
vn -0.0000 -0.9710 -0.2392
vn 0.0000 0.9710 -0.2392
vn 0.9660 -0.0000 -0.2586
vn -0.9660 0.0000 0.2586
vn 0.4067 0.9135 0.0087
vn 0.7788 -0.6272 0.0063
vn 0.0186 0.0118 -0.9998
vn -0.7712 0.6365 -0.0062
vn -0.0028 0.0074 1.0000
vn -0.1653 -0.9862 0.0000
vn 0.3554 -0.9347 0.0023
vn 0.0144 -0.0032 -0.9999
vn 0.0185 0.0037 -0.9998
vn 0.1771 0.9842 0.0000
vn -0.3442 0.9389 -0.0023
vn 0.0101 -0.0012 0.9999
vn 0.0049 0.0049 1.0000
vn -0.4067 0.9135 0.0087
vn -0.7788 -0.6272 0.0063
vn -0.0186 0.0118 -0.9998
vn 0.7712 0.6365 -0.0062
vn 0.0028 0.0074 1.0000
vn 0.1653 -0.9862 0.0000
vn -0.3554 -0.9347 0.0023
vn -0.0144 -0.0032 -0.9999
vn -0.0185 0.0037 -0.9998
vn -0.1771 0.9842 0.0000
vn 0.3442 0.9389 -0.0023
vn -0.0101 -0.0012 0.9999
vn -0.0049 0.0049 1.0000
vn -0.0027 0.0074 1.0000
vn 0.0027 0.0074 1.0000
vn -0.9660 -0.0000 -0.2586
# 39 vertex normals

vt 0.2790 0.5510 0.0000
vt 0.2790 0.6306 0.0000
vt 0.2226 0.6155 0.0000
vt 0.2226 0.5661 0.0000
vt 0.3334 0.5302 0.0000
vt 0.2794 0.5447 0.0000
vt 0.2794 0.4685 0.0000
vt 0.3334 0.4830 0.0000
vt 0.3636 0.4830 0.0000
vt 0.3636 0.5302 0.0000
vt 0.2812 0.3356 0.0000
vt 0.2812 0.3948 0.0000
vt 0.2249 0.3809 0.0000
vt 0.2249 0.3494 0.0000
vt 0.1955 0.5299 0.0000
vt 0.1955 0.4832 0.0000
vt 0.2254 0.4831 0.0000
vt 0.2254 0.5301 0.0000
vt 0.2798 0.4014 0.0000
vt 0.2798 0.4606 0.0000
vt 0.2234 0.4467 0.0000
vt 0.2234 0.4152 0.0000
vt 0.3354 0.5661 0.0000
vt 0.3354 0.6155 0.0000
vt 0.3376 0.3494 0.0000
vt 0.3376 0.3809 0.0000
vt 0.3362 0.4152 0.0000
vt 0.3362 0.4467 0.0000
vt 0.9457 0.8844 0.0000
vt 0.9732 0.8844 0.0000
vt 0.9732 0.8990 0.0000
vt 0.9457 0.8990 0.0000
vt 0.7961 0.9832 0.0000
vt 0.7956 0.9563 0.0000
vt 0.8563 0.9544 0.0000
vt 0.8569 0.9828 0.0000
vt 0.7353 0.7708 0.0000
vt 0.7351 0.7572 0.0000
vt 0.7952 0.7720 0.0000
vt 0.7882 0.7845 0.0000
vt 0.7966 0.9138 0.0000
vt 0.7971 0.9434 0.0000
vt 0.7380 0.9450 0.0000
vt 0.7376 0.9137 0.0000
vt 0.8545 0.9060 0.0000
vt 0.8547 0.8923 0.0000
vt 0.9075 0.8787 0.0000
vt 0.9145 0.8912 0.0000
vt 0.9172 0.9522 0.0000
vt 0.9782 0.9497 0.0000
vt 0.9792 0.9809 0.0000
vt 0.9180 0.9820 0.0000
vt 0.8398 0.8152 0.0000
vt 0.8564 0.8753 0.0000
vt 0.8406 0.8753 0.0000
vt 0.8268 0.8229 0.0000
vt 0.6204 0.9473 0.0000
vt 0.6203 0.9129 0.0000
vt 0.6789 0.9134 0.0000
vt 0.6791 0.9463 0.0000
vt 0.9459 0.8404 0.0000
vt 0.9598 0.7881 0.0000
vt 0.9755 0.7881 0.0000
vt 0.9589 0.8480 0.0000
vt 0.0899 0.5498 0.0000
vt 0.0899 0.6293 0.0000
vt 0.0335 0.6143 0.0000
vt 0.0335 0.5649 0.0000
vt 0.1443 0.5290 0.0000
vt 0.0903 0.5435 0.0000
vt 0.0903 0.4673 0.0000
vt 0.1443 0.4818 0.0000
vt 0.1744 0.4818 0.0000
vt 0.1744 0.5290 0.0000
vt 0.0921 0.3344 0.0000
vt 0.0921 0.3936 0.0000
vt 0.0357 0.3797 0.0000
vt 0.0357 0.3482 0.0000
vt 0.0064 0.5287 0.0000
vt 0.0064 0.4820 0.0000
vt 0.0362 0.4819 0.0000
vt 0.0362 0.5289 0.0000
vt 0.0907 0.4002 0.0000
vt 0.0907 0.4594 0.0000
vt 0.0343 0.4455 0.0000
vt 0.0343 0.4140 0.0000
vt 0.1463 0.5649 0.0000
vt 0.1463 0.6143 0.0000
vt 0.1485 0.3482 0.0000
vt 0.1485 0.3797 0.0000
vt 0.1471 0.4140 0.0000
vt 0.1471 0.4455 0.0000
vt 0.9412 0.6475 0.0000
vt 0.9687 0.6475 0.0000
vt 0.9687 0.6622 0.0000
vt 0.9412 0.6622 0.0000
vt 0.7916 0.7464 0.0000
vt 0.7911 0.7194 0.0000
vt 0.8518 0.7175 0.0000
vt 0.8524 0.7459 0.0000
vt 0.7309 0.5339 0.0000
vt 0.7306 0.5203 0.0000
vt 0.7907 0.5351 0.0000
vt 0.7837 0.5476 0.0000
vt 0.7921 0.6769 0.0000
vt 0.7926 0.7066 0.0000
vt 0.7335 0.7081 0.0000
vt 0.7332 0.6769 0.0000
vt 0.8500 0.6691 0.0000
vt 0.8502 0.6555 0.0000
vt 0.9030 0.6418 0.0000
vt 0.9100 0.6543 0.0000
vt 0.9127 0.7153 0.0000
vt 0.9737 0.7129 0.0000
vt 0.9747 0.7441 0.0000
vt 0.9135 0.7451 0.0000
vt 0.8353 0.5784 0.0000
vt 0.8519 0.6384 0.0000
vt 0.8361 0.6384 0.0000
vt 0.8223 0.5860 0.0000
vt 0.6159 0.7104 0.0000
vt 0.6159 0.6760 0.0000
vt 0.6744 0.6766 0.0000
vt 0.6746 0.7094 0.0000
vt 0.9415 0.6035 0.0000
vt 0.9553 0.5512 0.0000
vt 0.9711 0.5512 0.0000
vt 0.9545 0.6111 0.0000
vt 0.0923 0.2402 0.0000
vt 0.0923 0.3198 0.0000
vt 0.0359 0.3047 0.0000
vt 0.0359 0.2553 0.0000
vt 0.1467 0.2194 0.0000
vt 0.0927 0.2339 0.0000
vt 0.0927 0.1578 0.0000
vt 0.1467 0.1722 0.0000
vt 0.1769 0.1722 0.0000
vt 0.1769 0.2194 0.0000
vt 0.0945 0.0248 0.0000
vt 0.0945 0.0840 0.0000
vt 0.0381 0.0702 0.0000
vt 0.0381 0.0387 0.0000
vt 0.0088 0.2191 0.0000
vt 0.0088 0.1725 0.0000
vt 0.0387 0.1723 0.0000
vt 0.0387 0.2193 0.0000
vt 0.0931 0.0906 0.0000
vt 0.0931 0.1498 0.0000
vt 0.0367 0.1360 0.0000
vt 0.0367 0.1045 0.0000
vt 0.1487 0.2553 0.0000
vt 0.1487 0.3047 0.0000
vt 0.1509 0.0387 0.0000
vt 0.1509 0.0702 0.0000
vt 0.1495 0.1045 0.0000
vt 0.1495 0.1360 0.0000
vt 0.9369 0.3984 0.0000
vt 0.9644 0.3984 0.0000
vt 0.9644 0.4131 0.0000
vt 0.9369 0.4131 0.0000
vt 0.7873 0.4973 0.0000
vt 0.7868 0.4703 0.0000
vt 0.8475 0.4684 0.0000
vt 0.8482 0.4968 0.0000
vt 0.7266 0.2848 0.0000
vt 0.7264 0.2712 0.0000
vt 0.7865 0.2860 0.0000
vt 0.7794 0.2985 0.0000
vt 0.8457 0.4200 0.0000
vt 0.8460 0.4064 0.0000
vt 0.8987 0.3927 0.0000
vt 0.9057 0.4052 0.0000
vt 0.9084 0.4663 0.0000
vt 0.9695 0.4638 0.0000
vt 0.9704 0.4950 0.0000
vt 0.9092 0.4960 0.0000
vt 0.8310 0.3293 0.0000
vt 0.8477 0.3893 0.0000
vt 0.8319 0.3893 0.0000
vt 0.8180 0.3369 0.0000
vt 0.9372 0.3544 0.0000
vt 0.9510 0.3021 0.0000
vt 0.9668 0.3021 0.0000
vt 0.9502 0.3620 0.0000
vt 0.7878 0.4278 0.0000
vt 0.7289 0.4278 0.0000
vt 0.7292 0.4590 0.0000
vt 0.7883 0.4575 0.0000
vt 0.6116 0.4613 0.0000
vt 0.6703 0.4603 0.0000
vt 0.6701 0.4275 0.0000
vt 0.6116 0.4269 0.0000
vt 0.2802 0.2402 0.0000
vt 0.2802 0.3198 0.0000
vt 0.2238 0.3047 0.0000
vt 0.2238 0.2553 0.0000
vt 0.3346 0.2194 0.0000
vt 0.2806 0.2339 0.0000
vt 0.2806 0.1578 0.0000
vt 0.3346 0.1722 0.0000
vt 0.3648 0.1722 0.0000
vt 0.3648 0.2194 0.0000
vt 0.2824 0.0248 0.0000
vt 0.2824 0.0840 0.0000
vt 0.2261 0.0702 0.0000
vt 0.2261 0.0387 0.0000
vt 0.1967 0.2191 0.0000
vt 0.1967 0.1725 0.0000
vt 0.2266 0.1723 0.0000
vt 0.2266 0.2193 0.0000
vt 0.2810 0.0906 0.0000
vt 0.2810 0.1498 0.0000
vt 0.2246 0.1360 0.0000
vt 0.2246 0.1045 0.0000
vt 0.3366 0.2553 0.0000
vt 0.3366 0.3047 0.0000
vt 0.3388 0.0387 0.0000
vt 0.3388 0.0702 0.0000
vt 0.3374 0.1045 0.0000
vt 0.3374 0.1360 0.0000
vt 0.9369 0.1474 0.0000
vt 0.9644 0.1474 0.0000
vt 0.9644 0.1621 0.0000
vt 0.9369 0.1621 0.0000
vt 0.7873 0.2463 0.0000
vt 0.7868 0.2193 0.0000
vt 0.8475 0.2174 0.0000
vt 0.8482 0.2458 0.0000
vt 0.7266 0.0338 0.0000
vt 0.7264 0.0202 0.0000
vt 0.7865 0.0350 0.0000
vt 0.7794 0.0475 0.0000
vt 0.7878 0.1768 0.0000
vt 0.7883 0.2065 0.0000
vt 0.7292 0.2080 0.0000
vt 0.7289 0.1768 0.0000
vt 0.8457 0.1690 0.0000
vt 0.8460 0.1554 0.0000
vt 0.8987 0.1417 0.0000
vt 0.9057 0.1542 0.0000
vt 0.9084 0.2152 0.0000
vt 0.9695 0.2128 0.0000
vt 0.9704 0.2440 0.0000
vt 0.9092 0.2450 0.0000
vt 0.8310 0.0783 0.0000
vt 0.8477 0.1383 0.0000
vt 0.8319 0.1383 0.0000
vt 0.8180 0.0859 0.0000
vt 0.6116 0.2103 0.0000
vt 0.6116 0.1759 0.0000
vt 0.6701 0.1765 0.0000
vt 0.6703 0.2093 0.0000
vt 0.9372 0.1034 0.0000
vt 0.9510 0.0511 0.0000
vt 0.9668 0.0511 0.0000
vt 0.9502 0.1110 0.0000
vt 0.4705 0.2390 0.0000
vt 0.4705 0.3186 0.0000
vt 0.4141 0.3035 0.0000
vt 0.4141 0.2541 0.0000
vt 0.5249 0.2182 0.0000
vt 0.4709 0.2327 0.0000
vt 0.4709 0.1566 0.0000
vt 0.5249 0.1710 0.0000
vt 0.5551 0.1710 0.0000
vt 0.5551 0.2182 0.0000
vt 0.4728 0.0236 0.0000
vt 0.4728 0.0828 0.0000
vt 0.4164 0.0690 0.0000
vt 0.4164 0.0375 0.0000
vt 0.3871 0.2179 0.0000
vt 0.3871 0.1713 0.0000
vt 0.4169 0.1711 0.0000
vt 0.4169 0.2181 0.0000
vt 0.4713 0.0894 0.0000
vt 0.4713 0.1486 0.0000
vt 0.4149 0.1348 0.0000
vt 0.4149 0.1033 0.0000
vt 0.5269 0.2541 0.0000
vt 0.5269 0.3035 0.0000
vt 0.5292 0.0375 0.0000
vt 0.5292 0.0690 0.0000
vt 0.5277 0.1033 0.0000
vt 0.5277 0.1348 0.0000
vt 0.5371 0.8799 0.0000
vt 0.5645 0.8799 0.0000
vt 0.5645 0.8946 0.0000
vt 0.5371 0.8946 0.0000
vt 0.3874 0.9788 0.0000
vt 0.3870 0.9518 0.0000
vt 0.4477 0.9499 0.0000
vt 0.4483 0.9783 0.0000
vt 0.3267 0.7663 0.0000
vt 0.3265 0.7527 0.0000
vt 0.3866 0.7675 0.0000
vt 0.3796 0.7800 0.0000
vt 0.3880 0.9093 0.0000
vt 0.3884 0.9390 0.0000
vt 0.3293 0.9405 0.0000
vt 0.3290 0.9093 0.0000
vt 0.4459 0.9015 0.0000
vt 0.4461 0.8879 0.0000
vt 0.4988 0.8742 0.0000
vt 0.5059 0.8867 0.0000
vt 0.5085 0.9477 0.0000
vt 0.5696 0.9453 0.0000
vt 0.5706 0.9765 0.0000
vt 0.5093 0.9775 0.0000
vt 0.4311 0.8108 0.0000
vt 0.4478 0.8708 0.0000
vt 0.4320 0.8708 0.0000
vt 0.4181 0.8184 0.0000
vt 0.2118 0.9428 0.0000
vt 0.2117 0.9084 0.0000
vt 0.2703 0.9090 0.0000
vt 0.2705 0.9418 0.0000
vt 0.5373 0.8359 0.0000
vt 0.5511 0.7836 0.0000
vt 0.5669 0.7836 0.0000
vt 0.5503 0.8435 0.0000
# 320 texture coords

g Buffalo_Ribs_C
usemtl wire_108008136
s off
f 1/1/1 2/2/1 3/3/1 4/4/1 
f 5/5/2 6/6/2 7/7/2 8/8/2 
f 4/9/3 3/10/3 5/5/3 8/8/3 
f 2/11/4 6/12/4 5/13/4 3/14/4 
f 9/15/5 10/16/5 11/17/5 12/18/5 
f 1/19/6 7/20/6 11/21/6 10/22/6 
f 10/23/7 9/24/7 2/2/7 1/1/7 
f 12/18/8 11/17/8 7/7/8 6/6/8 
f 9/25/9 12/26/9 6/12/9 2/11/9 
f 4/27/10 8/28/10 7/20/10 1/19/10 
f 13/29/11 14/30/11 15/31/11 16/32/11 
f 14/33/12 13/34/12 17/35/12 18/36/12 
f 15/37/13 14/38/13 18/39/13 19/40/13 
f 16/41/14 15/42/14 19/43/14 20/44/14 
f 13/45/15 16/46/15 20/47/15 17/48/15 
f 21/49/16 22/50/16 23/51/16 24/52/16 
f 21/49/17 24/52/17 18/36/17 17/35/17 
f 24/53/18 23/54/18 25/55/18 26/56/18 
f 24/53/19 26/56/19 19/40/19 18/39/19 
f 25/57/20 27/58/20 28/59/20 26/60/20 
f 26/60/21 28/59/21 20/44/21 19/43/21 
f 28/61/22 27/62/22 22/63/22 21/64/22 
f 28/61/23 21/64/23 17/48/23 20/47/23 
f 29/29/24 30/32/24 31/31/24 32/30/24 
f 32/33/25 33/36/25 34/35/25 29/34/25 
f 31/37/26 35/40/26 33/39/26 32/38/26 
f 30/41/27 36/44/27 35/43/27 31/42/27 
f 29/45/28 34/48/28 36/47/28 30/46/28 
f 37/49/29 38/52/29 39/51/29 40/50/29 
f 37/49/30 34/35/30 33/36/30 38/52/30 
f 38/53/31 41/56/31 42/55/31 39/54/31 
f 38/53/32 33/39/32 35/40/32 41/56/32 
f 42/57/33 41/60/33 43/59/33 44/58/33 
f 41/60/34 35/43/34 36/44/34 43/59/34 
f 43/61/35 37/64/35 40/63/35 44/62/35 
f 43/61/36 36/47/36 34/48/36 37/64/36 
f 45/65/1 46/66/1 47/67/1 48/68/1 
f 49/69/2 50/70/2 51/71/2 52/72/2 
f 48/73/3 47/74/3 49/69/3 52/72/3 
f 46/75/4 50/76/4 49/77/4 47/78/4 
f 53/79/5 54/80/5 55/81/5 56/82/5 
f 45/83/6 51/84/6 55/85/6 54/86/6 
f 54/87/7 53/88/7 46/66/7 45/65/7 
f 56/82/8 55/81/8 51/71/8 50/70/8 
f 53/89/9 56/90/9 50/76/9 46/75/9 
f 48/91/10 52/92/10 51/84/10 45/83/10 
f 57/93/11 58/94/11 59/95/11 60/96/11 
f 58/97/12 57/98/12 61/99/12 62/100/12 
f 59/101/13 58/102/13 62/103/13 63/104/13 
f 60/105/14 59/106/14 63/107/14 64/108/14 
f 57/109/15 60/110/15 64/111/15 61/112/15 
f 65/113/16 66/114/16 67/115/16 68/116/16 
f 65/113/17 68/116/17 62/100/17 61/99/17 
f 68/117/18 67/118/18 69/119/18 70/120/18 
f 68/117/19 70/120/19 63/104/19 62/103/19 
f 69/121/20 71/122/20 72/123/20 70/124/20 
f 70/124/21 72/123/21 64/108/21 63/107/21 
f 72/125/22 71/126/22 66/127/22 65/128/22 
f 72/125/23 65/128/23 61/112/23 64/111/23 
f 73/93/24 74/96/24 75/95/24 76/94/24 
f 76/97/25 77/100/25 78/99/25 73/98/25 
f 75/101/26 79/104/26 77/103/26 76/102/26 
f 74/105/27 80/108/27 79/107/27 75/106/27 
f 73/109/28 78/112/28 80/111/28 74/110/28 
f 81/113/29 82/116/29 83/115/29 84/114/29 
f 81/113/30 78/99/30 77/100/30 82/116/30 
f 82/117/31 85/120/31 86/119/31 83/118/31 
f 82/117/32 77/103/32 79/104/32 85/120/32 
f 86/121/33 85/124/33 87/123/33 88/122/33 
f 85/124/34 79/107/34 80/108/34 87/123/34 
f 87/125/35 81/128/35 84/127/35 88/126/35 
f 87/125/36 80/111/36 78/112/36 81/128/36 
f 89/129/1 90/130/1 91/131/1 92/132/1 
f 93/133/2 94/134/2 95/135/2 96/136/2 
f 92/137/3 91/138/3 93/133/3 96/136/3 
f 90/139/4 94/140/4 93/141/4 91/142/4 
f 97/143/5 98/144/5 99/145/5 100/146/5 
f 89/147/6 95/148/6 99/149/6 98/150/6 
f 98/151/7 97/152/7 90/130/7 89/129/7 
f 100/146/8 99/145/8 95/135/8 94/134/8 
f 97/153/9 100/154/9 94/140/9 90/139/9 
f 92/155/10 96/156/10 95/148/10 89/147/10 
f 101/157/11 102/158/11 103/159/11 104/160/11 
f 102/161/12 101/162/12 105/163/12 106/164/12 
f 103/165/13 102/166/13 106/167/13 107/168/13 
f 104/41/14 103/42/14 107/43/14 108/44/14 
f 101/169/15 104/170/15 108/171/15 105/172/15 
f 109/173/16 110/174/16 111/175/16 112/176/16 
f 109/173/17 112/176/17 106/164/17 105/163/17 
f 112/177/18 111/178/18 113/179/18 114/180/18 
f 112/177/19 114/180/19 107/168/19 106/167/19 
f 113/57/20 115/58/20 116/59/20 114/60/20 
f 114/60/21 116/59/21 108/44/21 107/43/21 
f 116/181/22 115/182/22 110/183/22 109/184/22 
f 116/181/23 109/184/23 105/172/23 108/171/23 
f 117/157/24 118/160/24 119/159/24 120/158/24 
f 120/161/25 121/164/25 122/163/25 117/162/25 
f 119/165/26 123/168/26 121/167/26 120/166/26 
f 118/185/27 124/186/27 123/187/27 119/188/27 
f 117/169/28 122/172/28 124/171/28 118/170/28 
f 125/173/29 126/176/29 127/175/29 128/174/29 
f 125/173/30 122/163/30 121/164/30 126/176/30 
f 126/177/31 129/180/31 130/179/31 127/178/31 
f 126/177/32 121/167/32 123/168/32 129/180/32 
f 130/189/33 129/190/33 131/191/33 132/192/33 
f 129/190/34 123/187/34 124/186/34 131/191/34 
f 131/181/35 125/184/35 128/183/35 132/182/35 
f 131/181/36 124/171/36 122/172/36 125/184/36 
f 133/193/1 134/194/1 135/195/1 136/196/1 
f 137/197/2 138/198/2 139/199/2 140/200/2 
f 136/201/3 135/202/3 137/197/3 140/200/3 
f 134/203/4 138/204/4 137/205/4 135/206/4 
f 141/207/5 142/208/5 143/209/5 144/210/5 
f 133/211/6 139/212/6 143/213/6 142/214/6 
f 142/215/7 141/216/7 134/194/7 133/193/7 
f 144/210/8 143/209/8 139/199/8 138/198/8 
f 141/217/9 144/218/9 138/204/9 134/203/9 
f 136/219/10 140/220/10 139/212/10 133/211/10 
f 145/221/11 146/222/11 147/223/11 148/224/11 
f 146/225/12 145/226/12 149/227/12 150/228/12 
f 147/229/13 146/230/13 150/231/13 151/232/13 
f 148/233/14 147/234/14 151/235/14 152/236/14 
f 145/237/37 148/238/37 152/239/37 149/240/37 
f 153/241/16 154/242/16 155/243/16 156/244/16 
f 153/241/17 156/244/17 150/228/17 149/227/17 
f 156/245/18 155/246/18 157/247/18 158/248/18 
f 156/245/19 158/248/19 151/232/19 150/231/19 
f 157/249/20 159/250/20 160/251/20 158/252/20 
f 158/252/21 160/251/21 152/236/21 151/235/21 
f 160/253/22 159/254/22 154/255/22 153/256/22 
f 160/253/23 153/256/23 149/240/23 152/239/23 
f 161/221/24 162/224/24 163/223/24 164/222/24 
f 164/225/25 165/228/25 166/227/25 161/226/25 
f 163/229/26 167/232/26 165/231/26 164/230/26 
f 162/233/27 168/236/27 167/235/27 163/234/27 
f 161/237/38 166/240/38 168/239/38 162/238/38 
f 169/241/29 170/244/29 171/243/29 172/242/29 
f 169/241/30 166/227/30 165/228/30 170/244/30 
f 170/245/31 173/248/31 174/247/31 171/246/31 
f 170/245/32 165/231/32 167/232/32 173/248/32 
f 174/249/33 173/252/33 175/251/33 176/250/33 
f 173/252/34 167/235/34 168/236/34 175/251/34 
f 175/253/35 169/256/35 172/255/35 176/254/35 
f 175/253/36 168/239/36 166/240/36 169/256/36 
f 177/257/1 178/258/1 179/259/1 180/260/1 
f 181/261/2 182/262/2 183/263/2 184/264/2 
f 180/265/3 179/266/3 181/261/3 184/264/3 
f 178/267/4 182/268/4 181/269/4 179/270/4 
f 185/271/5 186/272/5 187/273/5 188/274/5 
f 177/275/39 183/276/39 187/277/39 186/278/39 
f 186/279/7 185/280/7 178/258/7 177/257/7 
f 188/274/8 187/273/8 183/263/8 182/262/8 
f 185/281/9 188/282/9 182/268/9 178/267/9 
f 180/283/10 184/284/10 183/276/10 177/275/10 
f 189/285/11 190/286/11 191/287/11 192/288/11 
f 190/289/12 189/290/12 193/291/12 194/292/12 
f 191/293/13 190/294/13 194/295/13 195/296/13 
f 192/297/14 191/298/14 195/299/14 196/300/14 
f 189/301/15 192/302/15 196/303/15 193/304/15 
f 197/305/16 198/306/16 199/307/16 200/308/16 
f 197/305/17 200/308/17 194/292/17 193/291/17 
f 200/309/18 199/310/18 201/311/18 202/312/18 
f 200/309/19 202/312/19 195/296/19 194/295/19 
f 201/313/20 203/314/20 204/315/20 202/316/20 
f 202/316/21 204/315/21 196/300/21 195/299/21 
f 204/317/22 203/318/22 198/319/22 197/320/22 
f 204/317/23 197/320/23 193/304/23 196/303/23 
f 205/285/24 206/288/24 207/287/24 208/286/24 
f 208/289/25 209/292/25 210/291/25 205/290/25 
f 207/293/26 211/296/26 209/295/26 208/294/26 
f 206/297/27 212/300/27 211/299/27 207/298/27 
f 205/301/28 210/304/28 212/303/28 206/302/28 
f 213/305/29 214/308/29 215/307/29 216/306/29 
f 213/305/30 210/291/30 209/292/30 214/308/30 
f 214/309/31 217/312/31 218/311/31 215/310/31 
f 214/309/32 209/295/32 211/296/32 217/312/32 
f 218/313/33 217/316/33 219/315/33 220/314/33 
f 217/316/34 211/299/34 212/300/34 219/315/34 
f 219/317/35 213/320/35 216/319/35 220/318/35 
f 219/317/36 212/303/36 210/304/36 213/320/36 
# 180 polygons

