# 3ds Max Wavefront OBJ Exporter v0.97b - (c)2007 guruware
# File Created: 27.07.2015 20:16:30

mtllib Cactus.mtl

#
# object Cactus
#

v  198.9477 0.6809 -136.6515
v  43.8333 0.6809 -226.2068
v  43.8333 2574.0442 -226.2068
v  198.9478 2574.0442 -136.6515
v  -129.1744 0.6809 -179.8495
v  -129.1744 2574.0442 -179.8496
v  -218.7297 0.6809 -24.7351
v  -218.7297 2574.0442 -24.7351
v  -172.3725 0.6809 148.2725
v  -172.3725 2574.0442 148.2725
v  -17.2580 0.6809 237.8279
v  -17.2580 2574.0442 237.8279
v  155.7496 0.6809 191.4706
v  155.7496 2574.0442 191.4707
v  245.3050 0.6809 36.3562
v  245.3050 2574.0442 36.3562
v  34.2662 2702.8923 -153.5378
v  140.7981 2702.8923 -92.0316
v  -84.5546 2702.8923 -121.6999
v  -146.0607 2702.8923 -15.1681
v  -114.2228 2702.8923 103.6527
v  -7.6909 2702.8923 165.1589
v  111.1298 2702.8923 133.3210
v  172.6360 2702.8923 26.7892
v  13.2876 2760.7271 5.8105
v  631.9380 2036.1321 -67.2417
v  787.0524 2036.1321 22.3138
v  796.6194 2164.9802 -50.3553
v  690.0876 2164.9802 -111.8614
v  960.0599 2036.1321 -24.0435
v  915.4403 2164.9802 -82.1932
v  1049.6154 2036.1321 -179.1579
v  976.9465 2164.9802 -188.7250
v  1003.2581 2036.1321 -352.1656
v  945.1085 2164.9802 -307.5457
v  848.1436 2036.1321 -441.7209
v  838.5765 2164.9802 -369.0519
v  675.1359 2036.1321 -395.3636
v  719.7557 2164.9802 -337.2140
v  585.5807 2036.1321 -240.2494
v  658.2496 2164.9802 -230.6823
v  817.5979 2222.8147 -209.7036
v  761.8369 1110.5532 29.0701
v  622.9825 1173.6453 -64.8421
v  596.9387 1147.2217 -57.8637
v  688.5061 1036.1536 48.7191
v  911.8493 1021.3279 -11.1255
v  771.6450 879.0792 26.4420
v  985.1448 958.2361 -161.8831
v  797.6536 768.0111 -111.6450
v  938.7875 958.2361 -334.8907
v  751.2963 768.0111 -284.6526
v  799.9330 1021.3281 -428.8030
v  659.7288 879.0795 -391.2354
v  649.9205 1110.5532 -388.6073
v  576.5898 1036.1536 -368.9584
v  576.6251 1173.6453 -237.8498
v  550.5813 1147.2217 -230.8714
v  631.9378 1215.9915 -67.2416
v  787.0522 1215.9912 22.3138
v  960.0599 1215.9912 -24.0435
v  1049.6154 1215.9912 -179.1579
v  1003.2581 1215.9912 -352.1656
v  848.1436 1215.9912 -441.7210
v  675.1360 1215.9915 -395.3637
v  585.5806 1215.9915 -240.2494
v  551.6447 1138.6396 -45.7272
v  584.4241 1011.9893 76.6078
v  584.4242 832.8787 76.6077
v  551.6447 706.2283 -45.7272
v  505.2873 706.2281 -218.7348
v  472.5080 832.8787 -341.0698
v  472.5079 1011.9893 -341.0697
v  505.2874 1138.6396 -218.7349
v  122.9701 1138.6396 69.1358
v  155.7496 1011.9893 191.4707
v  155.7496 832.8787 191.4707
v  122.9701 706.2283 69.1358
v  76.6129 706.2283 -103.8719
v  43.8334 832.8787 -226.2068
v  43.8334 1011.9893 -226.2068
v  76.6129 1138.6396 -103.8719
v  -605.3626 2215.2427 78.8626
v  -760.4769 2215.2427 -10.6928
v  -770.0441 2344.0908 61.9761
v  -663.5121 2344.0911 123.4823
v  -933.4847 2215.2427 35.6644
v  -888.8649 2344.0908 93.8142
v  -1023.0400 2215.2427 190.7787
v  -950.3711 2344.0911 200.3458
v  -976.6827 2215.2427 363.7864
v  -918.5332 2344.0908 319.1666
v  -821.5682 2215.2427 453.3418
v  -812.0013 2344.0908 380.6728
v  -648.5608 2215.2427 406.9846
v  -693.1806 2344.0908 348.8349
v  -559.0052 2215.2427 251.8702
v  -631.6742 2344.0908 242.3032
v  -791.0226 2401.9255 221.3245
v  -735.2616 1289.6641 -17.4493
v  -596.4072 1352.7559 76.4630
v  -570.3633 1326.3325 69.4846
v  -661.9308 1215.2642 -37.0981
v  -885.2740 1200.4385 22.7465
v  -745.0697 1058.1899 -14.8212
v  -958.5695 1137.3467 173.5040
v  -771.0782 947.1218 123.2659
v  -912.2122 1137.3467 346.5116
v  -724.7209 947.1218 296.2735
v  -773.3578 1200.4387 440.4240
v  -633.1535 1058.1899 402.8563
v  -623.3453 1289.6641 400.2282
v  -550.0146 1215.2642 380.5793
v  -550.0498 1352.7559 249.4707
v  -524.0059 1326.3325 242.4922
v  -605.3624 1395.1021 78.8626
v  -760.4768 1395.1018 -10.6928
v  -933.4845 1395.1018 35.6643
v  -1023.0400 1395.1018 190.7788
v  -976.6829 1395.1018 363.7865
v  -821.5683 1395.1018 453.3418
v  -648.5609 1395.1021 406.9847
v  -559.0051 1395.1021 251.8703
v  -525.0693 1317.7502 57.3481
v  -557.8488 1191.0999 -64.9867
v  -557.8489 1011.9893 -64.9867
v  -525.0693 885.3390 57.3481
v  -478.7121 885.3390 230.3557
v  -445.9326 1011.9893 352.6906
v  -445.9326 1191.0999 352.6906
v  -478.7122 1317.7502 230.3558
v  -96.3948 1317.7505 -57.5148
v  -129.1743 1191.0999 -179.8497
v  -129.1743 1011.9893 -179.8497
v  -96.3948 885.3390 -57.5148
v  -50.0376 885.3390 115.4929
v  -17.2581 1011.9893 237.8278
v  -17.2581 1191.0999 237.8278
v  -50.0376 1317.7505 115.4929
v  1048.1051 1305.9031 -179.0989
v  1225.3398 1305.9031 -155.7654
v  1225.3398 1335.9055 -155.7654
v  1048.1051 1335.9055 -179.0989
v  1000.9437 1858.2104 -351.2223
v  1142.7666 1858.2104 -460.0469
v  1142.7666 1888.2129 -460.0469
v  1000.9437 1888.2129 -351.2223
v  637.4984 1404.9517 -69.7725
v  500.5571 1404.9517 45.1348
v  500.5571 1374.9492 45.1348
v  637.4984 1374.9492 -69.7725
v  241.8453 1717.6768 36.3214
v  419.0801 1717.6768 59.6549
v  419.0801 1747.6787 59.6549
v  241.8453 1747.6787 36.3214
v  196.2254 2315.1096 -135.7524
v  338.0486 2315.1096 -244.5772
v  338.0485 2345.1123 -244.5771
v  196.2253 2345.1123 -135.7524
v  -168.4720 2112.3743 146.1866
v  -305.4133 2112.3745 261.0940
v  -305.4133 2082.3723 261.0940
v  -168.4720 2082.3723 146.1866
v  -564.2467 1850.4846 252.3132
v  -387.0119 1850.4846 275.6465
v  -387.0119 1880.4873 275.6465
v  -564.2467 1880.4873 252.3132
v  -973.9907 1626.8599 362.0247
v  -1110.9321 1626.8601 476.9322
v  -1110.9321 1596.8574 476.9322
v  -973.9907 1596.8574 362.0247
v  -168.4720 304.9370 146.1866
v  -305.4133 304.9370 261.0940
v  -305.4133 274.9346 261.0940
v  -168.4720 274.9346 146.1866
v  242.9451 454.0828 36.3525
v  420.1799 454.0828 59.6859
v  420.1799 484.0852 59.6859
v  242.9451 484.0852 36.3525
v  -17.4418 1486.3015 236.2298
v  -48.4839 1486.3015 412.2782
v  -48.4839 1456.2988 412.2783
v  -17.4418 1456.2988 236.2298
# 183 vertices

vn 0.5000 -0.0000 -0.8660
vn -0.2588 -0.0000 -0.9659
vn -0.8660 -0.0000 -0.5000
vn -0.9659 -0.0000 0.2588
vn -0.5000 -0.0000 0.8660
vn 0.2588 -0.0000 0.9659
vn 0.8660 -0.0000 0.5000
vn 0.9659 -0.0000 -0.2588
vn 0.4426 0.4652 -0.7666
vn -0.2291 0.4652 -0.8550
vn -0.7666 0.4652 -0.4426
vn -0.8550 0.4652 0.2291
vn -0.4426 0.4652 0.7666
vn 0.2291 0.4652 0.8550
vn 0.7666 0.4652 0.4426
vn 0.8550 0.4652 -0.2291
vn 0.0442 0.9409 -0.3357
vn -0.3357 0.9409 -0.0442
vn -0.0442 0.9409 0.3357
vn 0.3357 0.9409 0.0442
vn -0.3076 0.5145 0.8004
vn 0.2588 0.0000 0.9659
vn 0.6666 -0.5145 0.5394
vn 0.6761 -0.7142 -0.1812
vn 0.3076 -0.5145 -0.8004
vn -0.6666 0.5145 -0.5394
vn -0.6761 0.7142 0.1812
vn -0.5000 0.0000 0.8660
vn 0.8660 0.0000 0.5000
vn 0.9659 0.0000 -0.2588
vn 0.5000 0.0000 -0.8660
vn -0.2588 0.0000 -0.9659
vn -0.9659 0.0000 0.2588
vn -0.4959 0.1674 0.8521
vn 0.0362 0.7030 0.7103
vn 0.8525 -0.1796 0.4909
vn 0.3425 -0.6983 0.6285
vn 0.9351 -0.2507 -0.2506
vn 0.2277 -0.9718 -0.0610
vn 0.4928 -0.1796 -0.8514
vn -0.0177 -0.6983 -0.7156
vn -0.8555 0.1674 -0.4900
vn -0.3238 0.7030 -0.6333
vn -0.9436 0.2139 0.2528
vn -0.1739 0.9837 0.0466
vn 0.1830 0.7071 0.6830
vn 0.1830 -0.7071 0.6830
vn -0.0000 -1.0000 0.0000
vn -0.1830 -0.7071 -0.6830
vn -0.1830 0.7071 -0.6830
vn 0.0000 1.0000 -0.0000
vn 0.3076 0.5145 -0.8004
vn -0.6666 -0.5145 -0.5394
vn -0.6761 -0.7142 0.1812
vn -0.3076 -0.5145 0.8004
vn 0.6666 0.5145 0.5394
vn 0.6761 0.7142 -0.1812
vn 0.4959 0.1674 -0.8521
vn -0.0362 0.7030 -0.7103
vn -0.8525 -0.1796 -0.4909
vn -0.3425 -0.6983 -0.6285
vn -0.9351 -0.2507 0.2506
vn -0.2277 -0.9718 0.0610
vn -0.4928 -0.1796 0.8514
vn 0.0177 -0.6983 0.7156
vn 0.8555 0.1674 0.4900
vn 0.3238 0.7030 0.6333
vn 0.9436 0.2139 -0.2528
vn 0.1739 0.9837 -0.0466
vn 0.0000 -1.0000 -0.0000
vn -0.0000 1.0000 0.0000
vn -0.1305 0.0000 0.9914
vn 0.6088 0.0000 0.7934
vn 0.6428 0.0000 0.7660
vn 0.6088 -0.0000 0.7934
vn 0.6428 -0.0000 0.7660
vn 0.9848 0.0000 0.1736
# 77 vertex normals

vt 0.8952 0.4705 1.0000
vt 0.9384 0.4705 1.0000
vt 0.9384 0.9815 1.0000
vt 0.8952 0.9815 1.0000
vt 0.9817 0.4705 1.0000
vt 0.9817 0.9815 1.0000
vt 0.6359 0.4705 1.0000
vt 0.6791 0.4705 1.0000
vt 0.6791 0.9815 1.0000
vt 0.6359 0.9815 1.0000
vt 0.7223 0.4705 1.0000
vt 0.7223 0.9815 1.0000
vt 0.7655 0.4705 1.0000
vt 0.7655 0.9815 1.0000
vt 0.8088 0.4705 1.0000
vt 0.8088 0.9815 1.0000
vt 0.8520 0.4705 1.0000
vt 0.8520 0.9815 1.0000
vt 0.5697 0.9792 0.0000
vt 0.5142 0.9786 0.0000
vt 0.5231 0.9577 0.0000
vt 0.5612 0.9581 0.0000
vt 0.4753 0.9389 0.0000
vt 0.4964 0.9305 0.0000
vt 0.4758 0.8834 0.0000
vt 0.4967 0.8923 0.0000
vt 0.5155 0.8445 0.0000
vt 0.5240 0.8656 0.0000
vt 0.5710 0.8450 0.0000
vt 0.5621 0.8660 0.0000
vt 0.6099 0.8847 0.0000
vt 0.5888 0.8932 0.0000
vt 0.6094 0.9403 0.0000
vt 0.5885 0.9314 0.0000
vt 0.5426 0.9118 0.0000
vt 0.4319 0.5611 0.0000
vt 0.4874 0.5617 0.0000
vt 0.4785 0.5826 0.0000
vt 0.4403 0.5822 0.0000
vt 0.5263 0.6013 0.0000
vt 0.5052 0.6098 0.0000
vt 0.5258 0.6569 0.0000
vt 0.5048 0.6480 0.0000
vt 0.4861 0.6958 0.0000
vt 0.4776 0.6747 0.0000
vt 0.4305 0.6952 0.0000
vt 0.4394 0.6743 0.0000
vt 0.3916 0.6556 0.0000
vt 0.4127 0.6471 0.0000
vt 0.3922 0.6000 0.0000
vt 0.4131 0.6089 0.0000
vt 0.4590 0.6284 0.0000
vt 0.0631 0.8185 1.0000
vt 0.1064 0.8185 1.0000
vt 0.1064 0.8496 1.0000
vt 0.0631 0.8496 1.0000
vt 0.0199 0.8185 1.0000
vt 0.0199 0.8496 1.0000
vt 0.3225 0.8185 1.0000
vt 0.3657 0.8185 1.0000
vt 0.3657 0.8496 1.0000
vt 0.3225 0.8496 1.0000
vt 0.2793 0.8185 1.0000
vt 0.2793 0.8496 1.0000
vt 0.2360 0.8185 1.0000
vt 0.2360 0.8496 1.0000
vt 0.1928 0.8185 1.0000
vt 0.1928 0.8496 1.0000
vt 0.1496 0.8185 1.0000
vt 0.1496 0.8496 1.0000
vt 0.0631 0.5588 1.0000
vt 0.1064 0.5588 1.0000
vt 0.1064 0.7874 1.0000
vt 0.0631 0.7874 1.0000
vt 0.0199 0.5588 1.0000
vt 0.0199 0.7874 1.0000
vt 0.3225 0.5588 1.0000
vt 0.3657 0.5588 1.0000
vt 0.3657 0.7874 1.0000
vt 0.3225 0.7874 1.0000
vt 0.2793 0.5588 1.0000
vt 0.2793 0.7874 1.0000
vt 0.2360 0.5588 1.0000
vt 0.2360 0.7874 1.0000
vt 0.1928 0.5588 1.0000
vt 0.1928 0.7874 1.0000
vt 0.1496 0.5588 1.0000
vt 0.1496 0.7874 1.0000
vt 0.1064 0.8807 1.0000
vt 0.0631 0.8807 1.0000
vt 0.0199 0.8807 1.0000
vt 0.3657 0.8807 1.0000
vt 0.3225 0.8807 1.0000
vt 0.2793 0.8807 1.0000
vt 0.2360 0.8807 1.0000
vt 0.1928 0.8807 1.0000
vt 0.1496 0.8807 1.0000
vt 0.1064 0.9838 1.0000
vt 0.0631 0.9838 1.0000
vt 0.0199 0.9838 1.0000
vt 0.3657 0.9838 1.0000
vt 0.3225 0.9838 1.0000
vt 0.2793 0.9838 1.0000
vt 0.2360 0.9838 1.0000
vt 0.1928 0.9838 1.0000
vt 0.1496 0.9838 1.0000
vt 0.4298 0.0199 0.0000
vt 0.4854 0.0204 0.0000
vt 0.4765 0.0413 0.0000
vt 0.4383 0.0409 0.0000
vt 0.5243 0.0601 0.0000
vt 0.5032 0.0686 0.0000
vt 0.5237 0.1156 0.0000
vt 0.5028 0.1067 0.0000
vt 0.4841 0.1545 0.0000
vt 0.4756 0.1334 0.0000
vt 0.4285 0.1540 0.0000
vt 0.4374 0.1331 0.0000
vt 0.3896 0.1143 0.0000
vt 0.4107 0.1058 0.0000
vt 0.3902 0.0588 0.0000
vt 0.4111 0.0677 0.0000
vt 0.4569 0.0872 0.0000
vt 0.0611 0.2772 1.0000
vt 0.1043 0.2772 1.0000
vt 0.1043 0.3083 1.0000
vt 0.0611 0.3083 1.0000
vt 0.0179 0.2772 1.0000
vt 0.0179 0.3083 1.0000
vt 0.3205 0.2772 1.0000
vt 0.3637 0.2772 1.0000
vt 0.3637 0.3083 1.0000
vt 0.3205 0.3083 1.0000
vt 0.2772 0.2772 1.0000
vt 0.2772 0.3083 1.0000
vt 0.2340 0.2772 1.0000
vt 0.2340 0.3083 1.0000
vt 0.1908 0.2772 1.0000
vt 0.1908 0.3083 1.0000
vt 0.1476 0.2772 1.0000
vt 0.1476 0.3083 1.0000
vt 0.0611 0.0176 1.0000
vt 0.1043 0.0176 1.0000
vt 0.1043 0.2461 1.0000
vt 0.0611 0.2461 1.0000
vt 0.0179 0.0176 1.0000
vt 0.0179 0.2461 1.0000
vt 0.3205 0.0176 1.0000
vt 0.3637 0.0176 1.0000
vt 0.3637 0.2461 1.0000
vt 0.3205 0.2461 1.0000
vt 0.2772 0.0176 1.0000
vt 0.2772 0.2461 1.0000
vt 0.2340 0.0176 1.0000
vt 0.2340 0.2461 1.0000
vt 0.1908 0.0176 1.0000
vt 0.1908 0.2461 1.0000
vt 0.1476 0.0176 1.0000
vt 0.1476 0.2461 1.0000
vt 0.1043 0.3395 1.0000
vt 0.0611 0.3395 1.0000
vt 0.0179 0.3395 1.0000
vt 0.3637 0.3395 1.0000
vt 0.3205 0.3395 1.0000
vt 0.2772 0.3395 1.0000
vt 0.2340 0.3395 1.0000
vt 0.1908 0.3395 1.0000
vt 0.1476 0.3395 1.0000
vt 0.1043 0.4425 1.0000
vt 0.0611 0.4425 1.0000
vt 0.0179 0.4425 1.0000
vt 0.3637 0.4425 1.0000
vt 0.3205 0.4425 1.0000
vt 0.2772 0.4425 1.0000
vt 0.2340 0.4425 1.0000
vt 0.1908 0.4425 1.0000
vt 0.1476 0.4425 1.0000
vt 0.8442 0.3727 0.0000
vt 0.9792 0.3727 0.0000
vt 0.9792 0.3916 0.0000
vt 0.8442 0.3916 0.0000
vt 0.8442 0.3343 0.0000
vt 0.9792 0.3343 0.0000
vt 0.9792 0.3533 0.0000
vt 0.8442 0.3533 0.0000
vt 0.8442 0.2917 0.0000
vt 0.9792 0.2917 0.0000
vt 0.9792 0.3107 0.0000
vt 0.8442 0.3107 0.0000
vt 0.8442 0.2483 0.0000
vt 0.9792 0.2483 0.0000
vt 0.9792 0.2672 0.0000
vt 0.8442 0.2672 0.0000
vt 0.8442 0.2065 0.0000
vt 0.9792 0.2065 0.0000
vt 0.9792 0.2255 0.0000
vt 0.8442 0.2255 0.0000
vt 0.8442 0.1614 0.0000
vt 0.9792 0.1614 0.0000
vt 0.9792 0.1803 0.0000
vt 0.8442 0.1803 0.0000
vt 0.8442 0.1111 0.0000
vt 0.9792 0.1111 0.0000
vt 0.9792 0.1301 0.0000
vt 0.8442 0.1301 0.0000
vt 0.8442 0.0648 0.0000
vt 0.9792 0.0648 0.0000
vt 0.9792 0.0838 0.0000
vt 0.8442 0.0838 0.0000
vt 0.8442 0.0170 0.0000
vt 0.9792 0.0170 0.0000
vt 0.9792 0.0359 0.0000
vt 0.8442 0.0359 0.0000
vt 0.8442 0.4161 0.0000
vt 0.9792 0.4161 0.0000
vt 0.9792 0.4351 0.0000
vt 0.8442 0.4351 0.0000
vt 0.6784 0.4157 0.0000
vt 0.8148 0.4157 0.0000
vt 0.8148 0.4349 0.0000
vt 0.6784 0.4349 0.0000
# 221 texture coords

g Cactus
usemtl wire_087225087
s off
f 1/1/1 2/2/1 3/3/1 4/4/1 
f 2/2/2 5/5/2 6/6/2 3/3/2 
f 5/7/3 7/8/3 8/9/3 6/10/3 
f 7/8/4 9/11/4 10/12/4 8/9/4 
f 9/11/5 11/13/5 12/14/5 10/12/5 
f 11/13/6 13/15/6 14/16/6 12/14/6 
f 13/15/7 15/17/7 16/18/7 14/16/7 
f 15/17/8 1/1/8 4/4/8 16/18/8 
f 4/19/9 3/20/9 17/21/9 18/22/9 
f 3/20/10 6/23/10 19/24/10 17/21/10 
f 6/23/11 8/25/11 20/26/11 19/24/11 
f 8/25/12 10/27/12 21/28/12 20/26/12 
f 10/27/13 12/29/13 22/30/13 21/28/13 
f 12/29/14 14/31/14 23/32/14 22/30/14 
f 14/31/15 16/33/15 24/34/15 23/32/15 
f 16/33/16 4/19/16 18/22/16 24/34/16 
f 17/21/17 19/24/17 25/35/17 18/22/17 
f 20/26/18 21/28/18 25/35/18 19/24/18 
f 22/30/19 23/32/19 25/35/19 21/28/19 
f 24/34/20 18/22/20 25/35/20 23/32/20 
f 26/36/13 27/37/13 28/38/13 29/39/13 
f 27/37/14 30/40/14 31/41/14 28/38/14 
f 30/40/15 32/42/15 33/43/15 31/41/15 
f 32/42/16 34/44/16 35/45/16 33/43/16 
f 34/44/9 36/46/9 37/47/9 35/45/9 
f 36/46/10 38/48/10 39/49/10 37/47/10 
f 38/48/11 40/50/11 41/51/11 39/49/11 
f 40/50/12 26/36/12 29/39/12 41/51/12 
f 28/38/19 31/41/19 42/52/19 29/39/19 
f 33/43/20 35/45/20 42/52/20 31/41/20 
f 37/47/17 39/49/17 42/52/17 35/45/17 
f 41/51/18 29/39/18 42/52/18 39/49/18 
f 43/53/21 44/54/21 45/55/21 46/56/21 
f 47/57/22 43/53/22 46/56/22 48/58/22 
f 49/59/23 47/60/23 48/61/23 50/62/23 
f 51/63/24 49/59/24 50/62/24 52/64/24 
f 53/65/25 51/63/25 52/64/25 54/66/25 
f 55/67/2 53/65/2 54/66/2 56/68/2 
f 57/69/26 55/67/26 56/68/26 58/70/26 
f 44/54/27 57/69/27 58/70/27 45/55/27 
f 27/71/28 26/72/28 59/73/28 60/74/28 
f 30/75/6 27/71/6 60/74/6 61/76/6 
f 32/77/29 30/78/29 61/79/29 62/80/29 
f 34/81/30 32/77/30 62/80/30 63/82/30 
f 36/83/31 34/81/31 63/82/31 64/84/31 
f 38/85/32 36/83/32 64/84/32 65/86/32 
f 40/87/3 38/85/3 65/86/3 66/88/3 
f 26/72/33 40/87/33 66/88/33 59/73/33 
f 60/74/34 59/73/34 44/54/34 43/53/34 
f 67/89/35 68/90/35 46/56/35 45/55/35 
f 61/76/6 60/74/6 43/53/6 47/57/6 
f 68/90/6 69/91/6 48/58/6 46/56/6 
f 62/80/36 61/79/36 47/60/36 49/59/36 
f 69/92/37 70/93/37 50/62/37 48/61/37 
f 63/82/38 62/80/38 49/59/38 51/63/38 
f 70/93/39 71/94/39 52/64/39 50/62/39 
f 64/84/40 63/82/40 51/63/40 53/65/40 
f 71/94/41 72/95/41 54/66/41 52/64/41 
f 65/86/32 64/84/32 53/65/32 55/67/32 
f 72/95/32 73/96/32 56/68/32 54/66/32 
f 66/88/42 65/86/42 55/67/42 57/69/42 
f 73/96/43 74/97/43 58/70/43 56/68/43 
f 59/73/44 66/88/44 57/69/44 44/54/44 
f 74/97/45 67/89/45 45/55/45 58/70/45 
f 68/90/46 67/89/46 75/98/46 76/99/46 
f 69/91/22 68/90/22 76/99/22 77/100/22 
f 70/93/47 69/92/47 77/101/47 78/102/47 
f 71/94/48 70/93/48 78/102/48 79/103/48 
f 72/95/49 71/94/49 79/103/49 80/104/49 
f 73/96/32 72/95/32 80/104/32 81/105/32 
f 74/97/50 73/96/50 81/105/50 82/106/50 
f 67/89/51 74/97/51 82/106/51 75/98/51 
f 83/107/9 84/108/9 85/109/9 86/110/9 
f 84/108/10 87/111/10 88/112/10 85/109/10 
f 87/111/11 89/113/11 90/114/11 88/112/11 
f 89/113/12 91/115/12 92/116/12 90/114/12 
f 91/115/13 93/117/13 94/118/13 92/116/13 
f 93/117/14 95/119/14 96/120/14 94/118/14 
f 95/119/15 97/121/15 98/122/15 96/120/15 
f 97/121/16 83/107/16 86/110/16 98/122/16 
f 85/109/17 88/112/17 99/123/17 86/110/17 
f 90/114/18 92/116/18 99/123/18 88/112/18 
f 94/118/19 96/120/19 99/123/19 92/116/19 
f 98/122/20 86/110/20 99/123/20 96/120/20 
f 100/124/52 101/125/52 102/126/52 103/127/52 
f 104/128/2 100/124/2 103/127/2 105/129/2 
f 106/130/53 104/131/53 105/132/53 107/133/53 
f 108/134/54 106/130/54 107/133/54 109/135/54 
f 110/136/55 108/134/55 109/135/55 111/137/55 
f 112/138/22 110/136/22 111/137/22 113/139/22 
f 114/140/56 112/138/56 113/139/56 115/141/56 
f 101/125/57 114/140/57 115/141/57 102/126/57 
f 84/142/31 83/143/31 116/144/31 117/145/31 
f 87/146/32 84/142/32 117/145/32 118/147/32 
f 89/148/3 87/149/3 118/150/3 119/151/3 
f 91/152/33 89/148/33 119/151/33 120/153/33 
f 93/154/28 91/152/28 120/153/28 121/155/28 
f 95/156/22 93/154/22 121/155/22 122/157/22 
f 97/158/29 95/156/29 122/157/29 123/159/29 
f 83/143/30 97/158/30 123/159/30 116/144/30 
f 117/145/58 116/144/58 101/125/58 100/124/58 
f 124/160/59 125/161/59 103/127/59 102/126/59 
f 118/147/2 117/145/2 100/124/2 104/128/2 
f 125/161/32 126/162/32 105/129/32 103/127/32 
f 119/151/60 118/150/60 104/131/60 106/130/60 
f 126/163/61 127/164/61 107/133/61 105/132/61 
f 120/153/62 119/151/62 106/130/62 108/134/62 
f 127/164/63 128/165/63 109/135/63 107/133/63 
f 121/155/64 120/153/64 108/134/64 110/136/64 
f 128/165/65 129/166/65 111/137/65 109/135/65 
f 122/157/22 121/155/22 110/136/22 112/138/22 
f 129/166/22 130/167/22 113/139/22 111/137/22 
f 123/159/66 122/157/66 112/138/66 114/140/66 
f 130/167/67 131/168/67 115/141/67 113/139/67 
f 116/144/68 123/159/68 114/140/68 101/125/68 
f 131/168/69 124/160/69 102/126/69 115/141/69 
f 125/161/50 124/160/50 132/169/50 133/170/50 
f 126/162/32 125/161/32 133/170/32 134/171/32 
f 127/164/49 126/163/49 134/172/49 135/173/49 
f 128/165/70 127/164/70 135/173/70 136/174/70 
f 129/166/47 128/165/47 136/174/47 137/175/47 
f 130/167/22 129/166/22 137/175/22 138/176/22 
f 131/168/46 130/167/46 138/176/46 139/177/46 
f 124/160/71 131/168/71 139/177/71 132/169/71 
f 140/178/72 141/179/72 142/180/72 143/181/72 
f 144/182/73 145/183/73 146/184/73 147/185/73 
f 148/186/74 149/187/74 150/188/74 151/189/74 
f 152/190/72 153/191/72 154/192/72 155/193/72 
f 156/194/75 157/195/75 158/196/75 159/197/75 
f 160/198/76 161/199/76 162/200/76 163/201/76 
f 164/202/72 165/203/72 166/204/72 167/205/72 
f 168/206/74 169/207/74 170/208/74 171/209/74 
f 172/210/76 173/211/76 174/212/76 175/213/76 
f 176/214/72 177/215/72 178/216/72 179/217/72 
f 180/218/77 181/219/77 182/220/77 183/221/77 
# 135 polygons

