# 3ds Max Wavefront OBJ Exporter v0.97b - (c)2007 guruware
# File Created: 28.07.2015 00:35:36

mtllib Desert Billboard.mtl

#
# object Desert_Billboard
#

v  -1125.2786 0.0000 -0.0000
v  -1170.2786 0.0000 -77.9423
v  -1170.2786 2304.8599 -77.9423
v  -1125.2786 2304.8599 -0.0000
v  -1260.2786 0.0000 -77.9423
v  -1260.2786 2304.8599 -77.9423
v  -1305.2786 0.0000 0.0000
v  -1305.2786 2304.8599 0.0000
v  -1260.2786 0.0000 77.9423
v  -1260.2786 2304.8599 77.9423
v  -1170.2786 0.0000 77.9423
v  -1170.2786 2304.8599 77.9423
v  1266.1292 0.0000 -0.0000
v  1221.1292 0.0000 -77.9423
v  1221.1292 2304.8599 -77.9423
v  1266.1292 2304.8599 -0.0000
v  1131.1292 0.0000 -77.9423
v  1131.1292 2304.8599 -77.9423
v  1086.1292 0.0000 0.0000
v  1086.1292 2304.8599 0.0000
v  1131.1292 0.0000 77.9423
v  1131.1292 2304.8599 77.9423
v  1221.1292 0.0000 77.9423
v  1221.1292 2304.8599 77.9423
v  -1919.3634 824.6040 85.9197
v  -1919.3634 2811.0964 85.9200
v  1857.1555 2811.0964 85.9200
v  1857.1555 824.6040 85.9197
v  -1919.3634 824.6040 165.9197
v  1857.1555 824.6040 165.9197
v  1857.1555 2811.0964 165.9200
v  -1919.3634 2811.0964 165.9200
v  1147.9282 2596.2778 62.5907
v  1147.9282 2926.3850 62.5908
v  1204.2197 2926.3850 62.5908
v  1204.2197 2596.2778 62.5907
v  1204.2197 2596.2778 83.6619
v  1204.2197 2904.9739 83.6620
v  1147.9282 2904.9739 83.6620
v  1147.9282 2596.2778 83.6619
v  1147.9280 2926.3850 830.4484
v  1204.2197 2926.3850 830.4484
v  1147.9280 2904.9739 818.0345
v  1204.2197 2904.9739 818.0345
v  1147.9280 2827.1655 929.6682
v  1204.2197 2827.1655 929.6682
v  1147.9280 2811.3657 913.0715
v  1204.2197 2811.3657 913.0715
v  1067.8479 2721.8953 995.6396
v  1067.8479 2803.4136 854.4459
v  1284.4597 2803.4136 854.4459
v  1284.4597 2721.8953 995.6396
v  1108.1045 2819.3940 978.6389
v  1244.2031 2819.3940 978.6389
v  1244.2031 2837.4397 947.3826
v  1108.1045 2837.4397 947.3826
v  -1243.5414 2596.2778 62.5907
v  -1243.5414 2926.3850 62.5908
v  -1187.2499 2926.3850 62.5908
v  -1187.2499 2596.2778 62.5907
v  -1187.2499 2596.2778 83.6619
v  -1187.2499 2904.9739 83.6620
v  -1243.5414 2904.9739 83.6620
v  -1243.5414 2596.2778 83.6619
v  -1243.5416 2926.3850 830.4484
v  -1187.2499 2926.3850 830.4484
v  -1243.5416 2904.9739 818.0345
v  -1187.2499 2904.9739 818.0345
v  -1243.5416 2827.1655 929.6682
v  -1187.2499 2827.1655 929.6682
v  -1243.5416 2811.3657 913.0715
v  -1187.2499 2811.3657 913.0715
v  -1323.6215 2721.8953 995.6395
v  -1323.6215 2803.4136 854.4459
v  -1107.0096 2803.4136 854.4459
v  -1107.0096 2721.8953 995.6395
v  -1283.3649 2819.3940 978.6390
v  -1147.2662 2819.3940 978.6390
v  -1147.2662 2837.4397 947.3824
v  -1283.3649 2837.4397 947.3824
# 80 vertices

vn 0.8660 0.0000 -0.5000
vn -0.0000 0.0000 -1.0000
vn -0.8660 0.0000 -0.5000
vn -0.8660 0.0000 0.5000
vn 0.0000 0.0000 1.0000
vn 0.8660 0.0000 0.5000
vn 0.0000 1.0000 -0.0000
vn 0.0000 0.0000 -1.0000
vn 0.0000 -0.0000 1.0000
vn 0.0000 -1.0000 -0.0000
vn 1.0000 0.0000 -0.0000
vn -1.0000 0.0000 -0.0000
vn -1.0000 -0.0000 -0.0000
vn 0.0000 0.7071 0.7071
vn 0.0000 -0.7124 -0.7017
vn 0.0000 -0.8660 -0.5000
vn 0.0000 0.8660 0.5000
vn 0.0000 0.1718 0.9851
vn 0.8835 0.4056 0.2342
vn 0.0000 0.9390 -0.3438
vn -0.8835 0.4056 0.2342
# 21 vertex normals

vt 0.9419 0.6027 1.0000
vt 0.9608 0.6027 1.0000
vt 0.9608 0.9874 1.0000
vt 0.9419 0.9874 1.0000
vt 0.9796 0.6027 1.0000
vt 0.9796 0.9874 1.0000
vt 0.8665 0.6027 1.0000
vt 0.8854 0.6027 1.0000
vt 0.8854 0.9874 1.0000
vt 0.8665 0.9874 1.0000
vt 0.9042 0.6027 1.0000
vt 0.9042 0.9874 1.0000
vt 0.9231 0.6027 1.0000
vt 0.9231 0.9874 1.0000
vt 0.8273 0.9774 0.2500
vt 0.8273 0.9637 0.2500
vt 0.8510 0.9774 0.2500
vt 0.8392 0.9843 0.2500
vt 0.1353 0.1882 1.0000
vt 0.1542 0.1882 1.0000
vt 0.1542 0.5789 1.0000
vt 0.1353 0.5789 1.0000
vt 0.1730 0.1882 1.0000
vt 0.1730 0.5789 1.0000
vt 0.0599 0.1882 1.0000
vt 0.0788 0.1882 1.0000
vt 0.0788 0.5789 1.0000
vt 0.0599 0.5789 1.0000
vt 0.0976 0.1882 1.0000
vt 0.0976 0.5789 1.0000
vt 0.1165 0.1882 1.0000
vt 0.1165 0.5789 1.0000
vt 0.0207 0.5689 0.2500
vt 0.0444 0.5552 0.2500
vt 0.0444 0.5689 0.2500
vt 0.0325 0.5758 0.2500
vt 0.9817 0.1923 0.0000
vt 0.9817 0.5814 0.0000
vt 0.2421 0.5814 0.0000
vt 0.2421 0.1923 0.0000
vt 0.0140 0.5989 0.0000
vt 0.7562 0.5989 0.0000
vt 0.7562 0.9893 0.0000
vt 0.0140 0.9893 0.0000
vt 0.2488 0.1518 0.0000
vt 0.9768 0.1518 0.0000
vt 0.9768 0.1672 0.0000
vt 0.2488 0.1672 0.0000
vt 0.6656 0.1336 0.0000
vt 0.2495 0.1336 0.0000
vt 0.2495 0.1168 0.0000
vt 0.6656 0.1168 0.0000
vt 0.9785 0.0984 0.0000
vt 0.2505 0.0984 0.0000
vt 0.2505 0.0829 0.0000
vt 0.9785 0.0829 0.0000
vt 0.2505 0.0481 0.0000
vt 0.6666 0.0481 0.0000
vt 0.6666 0.0649 0.0000
vt 0.2505 0.0649 0.0000
vt 0.0207 0.5552 0.2500
vt 0.0325 0.5484 0.2500
vt 0.8392 0.9569 0.2500
vt 0.8510 0.9637 0.2500
vt 0.6927 0.1056 0.0000
vt 0.7807 0.1056 0.0000
vt 0.7807 0.1206 0.0000
vt 0.6927 0.1206 0.0000
vt 0.9645 0.1435 0.0000
vt 0.8827 0.1436 0.0000
vt 0.8827 0.1286 0.0000
vt 0.9645 0.1286 0.0000
vt 0.2077 0.4950 0.0000
vt 0.2160 0.4947 0.0000
vt 0.2162 0.5818 0.0000
vt 0.2078 0.5819 0.0000
vt 0.9470 0.1056 0.0000
vt 0.9470 0.1206 0.0000
vt 0.2002 0.2873 0.0000
vt 0.2002 0.5210 0.0000
vt 0.1918 0.5211 0.0000
vt 0.1918 0.2870 0.0000
vt 0.7253 0.1436 0.0000
vt 0.7253 0.1286 0.0000
vt 0.9735 0.1056 0.0000
vt 0.9735 0.1206 0.0000
vt 0.2006 0.5688 0.0000
vt 0.1916 0.5694 0.0000
vt 0.7000 0.1436 0.0000
vt 0.7000 0.1286 0.0000
vt 0.2162 0.2530 0.0000
vt 0.2077 0.2528 0.0000
vt 0.2071 0.1900 0.0000
vt 0.2161 0.1907 0.0000
vt 0.1917 0.2003 0.0000
vt 0.2004 0.2005 0.0000
vt 0.1487 0.0877 0.0000
vt 0.1487 0.0335 0.0000
vt 0.2253 0.0335 0.0000
vt 0.2253 0.0877 0.0000
vt 0.1632 0.1101 0.0000
vt 0.2113 0.1101 0.0000
vt 0.2113 0.1221 0.0000
vt 0.1632 0.1221 0.0000
vt 0.1487 0.0895 0.0000
vt 0.2253 0.0895 0.0000
vt 0.2253 0.1436 0.0000
vt 0.1487 0.1436 0.0000
vt 0.6907 0.0225 0.0000
vt 0.7787 0.0225 0.0000
vt 0.7787 0.0375 0.0000
vt 0.6907 0.0375 0.0000
vt 0.9624 0.0604 0.0000
vt 0.8807 0.0604 0.0000
vt 0.8807 0.0455 0.0000
vt 0.9624 0.0455 0.0000
vt 0.0327 0.4477 0.0000
vt 0.0410 0.4474 0.0000
vt 0.0412 0.5345 0.0000
vt 0.0328 0.5346 0.0000
vt 0.9450 0.0225 0.0000
vt 0.9450 0.0375 0.0000
vt 0.0252 0.2399 0.0000
vt 0.0252 0.4736 0.0000
vt 0.0168 0.4737 0.0000
vt 0.0168 0.2396 0.0000
vt 0.7233 0.0605 0.0000
vt 0.7233 0.0455 0.0000
vt 0.9714 0.0225 0.0000
vt 0.9714 0.0375 0.0000
vt 0.0256 0.5215 0.0000
vt 0.0166 0.5220 0.0000
vt 0.6979 0.0605 0.0000
vt 0.6979 0.0455 0.0000
vt 0.0412 0.2056 0.0000
vt 0.0327 0.2055 0.0000
vt 0.0321 0.1427 0.0000
vt 0.0411 0.1434 0.0000
vt 0.0167 0.1530 0.0000
vt 0.0254 0.1532 0.0000
vt 0.0490 0.0705 0.0000
vt 0.0490 0.0163 0.0000
vt 0.1255 0.0163 0.0000
vt 0.1255 0.0705 0.0000
vt 0.0635 0.0929 0.0000
vt 0.1115 0.0929 0.0000
vt 0.1115 0.1049 0.0000
vt 0.0635 0.1049 0.0000
vt 0.0490 0.0723 0.0000
vt 0.1255 0.0723 0.0000
vt 0.1255 0.1264 0.0000
vt 0.0490 0.1264 0.0000
# 152 texture coords

g Desert_Billboard
usemtl wire_135006006
s off
f 1/1/1 2/2/1 3/3/1 4/4/1 
f 2/2/2 5/5/2 6/6/2 3/3/2 
f 5/7/3 7/8/3 8/9/3 6/10/3 
f 7/8/4 9/11/4 10/12/4 8/9/4 
f 9/11/5 11/13/5 12/14/5 10/12/5 
f 11/13/6 1/1/6 4/4/6 12/14/6 
f 3/15/7 6/16/7 12/17/7 4/18/7 
f 13/19/1 14/20/1 15/21/1 16/22/1 
f 14/20/2 17/23/2 18/24/2 15/21/2 
f 17/25/3 19/26/3 20/27/3 18/28/3 
f 19/26/4 21/29/4 22/30/4 20/27/4 
f 21/29/5 23/31/5 24/32/5 22/30/5 
f 23/31/6 13/19/6 16/22/6 24/32/6 
f 15/33/7 22/34/7 24/35/7 16/36/7 
f 25/37/8 26/38/8 27/39/8 28/40/8 
f 29/41/9 30/42/9 31/43/9 32/44/9 
f 25/45/10 28/46/10 30/47/10 29/48/10 
f 28/49/11 27/50/11 31/51/11 30/52/11 
f 27/53/7 26/54/7 32/55/7 31/56/7 
f 26/57/12 25/58/12 29/59/12 32/60/12 
f 18/61/7 20/62/7 22/34/7 15/33/7 
f 8/63/7 10/64/7 12/17/7 6/16/7 
f 33/65/8 34/66/8 35/67/8 36/68/8 
f 37/69/9 38/70/9 39/71/9 40/72/9 
f 35/73/11 38/74/11 37/75/11 36/76/11 
f 35/67/7 34/66/7 41/77/7 42/78/7 
f 39/79/13 43/80/13 41/81/13 34/82/13 
f 38/70/10 44/83/10 43/84/10 39/71/10 
f 42/78/14 41/77/14 45/85/14 46/86/14 
f 41/81/12 43/80/12 47/87/12 45/88/12 
f 43/84/15 44/83/15 48/89/15 47/90/15 
f 44/91/11 42/92/11 46/93/11 48/94/11 
f 33/95/12 40/96/12 39/79/12 34/82/12 
f 42/92/11 44/91/11 38/74/11 35/73/11 
f 49/97/16 50/98/16 51/99/16 52/100/16 
f 53/101/17 54/102/17 55/103/17 56/104/17 
f 49/105/18 52/106/18 54/102/18 53/101/18 
f 52/106/19 51/107/19 55/103/19 54/102/19 
f 51/107/20 50/108/20 56/104/20 55/103/20 
f 50/108/21 49/105/21 53/101/21 56/104/21 
f 57/109/8 58/110/8 59/111/8 60/112/8 
f 61/113/9 62/114/9 63/115/9 64/116/9 
f 59/117/11 62/118/11 61/119/11 60/120/11 
f 59/111/7 58/110/7 65/121/7 66/122/7 
f 63/123/13 67/124/13 65/125/13 58/126/13 
f 62/114/10 68/127/10 67/128/10 63/115/10 
f 66/122/14 65/121/14 69/129/14 70/130/14 
f 65/125/12 67/124/12 71/131/12 69/132/12 
f 67/128/15 68/127/15 72/133/15 71/134/15 
f 68/135/11 66/136/11 70/137/11 72/138/11 
f 57/139/12 64/140/12 63/123/12 58/126/12 
f 66/136/11 68/135/11 62/118/11 59/117/11 
f 73/141/16 74/142/16 75/143/16 76/144/16 
f 77/145/17 78/146/17 79/147/17 80/148/17 
f 73/149/18 76/150/18 78/146/18 77/145/18 
f 76/150/19 75/151/19 79/147/19 78/146/19 
f 75/151/20 74/152/20 80/148/20 79/147/20 
f 74/152/21 73/149/21 77/145/21 80/148/21 
# 58 polygons

