# 3ds Max Wavefront OBJ Exporter v0.97b - (c)2007 guruware
# File Created: 27.07.2015 20:23:08

mtllib Jerrycan.mtl

#
# object Jerrycan
#

v  -326.1941 -0.4694 -174.1955
v  176.4500 632.7634 -174.1954
v  293.6943 550.4897 -174.1953
v  293.6945 -0.4694 -174.1955
v  -326.1941 -0.4694 175.0989
v  -106.9321 632.7632 175.0991
v  -288.9197 769.5181 175.0990
v  -326.1941 769.5181 175.0990
v  293.6945 -0.4694 175.0989
v  293.6943 550.4896 175.0990
v  -106.9321 632.7632 -174.1954
v  176.4500 632.7632 175.0990
v  -326.1941 769.5181 -174.1954
v  -288.9197 769.5181 -174.1954
v  64.9565 763.8798 42.7719
v  -287.4993 763.8798 42.7719
v  -244.2446 730.4788 42.7719
v  42.6279 730.4788 42.7719
v  100.3508 627.9837 42.7719
v  145.7883 627.9366 42.7720
v  -244.2446 730.4788 -50.0958
v  -287.4990 763.8798 -50.0958
v  64.9565 763.8798 -50.0958
v  42.6282 730.4788 -50.0958
v  145.7883 627.9366 -50.0958
v  100.3508 627.9837 -50.0958
v  234.6467 592.4031 -70.0886
v  188.5303 624.6946 -37.5849
v  215.1636 662.7309 -37.5849
v  261.2803 630.4398 -70.0885
v  188.5303 624.6946 27.4226
v  215.1636 662.7309 27.4225
v  234.6469 592.4031 59.9261
v  261.2804 630.4398 59.9262
v  280.7637 560.1120 27.4225
v  307.3970 598.1484 27.4225
v  280.7635 560.1120 -37.5850
v  307.3970 598.1484 -37.5849
# 38 vertices

vn 0.0000 0.0000 -1.0000
vn -0.0000 -0.0000 1.0000
vn 0.0000 -1.0000 -0.0000
vn 1.0000 0.0000 0.0000
vn -0.0000 1.0000 0.0000
vn -1.0000 0.0000 -0.0000
vn 0.6007 0.7994 -0.0000
vn 0.5744 0.8186 0.0000
vn 0.0000 1.0000 -0.0000
vn 0.0000 -0.0000 1.0000
vn -0.8713 -0.4907 -0.0000
vn 0.8595 0.5111 -0.0000
vn -0.4096 0.2868 -0.8660
vn -0.8192 0.5736 -0.0000
vn -0.4096 0.2868 0.8660
vn 0.4096 -0.2868 0.8660
vn 0.8192 -0.5736 -0.0000
vn 0.4096 -0.2868 -0.8660
vn 0.5736 0.8192 -0.0000
vn 0.5736 0.8192 0.0000
# 20 vertex normals

vt 0.3272 0.6014 0.0000
vt 0.0821 0.9103 0.0000
vt 0.0249 0.8702 0.0000
vt 0.0249 0.6016 0.0000
vt 0.4978 0.6015 0.0000
vt 0.6051 0.9103 0.0000
vt 0.5164 0.9769 0.0000
vt 0.4979 0.9768 0.0000
vt 0.4976 0.4310 0.0000
vt 0.8003 0.4310 0.0000
vt 0.8004 0.6015 0.0000
vt 0.9707 0.6014 0.0000
vt 0.9707 0.8701 0.0000
vt 0.8004 0.8701 0.0000
vt 0.3479 0.3741 0.0000
vt 0.3479 0.5856 0.0000
vt 0.1763 0.5856 0.0000
vt 0.1763 0.3741 0.0000
vt 0.3272 0.9768 0.0000
vt 0.4581 0.3741 0.0000
vt 0.4581 0.5856 0.0000
vt 0.1053 0.5856 0.0000
vt 0.1053 0.3741 0.0000
vt 0.2202 0.9103 0.0000
vt 0.7433 0.9103 0.0000
vt 0.4806 0.3741 0.0000
vt 0.4806 0.5856 0.0000
vt 0.3089 0.9769 0.0000
vt 0.1074 0.0817 0.0000
vt 0.4432 0.0835 0.0000
vt 0.4018 0.1151 0.0000
vt 0.1285 0.1137 0.0000
vt 0.0730 0.2110 0.0000
vt 0.0297 0.2108 0.0000
vt 0.2040 0.0597 0.0000
vt 0.1640 0.0289 0.0000
vt 0.4896 0.0284 0.0000
vt 0.4690 0.0593 0.0000
vt 0.5645 0.1539 0.0000
vt 0.5225 0.1539 0.0000
vt 0.1371 0.1836 0.0000
vt 0.3575 0.1836 0.0000
vt 0.3575 0.2550 0.0000
vt 0.1371 0.2550 0.0000
vt 0.2655 0.2837 0.0000
vt 0.4898 0.2837 0.0000
vt 0.4898 0.3428 0.0000
vt 0.2655 0.3428 0.0000
vt 0.4956 0.1836 0.0000
vt 0.4956 0.2550 0.0000
vt 0.1310 0.2837 0.0000
vt 0.1310 0.3428 0.0000
vt 0.8144 0.3567 1.0000
vt 0.8872 0.3567 1.0000
vt 0.8872 0.4004 1.0000
vt 0.8144 0.4004 1.0000
vt 0.9600 0.3567 1.0000
vt 0.9600 0.4004 1.0000
vt 0.5234 0.3567 1.0000
vt 0.5962 0.3567 1.0000
vt 0.5962 0.4004 1.0000
vt 0.5234 0.4004 1.0000
vt 0.6689 0.3567 1.0000
vt 0.6689 0.4004 1.0000
vt 0.7417 0.3567 1.0000
vt 0.7417 0.4004 1.0000
vt 0.8537 0.5349 0.2500
vt 0.8537 0.4770 0.2500
vt 0.9038 0.4481 0.2500
vt 0.9539 0.5349 0.2500
vt 0.9539 0.4770 0.2500
vt 0.9038 0.5638 0.2500
# 72 texture coords

g Jerrycan
usemtl wire_085028177
s off
f 1/1/1 2/2/1 3/3/1 4/4/1 
f 5/5/2 6/6/2 7/7/2 8/8/2 
f 1/9/3 4/10/3 9/11/3 5/5/3 
f 4/12/4 3/13/4 10/14/4 9/11/4 
f 11/15/5 6/16/5 12/17/5 2/18/5 
f 13/19/6 1/1/6 5/5/6 8/8/6 
f 14/20/7 7/21/7 6/16/7 11/15/7 
f 10/22/8 3/23/8 2/18/8 12/17/8 
f 1/1/1 11/24/1 2/2/1 
f 5/5/2 9/11/2 10/14/2 12/25/2 
f 13/26/9 8/27/9 7/21/9 14/20/9 
f 5/5/10 12/25/10 6/6/10 
f 1/1/1 13/19/1 14/28/1 11/24/1 
f 15/29/2 16/30/2 17/31/2 18/32/2 
f 19/33/2 20/34/2 15/29/2 18/32/2 
f 21/35/1 22/36/1 23/37/1 24/38/1 
f 23/37/1 25/39/1 26/40/1 24/38/1 
f 21/41/3 24/42/3 18/43/3 17/44/3 
f 23/45/9 22/46/9 16/47/9 15/48/9 
f 24/42/11 26/49/11 19/50/11 18/43/11 
f 25/51/12 23/45/12 15/48/12 20/52/12 
f 27/53/13 28/54/13 29/55/13 30/56/13 
f 28/54/14 31/57/14 32/58/14 29/55/14 
f 31/59/15 33/60/15 34/61/15 32/62/15 
f 33/60/16 35/63/16 36/64/16 34/61/16 
f 35/63/17 37/65/17 38/66/17 36/64/17 
f 37/65/18 27/53/18 30/56/18 38/66/18 
f 29/67/19 32/68/19 34/69/19 38/70/19 
f 34/69/19 36/71/19 38/70/19 
f 30/72/20 29/67/20 38/70/20 
# 26 polygons - 4 triangles

