# 3ds Max Wavefront OBJ Exporter v0.97b - (c)2007 guruware
# File Created: 27.07.2015 20:24:15

mtllib Oil barrel.mtl

#
# object Oil_barrel
#

v  312.7956 847.3793 -187.4166
v  363.0155 847.3793 0.0067
v  363.0155 304.2138 0.0067
v  312.7956 304.2138 -187.4166
v  175.5922 847.3793 -324.6200
v  175.5922 304.2138 -324.6200
v  -11.8311 847.3793 -374.8399
v  -11.8311 304.2138 -374.8400
v  -199.2544 847.3793 -324.6201
v  -199.2544 304.2138 -324.6200
v  -336.4578 847.3793 -187.4167
v  -336.4578 304.2138 -187.4167
v  -386.6778 847.3793 0.0066
v  -386.6778 304.2137 0.0066
v  -336.4578 847.3793 187.4298
v  -336.4578 304.2138 187.4299
v  -199.2545 847.3793 324.6333
v  -199.2545 304.2138 324.6333
v  -11.8313 847.3793 374.8533
v  -11.8313 304.2137 374.8533
v  175.5920 847.3793 324.6335
v  175.5920 304.2138 324.6335
v  312.7955 847.3793 187.4302
v  312.7954 304.2138 187.4302
v  -199.2545 0.5684 324.6333
v  -336.4578 0.5684 187.4299
v  363.0156 0.5684 0.0067
v  312.7955 0.5684 187.4302
v  -336.4578 1151.0649 187.4299
v  -199.2545 1151.0651 324.6333
v  312.7955 1151.0651 187.4302
v  363.0156 1151.0649 0.0067
v  312.7956 1151.0651 -187.4166
v  363.0155 879.5024 0.0067
v  312.7956 879.5024 -187.4166
v  312.7956 0.5684 -187.4166
v  312.7956 272.1714 -187.4166
v  363.0155 272.1714 0.0067
v  175.5922 1151.0651 -324.6200
v  175.5922 879.5024 -324.6200
v  175.5922 0.5684 -324.6200
v  175.5922 272.1714 -324.6200
v  -11.8311 1151.0649 -374.8400
v  -11.8311 879.5024 -374.8400
v  -11.8311 0.5684 -374.8400
v  -11.8311 272.1714 -374.8400
v  -199.2544 1151.0652 -324.6201
v  -199.2544 879.5024 -324.6201
v  -199.2544 0.5684 -324.6201
v  -199.2544 272.1714 -324.6201
v  -336.4578 1151.0651 -187.4167
v  -336.4578 879.5024 -187.4167
v  -336.4578 0.5684 -187.4167
v  -336.4578 272.1714 -187.4167
v  -386.6777 1151.0651 0.0066
v  -386.6778 879.5024 0.0066
v  -386.6777 0.5684 0.0066
v  -386.6778 272.1714 0.0066
v  -336.4578 879.5024 187.4298
v  -336.4578 272.1714 187.4299
v  -199.2545 879.5024 324.6333
v  -199.2545 272.1714 324.6333
v  -11.8313 1151.0651 374.8533
v  -11.8313 879.5024 374.8533
v  -11.8313 0.5684 374.8533
v  -11.8313 272.1714 374.8533
v  175.5920 1151.0651 324.6335
v  175.5920 879.5024 324.6335
v  175.5920 0.5684 324.6335
v  175.5920 272.1714 324.6335
v  312.7955 879.5024 187.4302
v  312.7955 272.1714 187.4302
v  325.0274 847.3793 -194.4787
v  325.0274 879.5024 -194.4787
v  377.1396 879.5024 0.0071
v  377.1396 847.3793 0.0071
v  377.1396 304.2138 0.0071
v  377.1395 272.1714 0.0071
v  325.0274 272.1714 -194.4787
v  325.0274 304.2138 -194.4787
v  182.6539 847.3793 -336.8520
v  182.6539 879.5024 -336.8521
v  182.6539 272.1714 -336.8520
v  182.6539 304.2138 -336.8521
v  -11.8306 847.3793 -388.9640
v  -11.8306 879.5024 -388.9640
v  -11.8306 272.1714 -388.9640
v  -11.8306 304.2138 -388.9639
v  -206.3165 847.3793 -336.8518
v  -206.3165 879.5024 -336.8517
v  -206.3165 272.1714 -336.8518
v  -206.3165 304.2137 -336.8518
v  -348.6898 847.3793 -194.4783
v  -348.6898 879.5024 -194.4784
v  -348.6898 272.1714 -194.4784
v  -348.6898 304.2138 -194.4783
v  -400.8018 847.3793 0.0066
v  -400.8018 879.5024 0.0066
v  -400.8018 272.1714 0.0066
v  -400.8018 304.2138 0.0067
v  -348.6898 847.3793 194.4915
v  -348.6898 879.5024 194.4915
v  -348.6898 272.1714 194.4915
v  -348.6898 304.2138 194.4915
v  -206.3165 847.3793 336.8651
v  -206.3165 879.5024 336.8651
v  -206.3165 272.1714 336.8651
v  -206.3165 304.2138 336.8651
v  -11.8312 847.3793 388.9774
v  -11.8312 879.5024 388.9774
v  -11.8312 272.1714 388.9774
v  -11.8312 304.2138 388.9774
v  182.6544 847.3793 336.8651
v  182.6544 879.5024 336.8651
v  182.6544 272.1714 336.8651
v  182.6544 304.2138 336.8651
v  325.0273 847.3793 194.4922
v  325.0273 879.5024 194.4922
v  325.0273 272.1714 194.4922
v  325.0272 304.2138 194.4922
v  -196.9209 1150.2280 0.1430
v  -213.5092 1150.2280 -39.9047
v  -213.5092 1185.0228 -39.9047
v  -196.9209 1185.0228 0.1430
v  -253.5569 1150.2280 -56.4930
v  -253.5569 1185.0228 -56.4930
v  -293.6046 1150.2280 -39.9047
v  -293.6046 1185.0228 -39.9047
v  -310.1929 1150.2280 0.1430
v  -310.1929 1185.0228 0.1430
v  -293.6046 1150.2280 40.1907
v  -293.6046 1185.0228 40.1907
v  -253.5569 1150.2280 56.7790
v  -253.5569 1185.0228 56.7790
v  -213.5092 1150.2280 40.1907
v  -213.5092 1185.0228 40.1907
# 136 vertices

vn 0.9659 -0.0000 -0.2588
vn 0.7071 -0.0000 -0.7071
vn 0.2588 0.0000 -0.9659
vn -0.2588 0.0000 -0.9659
vn -0.7071 -0.0000 -0.7071
vn -0.9659 0.0000 -0.2588
vn -0.9659 0.0000 0.2588
vn -0.7071 0.0000 0.7071
vn -0.2588 0.0000 0.9659
vn 0.2588 0.0000 0.9659
vn 0.7071 -0.0000 0.7071
vn 0.9659 -0.0000 0.2588
vn 0.0000 -1.0000 -0.0000
vn -0.0000 1.0000 -0.0000
vn 0.9659 0.0000 -0.2588
vn 0.7071 0.0000 -0.7071
vn 0.2588 -0.0000 -0.9659
vn -0.7071 0.0000 -0.7071
vn -0.9659 -0.0000 -0.2588
vn -0.9659 -0.0000 0.2588
vn -0.7071 -0.0000 0.7071
vn -0.2588 -0.0000 0.9659
vn 0.7071 0.0000 0.7071
vn 0.9659 0.0000 0.2588
vn 0.0000 1.0000 -0.0000
vn 0.0000 1.0000 0.0000
vn 0.9239 0.0000 -0.3827
vn 0.3827 0.0000 -0.9239
vn -0.3827 0.0000 -0.9239
vn -0.9239 0.0000 -0.3827
vn -0.9239 0.0000 0.3827
vn -0.3827 0.0000 0.9239
vn 0.3827 0.0000 0.9239
vn 0.9239 0.0000 0.3827
# 34 vertex normals

vt 0.8134 0.4129 1.0000
vt 0.7343 0.4129 1.0000
vt 0.7343 0.1790 1.0000
vt 0.8134 0.1790 1.0000
vt 0.8925 0.4129 1.0000
vt 0.8925 0.1790 1.0000
vt 0.9716 0.4129 1.0000
vt 0.9716 0.1790 1.0000
vt 0.1013 0.4129 1.0000
vt 0.0222 0.4129 1.0000
vt 0.0222 0.1790 1.0000
vt 0.1013 0.1790 1.0000
vt 0.1804 0.4129 1.0000
vt 0.1804 0.1790 1.0000
vt 0.2596 0.4129 1.0000
vt 0.2596 0.1790 1.0000
vt 0.3387 0.4129 1.0000
vt 0.3387 0.1790 1.0000
vt 0.4178 0.4129 1.0000
vt 0.4178 0.1790 1.0000
vt 0.4969 0.4129 1.0000
vt 0.4969 0.1790 1.0000
vt 0.5760 0.4129 1.0000
vt 0.5760 0.1790 1.0000
vt 0.6551 0.4129 1.0000
vt 0.6551 0.1790 1.0000
vt 0.9447 0.7058 -0.2500
vt 0.8798 0.6408 -0.2500
vt 0.7910 0.9720 -0.2500
vt 0.8798 0.9482 -0.2500
vt 0.4831 0.6422 0.2500
vt 0.5480 0.7072 0.2500
vt 0.4831 0.9497 0.2500
vt 0.3943 0.9734 0.2500
vt 0.8134 0.5743 1.0000
vt 0.7343 0.5743 1.0000
vt 0.7343 0.4573 1.0000
vt 0.8134 0.4573 1.0000
vt 0.7343 0.0164 1.0000
vt 0.8134 0.0164 1.0000
vt 0.8134 0.1333 1.0000
vt 0.7343 0.1333 1.0000
vt 0.8925 0.5743 1.0000
vt 0.8925 0.4573 1.0000
vt 0.8925 0.0164 1.0000
vt 0.8925 0.1333 1.0000
vt 0.9716 0.5743 1.0000
vt 0.9716 0.4573 1.0000
vt 0.9716 0.0164 1.0000
vt 0.9716 0.1333 1.0000
vt 0.1013 0.5743 1.0000
vt 0.0222 0.5743 1.0000
vt 0.0222 0.4573 1.0000
vt 0.1013 0.4573 1.0000
vt 0.0222 0.0164 1.0000
vt 0.1013 0.0164 1.0000
vt 0.1013 0.1333 1.0000
vt 0.0222 0.1333 1.0000
vt 0.1804 0.5743 1.0000
vt 0.1804 0.4573 1.0000
vt 0.1804 0.0164 1.0000
vt 0.1804 0.1333 1.0000
vt 0.2596 0.5743 1.0000
vt 0.2596 0.4573 1.0000
vt 0.2596 0.0164 1.0000
vt 0.2596 0.1333 1.0000
vt 0.3387 0.5743 1.0000
vt 0.3387 0.4573 1.0000
vt 0.3387 0.0164 1.0000
vt 0.3387 0.1333 1.0000
vt 0.4178 0.5743 1.0000
vt 0.4178 0.4573 1.0000
vt 0.4178 0.0164 1.0000
vt 0.4178 0.1333 1.0000
vt 0.4969 0.5743 1.0000
vt 0.4969 0.4573 1.0000
vt 0.4969 0.0164 1.0000
vt 0.4969 0.1333 1.0000
vt 0.5760 0.5743 1.0000
vt 0.5760 0.4573 1.0000
vt 0.5760 0.0164 1.0000
vt 0.5760 0.1333 1.0000
vt 0.6551 0.5743 1.0000
vt 0.6551 0.4573 1.0000
vt 0.6551 0.0164 1.0000
vt 0.6551 0.1333 1.0000
vt 0.8134 0.4244 1.0000
vt 0.8134 0.4446 1.0000
vt 0.7343 0.4446 1.0000
vt 0.7343 0.4244 1.0000
vt 0.7343 0.1663 1.0000
vt 0.7343 0.1461 1.0000
vt 0.8134 0.1461 1.0000
vt 0.8134 0.1663 1.0000
vt 0.8925 0.4244 1.0000
vt 0.8925 0.4446 1.0000
vt 0.8925 0.1461 1.0000
vt 0.8925 0.1663 1.0000
vt 0.9716 0.4244 1.0000
vt 0.9716 0.4446 1.0000
vt 0.9716 0.1461 1.0000
vt 0.9716 0.1663 1.0000
vt 0.1013 0.4244 1.0000
vt 0.1013 0.4446 1.0000
vt 0.0222 0.4446 1.0000
vt 0.0222 0.4244 1.0000
vt 0.0222 0.1663 1.0000
vt 0.0222 0.1461 1.0000
vt 0.1013 0.1461 1.0000
vt 0.1013 0.1663 1.0000
vt 0.1804 0.4244 1.0000
vt 0.1804 0.4446 1.0000
vt 0.1804 0.1461 1.0000
vt 0.1804 0.1663 1.0000
vt 0.2596 0.4244 1.0000
vt 0.2596 0.4446 1.0000
vt 0.2596 0.1461 1.0000
vt 0.2596 0.1663 1.0000
vt 0.3387 0.4244 1.0000
vt 0.3387 0.4446 1.0000
vt 0.3387 0.1461 1.0000
vt 0.3387 0.1663 1.0000
vt 0.4178 0.4244 1.0000
vt 0.4178 0.4446 1.0000
vt 0.4178 0.1461 1.0000
vt 0.4178 0.1663 1.0000
vt 0.4969 0.4244 1.0000
vt 0.4969 0.4446 1.0000
vt 0.4969 0.1461 1.0000
vt 0.4969 0.1663 1.0000
vt 0.5760 0.4244 1.0000
vt 0.5760 0.4446 1.0000
vt 0.5760 0.1461 1.0000
vt 0.5760 0.1663 1.0000
vt 0.6551 0.4244 1.0000
vt 0.6551 0.4446 1.0000
vt 0.6551 0.1461 1.0000
vt 0.6551 0.1663 1.0000
vt 0.6373 0.7058 -0.2500
vt 0.6135 0.7945 -0.2500
vt 0.6373 0.8833 -0.2500
vt 0.7023 0.6408 -0.2500
vt 0.2168 0.7959 0.2500
vt 0.2406 0.7072 0.2500
vt 0.3056 0.6422 0.2500
vt 0.2406 0.8847 0.2500
vt 0.7023 0.9482 -0.2500
vt 0.7910 0.6170 -0.2500
vt 0.3943 0.6184 0.2500
vt 0.3056 0.9497 0.2500
vt 0.9447 0.8833 -0.2500
vt 0.9685 0.7945 -0.2500
vt 0.5718 0.7959 0.2500
vt 0.5480 0.8847 0.2500
vt 0.0644 0.7712 0.0000
vt 0.0282 0.7100 0.0000
vt 0.0724 0.7036 0.0000
vt 0.0912 0.7355 0.0000
vt 0.0458 0.6410 0.0000
vt 0.0815 0.6678 0.0000
vt 0.1071 0.6047 0.0000
vt 0.1134 0.6489 0.0000
vt 0.1760 0.6224 0.0000
vt 0.1493 0.6581 0.0000
vt 0.2123 0.6837 0.0000
vt 0.1681 0.6900 0.0000
vt 0.1946 0.7526 0.0000
vt 0.1589 0.7258 0.0000
vt 0.1334 0.7889 0.0000
vt 0.1271 0.7447 0.0000
# 170 texture coords

g Oil_barrel
usemtl wire_225088199
s off
f 1/1/1 2/2/1 3/3/1 4/4/1 
f 5/5/2 1/1/2 4/4/2 6/6/2 
f 7/7/3 5/5/3 6/6/3 8/8/3 
f 9/9/4 7/10/4 8/11/4 10/12/4 
f 11/13/5 9/9/5 10/12/5 12/14/5 
f 13/15/6 11/13/6 12/14/6 14/16/6 
f 15/17/7 13/15/7 14/16/7 16/18/7 
f 17/19/8 15/17/8 16/18/8 18/20/8 
f 19/21/9 17/19/9 18/20/9 20/22/9 
f 21/23/10 19/21/10 20/22/10 22/24/10 
f 23/25/11 21/23/11 22/24/11 24/26/11 
f 3/3/12 2/2/12 23/25/12 24/26/12 
f 25/27/13 26/28/13 27/29/13 28/30/13 
f 29/31/14 30/32/14 31/33/14 32/34/14 
f 33/35/1 32/36/1 34/37/1 35/38/1 
f 27/39/15 36/40/15 37/41/15 38/42/15 
f 39/43/2 33/35/2 35/38/2 40/44/2 
f 36/40/16 41/45/16 42/46/16 37/41/16 
f 43/47/17 39/43/17 40/44/17 44/48/17 
f 41/45/3 45/49/3 46/50/3 42/46/3 
f 47/51/4 43/52/4 44/53/4 48/54/4 
f 45/55/4 49/56/4 50/57/4 46/58/4 
f 51/59/18 47/51/18 48/54/18 52/60/18 
f 49/56/5 53/61/5 54/62/5 50/57/5 
f 55/63/6 51/59/6 52/60/6 56/64/6 
f 53/61/19 57/65/19 58/66/19 54/62/19 
f 29/67/7 55/63/7 56/64/7 59/68/7 
f 57/65/20 26/69/20 60/70/20 58/66/20 
f 30/71/21 29/67/21 59/68/21 61/72/21 
f 26/69/8 25/73/8 62/74/8 60/70/8 
f 63/75/22 30/71/22 61/72/22 64/76/22 
f 25/73/9 65/77/9 66/78/9 62/74/9 
f 67/79/10 63/75/10 64/76/10 68/80/10 
f 65/77/10 69/81/10 70/82/10 66/78/10 
f 31/83/23 67/79/23 68/80/23 71/84/23 
f 69/81/23 28/85/23 72/86/23 70/82/23 
f 32/36/12 31/83/12 71/84/12 34/37/12 
f 28/85/24 27/39/24 38/42/24 72/86/24 
f 73/87/15 74/88/15 75/89/15 76/90/15 
f 77/91/1 78/92/1 79/93/1 80/94/1 
f 81/95/2 82/96/2 74/88/2 73/87/2 
f 80/94/2 79/93/2 83/97/2 84/98/2 
f 85/99/17 86/100/17 82/96/17 81/95/17 
f 84/98/17 83/97/17 87/101/17 88/102/17 
f 89/103/4 90/104/4 86/105/4 85/106/4 
f 88/107/4 87/108/4 91/109/4 92/110/4 
f 93/111/18 94/112/18 90/104/18 89/103/18 
f 92/110/18 91/109/18 95/113/18 96/114/18 
f 97/115/19 98/116/19 94/112/19 93/111/19 
f 96/114/6 95/113/6 99/117/6 100/118/6 
f 101/119/7 102/120/7 98/116/7 97/115/7 
f 100/118/20 99/117/20 103/121/20 104/122/20 
f 105/123/8 106/124/8 102/120/8 101/119/8 
f 104/122/8 103/121/8 107/125/8 108/126/8 
f 109/127/9 110/128/9 106/124/9 105/123/9 
f 108/126/9 107/125/9 111/129/9 112/130/9 
f 113/131/10 114/132/10 110/128/10 109/127/10 
f 112/130/10 111/129/10 115/133/10 116/134/10 
f 117/135/23 118/136/23 114/132/23 113/131/23 
f 116/134/23 115/133/23 119/137/23 120/138/23 
f 76/90/24 75/89/24 118/136/24 117/135/24 
f 120/138/24 119/137/24 78/92/24 77/91/24 
f 2/2/13 1/1/13 73/87/13 76/90/13 
f 1/1/13 5/5/13 81/95/13 73/87/13 
f 5/5/13 7/7/13 85/99/13 81/95/13 
f 7/10/13 9/9/13 89/103/13 85/106/13 
f 9/9/13 11/13/13 93/111/13 89/103/13 
f 11/13/13 13/15/13 97/115/13 93/111/13 
f 13/15/13 15/17/13 101/119/13 97/115/13 
f 15/17/13 17/19/13 105/123/13 101/119/13 
f 17/19/13 19/21/13 109/127/13 105/123/13 
f 19/21/13 21/23/13 113/131/13 109/127/13 
f 21/23/13 23/25/13 117/135/13 113/131/13 
f 23/25/13 2/2/13 76/90/13 117/135/13 
f 35/38/25 34/37/25 75/89/25 74/88/25 
f 34/37/25 71/84/25 118/136/25 75/89/25 
f 71/84/25 68/80/25 114/132/25 118/136/25 
f 68/80/25 64/76/25 110/128/25 114/132/25 
f 64/76/25 61/72/25 106/124/25 110/128/25 
f 61/72/25 59/68/25 102/120/25 106/124/25 
f 59/68/25 56/64/25 98/116/25 102/120/25 
f 56/64/25 52/60/25 94/112/25 98/116/25 
f 52/60/25 48/54/25 90/104/25 94/112/25 
f 48/54/25 44/53/25 86/105/25 90/104/25 
f 44/48/25 40/44/25 82/96/25 86/100/25 
f 40/44/25 35/38/25 74/88/25 82/96/25 
f 4/4/25 3/3/25 77/91/25 80/94/25 
f 3/3/25 24/26/25 120/138/25 77/91/25 
f 24/26/25 22/24/25 116/134/25 120/138/25 
f 22/24/14 20/22/14 112/130/14 116/134/14 
f 20/22/25 18/20/25 108/126/25 112/130/25 
f 18/20/25 16/18/25 104/122/25 108/126/25 
f 16/18/25 14/16/25 100/118/25 104/122/25 
f 14/16/26 12/14/26 96/114/26 100/118/26 
f 12/14/14 10/12/14 92/110/14 96/114/14 
f 10/12/14 8/11/14 88/107/14 92/110/14 
f 8/8/25 6/6/25 84/98/25 88/102/25 
f 6/6/25 4/4/25 80/94/25 84/98/25 
f 38/42/13 37/41/13 79/93/13 78/92/13 
f 37/41/13 42/46/13 83/97/13 79/93/13 
f 42/46/13 46/50/13 87/101/13 83/97/13 
f 46/58/13 50/57/13 91/109/13 87/108/13 
f 50/57/13 54/62/13 95/113/13 91/109/13 
f 54/62/13 58/66/13 99/117/13 95/113/13 
f 58/66/13 60/70/13 103/121/13 99/117/13 
f 60/70/13 62/74/13 107/125/13 103/121/13 
f 62/74/13 66/78/13 111/129/13 107/125/13 
f 66/78/13 70/82/13 115/133/13 111/129/13 
f 70/82/13 72/86/13 119/137/13 115/133/13 
f 72/86/13 38/42/13 78/92/13 119/137/13 
f 49/139/13 45/140/13 41/141/13 53/142/13 
f 43/143/25 47/144/25 51/145/25 39/146/25 
f 53/142/13 41/141/13 36/147/13 57/148/13 
f 39/146/25 51/145/25 55/149/25 33/150/25 
f 57/148/13 36/147/13 27/29/13 26/28/13 
f 33/150/26 55/149/26 29/31/26 32/34/26 
f 69/151/13 65/152/13 25/27/13 28/30/13 
f 63/153/25 67/154/25 31/33/25 30/32/25 
f 121/155/27 122/156/27 123/157/27 124/158/27 
f 122/156/28 125/159/28 126/160/28 123/157/28 
f 125/159/29 127/161/29 128/162/29 126/160/29 
f 127/161/30 129/163/30 130/164/30 128/162/30 
f 129/163/31 131/165/31 132/166/31 130/164/31 
f 131/165/32 133/167/32 134/168/32 132/166/32 
f 133/167/33 135/169/33 136/170/33 134/168/33 
f 135/169/34 121/155/34 124/158/34 136/170/34 
f 123/157/25 126/160/25 128/162/25 136/170/25 
f 128/162/25 130/164/25 132/166/25 136/170/25 
f 132/166/25 134/168/25 136/170/25 
f 124/158/25 123/157/25 136/170/25 
# 128 polygons - 2 triangles

