# 3ds Max Wavefront OBJ Exporter v0.97b - (c)2007 guruware
# File Created: 27.07.2015 20:26:06

mtllib Stones.mtl

#
# object Stone_01
#

v  -945.4432 0.0000 1992.3363
v  -104.0562 0.0000 2051.1067
v  -280.4575 0.0000 2374.5342
v  -759.1439 0.0000 2374.4114
v  -332.0468 583.8079 2289.4199
v  -166.6265 678.7227 2079.9263
v  -745.9760 549.7357 2004.2693
v  -646.6366 405.6071 2284.8250
v  -278.4509 194.1255 2381.6357
v  -761.1703 178.8311 2403.9614
v  -104.0724 273.4844 2064.8704
v  -223.9957 0.0000 1710.1992
v  -774.9220 0.0000 1722.1727
v  -679.3484 273.6451 1766.4453
v  -225.1311 152.2793 1724.5964
v  -874.2040 291.2132 1969.0869
v  -271.5475 525.3936 1830.1743
v  -526.7860 514.5996 1869.1499
# 18 vertices

vn 0.0000 -1.0000 -0.0000
vn -0.3311 0.8649 0.3773
vn 0.0245 -0.0978 0.9949
vn 0.8780 -0.0251 0.4780
vn -0.0356 0.1441 -0.9889
vn -0.7622 0.2474 -0.5982
vn -0.1262 0.8756 -0.4662
vn 0.9410 0.0249 -0.3374
vn -0.9248 0.1314 0.3569
vn -0.0589 0.3290 0.9425
vn 0.8004 0.1727 0.5740
vn -0.0560 0.3294 -0.9425
vn -0.5150 0.4847 -0.7070
vn 0.8841 0.1899 -0.4270
vn -0.7897 0.4644 0.4009
# 15 vertex normals

vt 0.0833 0.5511 0.0000
vt 0.3305 0.5782 0.0000
vt 0.3063 0.6752 0.0000
vt 0.1067 0.6710 0.0000
vt 0.1599 0.9078 0.0000
vt 0.1523 0.8508 0.0000
vt 0.2962 0.8240 0.0000
vt 0.2830 0.8895 0.0000
vt 0.1011 0.9808 0.0000
vt 0.1302 0.9439 0.0000
vt 0.3308 0.9185 0.0000
vt 0.3682 0.9562 0.0000
vt 0.0257 0.8496 0.0000
vt 0.0960 0.8558 0.0000
vt 0.1077 0.7067 0.0000
vt 0.3015 0.7075 0.0000
vt 0.2728 0.7506 0.0000
vt 0.1343 0.7398 0.0000
vt 0.3896 0.7616 0.0000
vt 0.3511 0.7909 0.0000
vt 0.1367 0.4735 0.0000
vt 0.2991 0.4763 0.0000
vt 0.1805 0.7836 0.0000
vt 0.2492 0.7954 0.0000
# 24 texture coords

g Stone_01
usemtl wire_196088225
s off
f 1/1/1 2/2/1 3/3/1 4/4/1 
f 5/5/2 6/6/2 7/7/2 8/8/2 
f 3/9/3 9/10/3 10/11/3 4/12/3 
f 2/13/4 11/14/4 9/10/4 3/9/4 
f 12/15/5 13/16/5 14/17/5 15/18/5 
f 13/16/6 1/19/6 16/20/6 14/17/6 
f 13/21/1 12/22/1 2/2/1 1/1/1 
f 6/6/7 17/23/7 18/24/7 7/7/7 
f 2/13/8 12/15/8 15/18/8 11/14/8 
f 1/19/9 4/12/9 10/11/9 16/20/9 
f 9/10/10 5/5/10 8/8/10 10/11/10 
f 11/14/11 6/6/11 5/5/11 9/10/11 
f 18/24/12 17/23/12 15/18/12 14/17/12 
f 7/7/13 18/24/13 14/17/13 16/20/13 
f 17/23/14 6/6/14 11/14/14 15/18/14 
f 8/8/15 7/7/15 16/20/15 10/11/15 
# 16 polygons

#
# object Stone_02
#

v  -487.6262 0.0000 -49.9446
v  -810.1558 0.0000 -391.6768
v  -327.5868 0.0000 -447.5046
v  -104.6954 0.0000 -18.6155
v  -471.9512 279.2065 -181.9446
v  -126.7637 334.4571 -87.4016
v  -332.4609 473.1818 -492.6975
v  -706.2653 368.5797 -429.2979
v  -124.5366 143.3262 48.3523
v  -581.1497 138.5842 -5.2454
v  21.0686 0.0000 -883.9587
v  -471.9204 0.0000 -873.8835
v  -306.1071 159.7487 -1007.2214
v  53.5963 122.1196 -965.5044
v  -842.3113 0.0000 -826.2576
v  -890.7729 208.2716 -430.4019
v  -824.9618 197.3777 -863.1001
v  88.3633 448.5637 -472.4333
v  -10.8131 353.4853 -818.9998
v  -232.4604 350.1386 -862.7102
v  154.9822 0.0000 -503.3328
v  221.5828 197.2781 -493.3254
v  -717.7434 346.7920 -744.9172
# 23 vertices

vn 0.0000 -1.0000 -0.0000
vn -0.2125 0.8689 0.4470
vn -0.0901 -0.3979 0.9130
vn 0.0027 -0.6075 -0.7943
vn -0.9864 -0.1606 -0.0363
vn 0.0606 0.9549 -0.2906
vn 0.8949 -0.3420 -0.2867
vn -0.7312 -0.3769 0.5685
vn 0.7630 0.3710 0.5294
vn -0.1691 0.6576 -0.7342
vn -0.7095 0.6999 -0.0821
vn 0.8127 0.4578 -0.3604
vn -0.4353 0.7313 0.5251
vn 0.0410 0.9515 0.3049
vn 0.8441 -0.2258 0.4863
vn -0.2123 -0.3295 -0.9200
vn -0.1680 0.9599 -0.2245
vn -0.1796 0.7045 0.6866
vn 0.1527 0.5590 -0.8150
# 19 vertex normals

vt 0.6905 0.2212 0.0000
vt 0.6673 0.1026 0.0000
vt 0.7896 0.1160 0.0000
vt 0.7892 0.2233 0.0000
vt 0.8648 0.4373 0.0000
vt 0.8087 0.4773 0.0000
vt 0.8067 0.3858 0.0000
vt 0.8779 0.3725 0.0000
vt 0.9491 0.5033 0.0000
vt 0.8218 0.5464 0.0000
vt 0.8177 0.5095 0.0000
vt 0.9122 0.4661 0.0000
vt 0.6914 0.2565 0.0000
vt 0.7956 0.2462 0.0000
vt 0.7946 0.2839 0.0000
vt 0.7177 0.2893 0.0000
vt 0.8832 0.2573 0.0000
vt 0.9703 0.3109 0.0000
vt 0.9322 0.3399 0.0000
vt 0.8547 0.2999 0.0000
vt 0.7201 0.0258 0.0000
vt 0.8005 0.0272 0.0000
vt 0.7356 0.3991 0.0000
vt 0.7635 0.3326 0.0000
vt 0.8058 0.3277 0.0000
vt 0.6103 0.3979 0.0000
vt 0.6799 0.4040 0.0000
vt 0.8469 0.3431 0.0000
vt 0.9119 0.1294 0.0000
vt 0.8808 0.0287 0.0000
# 30 texture coords

g Stone_02
usemtl wire_196088225
s off
f 19/25/16 20/26/16 21/27/16 22/28/16 
f 23/29/17 24/30/17 25/31/17 26/32/17 
f 19/33/18 22/34/18 27/35/18 28/36/18 
f 29/37/19 30/38/19 31/39/19 32/40/19 
f 33/41/20 20/42/20 34/43/20 35/44/20 
f 33/45/16 30/46/16 21/27/16 20/26/16 
f 36/47/21 37/48/21 38/49/21 25/31/21 
f 39/50/22 29/37/22 32/40/22 40/51/22 
f 20/42/23 19/33/23 28/36/23 34/43/23 
f 36/47/24 24/30/24 27/35/24 40/51/24 
f 41/52/25 38/49/25 31/39/25 35/44/25 
f 26/32/26 41/52/26 35/44/26 34/43/26 
f 37/48/27 36/47/27 40/51/27 32/40/27 
f 23/29/28 26/32/28 34/43/28 28/36/28 
f 21/27/16 39/53/16 22/28/16 
f 24/30/29 36/47/29 25/31/29 
f 39/50/30 40/51/30 27/35/30 22/34/30 
f 30/38/31 33/41/31 35/44/31 31/39/31 
f 29/54/16 39/53/16 21/27/16 30/46/16 
f 41/52/32 26/32/32 25/31/32 38/49/32 
f 23/29/33 28/36/33 27/35/33 24/30/33 
f 37/48/34 32/40/34 31/39/34 38/49/34 
# 20 polygons - 2 triangles

#
# object Stone_03
#

v  1889.7341 0.0000 338.9316
v  1972.5820 0.0000 116.9492
v  2161.8870 0.0000 657.2324
v  1886.1143 0.0000 475.3330
v  2094.8562 507.6683 604.0453
v  2164.0613 677.0383 191.4893
v  1942.2214 541.5709 274.4498
v  1917.7354 436.8639 536.6182
v  2192.7664 249.4054 757.9252
v  1865.6611 279.5665 551.6071
v  1826.5674 207.8983 346.3572
v  1900.3843 164.1793 79.7685
v  2210.5435 0.0000 -58.3552
v  2200.3635 164.1794 -91.3796
v  2470.6855 164.1793 -68.4296
v  2437.6882 0.0000 -66.3691
v  2600.4575 0.0000 188.5530
v  2638.1082 114.4524 110.8528
v  2576.1943 318.5353 566.6851
v  2559.5610 0.0000 456.9509
v  2381.6724 597.2888 501.0530
v  2523.6147 534.5179 89.0287
v  2415.2856 359.8812 -49.1138
v  2193.5925 273.3846 -46.8941
v  1947.4951 338.6684 81.5947
# 25 vertices

vn 0.0000 -1.0000 -0.0000
vn -0.4310 0.8553 0.2876
vn -0.5320 -0.2592 0.8061
vn -0.9012 -0.3485 -0.2578
vn 0.0298 -0.1082 -0.9937
vn 0.9750 -0.1353 0.1765
vn -0.5164 -0.3010 -0.8017
vn 0.7248 -0.3531 -0.5916
vn 0.4449 -0.3436 0.8270
vn 0.3644 0.9311 -0.0163
vn -0.0959 0.5523 -0.8281
vn -0.4165 0.5108 -0.7521
vn -0.4749 0.2858 0.8323
vn -0.9421 0.3312 0.0529
vn 0.0051 0.2058 -0.9786
vn 0.9071 0.4119 0.0864
vn -0.4517 0.2059 -0.8681
vn 0.7026 0.1910 -0.6855
vn 0.2542 0.4813 0.8389
vn -0.1619 0.9221 0.3514
vn -0.9715 -0.1908 0.1409
vn -0.9210 0.2543 -0.2951
# 22 vertex normals

vt 0.5479 0.7272 0.0000
vt 0.6064 0.7801 0.0000
vt 0.4502 0.7855 0.0000
vt 0.4916 0.7138 0.0000
vt 0.8402 0.8403 0.0000
vt 0.8349 0.7785 0.0000
vt 0.8790 0.7773 0.0000
vt 0.8911 0.8362 0.0000
vt 0.8246 0.9817 0.0000
vt 0.8150 0.9299 0.0000
vt 0.9149 0.8524 0.0000
vt 0.9538 0.8708 0.0000
vt 0.9625 0.7956 0.0000
vt 0.9233 0.7904 0.0000
vt 0.9343 0.7098 0.0000
vt 0.9737 0.6979 0.0000
vt 0.8471 0.6250 0.0000
vt 0.8313 0.6663 0.0000
vt 0.7552 0.6819 0.0000
vt 0.7399 0.6553 0.0000
vt 0.6404 0.7430 0.0000
vt 0.6907 0.7690 0.0000
vt 0.7148 0.9032 0.0000
vt 0.6578 0.9178 0.0000
vt 0.7843 0.8209 0.0000
vt 0.7532 0.7485 0.0000
vt 0.7789 0.7122 0.0000
vt 0.8295 0.7072 0.0000
vt 0.8872 0.7275 0.0000
vt 0.6257 0.9087 0.0000
vt 0.4239 0.9213 0.0000
vt 0.5876 0.9747 0.0000
vt 0.5069 0.9693 0.0000
# 33 texture coords

g Stone_03
usemtl wire_196088225
s off
f 42/55/35 43/56/35 44/57/35 45/58/35 
f 46/59/36 47/60/36 48/61/36 49/62/36 
f 44/63/37 50/64/37 51/65/37 45/66/37 
f 42/67/38 52/68/38 53/69/38 43/70/38 
f 54/71/39 55/72/39 56/73/39 57/74/39 
f 58/75/40 59/76/40 60/77/40 61/78/40 
f 43/70/41 53/69/41 55/72/41 54/71/41 
f 56/73/42 59/76/42 58/75/42 57/74/42 
f 60/77/43 50/64/43 44/63/43 61/78/43 
f 62/79/44 63/80/44 47/60/44 
f 64/81/45 65/82/45 47/60/45 63/80/45 
f 47/60/46 65/82/46 66/83/46 48/61/46 
f 46/59/47 49/62/47 51/65/47 50/64/47 
f 49/62/48 48/61/48 52/68/48 51/65/48 
f 65/82/49 64/81/49 56/73/49 55/72/49 
f 59/76/50 63/80/50 62/79/50 60/77/50 
f 53/69/51 66/83/51 65/82/51 55/72/51 
f 64/81/52 63/80/52 59/76/52 56/73/52 
f 62/79/53 46/59/53 50/64/53 60/77/53 
f 46/59/54 62/79/54 47/60/54 
f 45/66/55 51/65/55 52/68/55 42/67/55 
f 66/83/56 53/69/56 52/68/56 48/61/56 
f 54/84/35 61/85/35 44/57/35 43/56/35 
f 54/84/35 57/86/35 58/87/35 61/85/35 
# 22 polygons - 2 triangles

#
# object Stone_04
#

v  1382.6625 -0.0777 1548.7590
v  1430.8804 -0.0777 1633.8679
v  1161.2903 -0.0777 1553.2938
v  1223.9828 209.5099 1545.4297
v  1336.0913 279.4332 1676.7964
v  1368.7244 223.5064 1584.6229
v  1149.3347 52.5111 1535.5592
v  1376.6743 85.7518 1528.9644
v  1441.3959 67.7027 1623.0543
v  1402.7712 -0.0777 1757.7982
v  1415.9170 67.7027 1763.3425
v  1235.7950 47.1733 1848.1154
v  1221.2131 -0.0777 1815.5890
v  1092.3831 81.0510 1726.2595
v  1119.0996 -0.0776 1732.2098
v  1159.3643 220.5945 1780.7443
v  1273.0802 220.5946 1817.6976
v  1180.4421 246.5092 1663.4684
v  1403.6449 112.7874 1749.3959
v  1428.3165 139.7394 1637.4688
v  1148.9031 164.9169 1588.1316
v  1117.7970 187.4320 1715.6045
# 22 vertices

vn -0.0000 -1.0000 -0.0000
vn 0.0532 0.8620 -0.5042
vn -0.0045 -0.2622 -0.9650
vn 0.8326 -0.1317 -0.5380
vn 0.3588 -0.3701 0.8569
vn -0.6438 -0.2130 0.7350
vn 0.9672 -0.1612 0.1962
vn -0.9248 -0.3072 -0.2243
vn -0.1646 0.9518 0.2588
vn 0.6891 0.5055 0.5193
vn 0.8438 0.5108 0.1644
vn -0.7068 0.6076 -0.3622
vn -0.6653 0.7452 0.0451
vn 0.0597 0.2037 -0.9772
vn 0.4664 0.1244 0.8758
vn -0.7092 0.0664 0.7018
vn 0.9553 0.2059 0.2120
vn -0.9439 0.1628 -0.2874
vn -0.6081 0.3344 -0.7200
vn -0.3010 0.2272 0.9262
vn -0.1651 0.9221 -0.3499
vn 0.8180 0.2543 -0.5159
vn -0.0000 -1.0000 0.0000
# 23 vertex normals

vt 0.5479 0.7272 0.0000
vt 0.6064 0.7801 0.0000
vt 0.4502 0.7855 0.0000
vt 0.8402 0.8403 0.0000
vt 0.8349 0.7785 0.0000
vt 0.8790 0.7773 0.0000
vt 0.8246 0.9817 0.0000
vt 0.8150 0.9299 0.0000
vt 0.9233 0.7904 0.0000
vt 0.9625 0.7956 0.0000
vt 0.9343 0.7098 0.0000
vt 0.9737 0.6979 0.0000
vt 0.8471 0.6250 0.0000
vt 0.8313 0.6663 0.0000
vt 0.6907 0.7690 0.0000
vt 0.6404 0.7430 0.0000
vt 0.7148 0.9032 0.0000
vt 0.6578 0.9178 0.0000
vt 0.7361 0.8087 0.0000
vt 0.7532 0.7485 0.0000
vt 0.7843 0.8209 0.0000
vt 0.8295 0.7072 0.0000
vt 0.8872 0.7275 0.0000
vt 0.7872 0.8894 0.0000
vt 0.7463 0.8564 0.0000
vt 0.6257 0.9087 0.0000
vt 0.4239 0.9213 0.0000
vt 0.5069 0.9693 0.0000
# 28 texture coords

g Stone_04
usemtl wire_196088225
s off
f 67/88/57 68/89/57 69/90/57 
f 70/91/58 71/92/58 72/93/58 
f 69/94/59 73/95/59 74/96/59 67/97/59 
f 67/97/60 74/96/60 75/98/60 68/99/60 
f 76/100/61 77/101/61 78/102/61 79/103/61 
f 79/103/62 78/102/62 80/104/62 81/105/62 
f 68/99/63 75/98/63 77/101/63 76/100/63 
f 80/104/64 73/95/64 69/94/64 81/105/64 
f 82/106/65 83/107/65 71/92/65 84/108/65 
f 85/109/66 71/92/66 83/107/66 
f 71/92/67 85/109/67 86/110/67 72/93/67 
f 87/111/68 88/112/68 84/108/68 70/91/68 
f 82/106/69 84/108/69 88/112/69 
f 70/91/70 72/93/70 74/96/70 73/95/70 
f 85/109/71 83/107/71 78/102/71 77/101/71 
f 82/106/72 88/112/72 80/104/72 78/102/72 
f 75/98/73 86/110/73 85/109/73 77/101/73 
f 88/112/74 87/111/74 73/95/74 80/104/74 
f 73/95/75 87/111/75 70/91/75 
f 78/102/76 83/107/76 82/106/76 
f 70/91/77 84/108/77 71/92/77 
f 86/110/78 75/98/78 74/96/78 72/93/78 
f 76/113/79 81/114/79 69/90/79 68/89/79 
f 76/113/57 79/115/57 81/114/57 
# 16 polygons - 8 triangles

#
# object Stone_05
#

v  819.9188 0.2851 474.0555
v  588.7272 0.2851 645.7483
v  553.0518 0.2851 394.2156
v  584.1290 165.7972 466.6272
v  319.6975 231.3016 589.3598
v  522.9841 280.7847 686.0058
v  777.7349 218.7771 524.1622
v  287.3401 0.2851 604.2271
v  233.2501 88.0591 574.3737
v  587.8157 82.4370 343.5481
v  357.5355 0.2851 817.4413
v  320.3783 117.2304 832.0440
v  539.1000 0.2851 973.1535
v  789.2020 0.2851 821.8605
v  743.5985 94.9832 939.4596
v  546.5709 72.6769 1024.6582
v  382.5775 266.1912 781.8327
v  536.2136 209.8292 930.3556
v  662.9575 207.8453 887.0999
v  872.7837 123.7473 470.0413
# 20 vertices

vn 0.0000 -1.0000 -0.0000
vn -0.0433 0.8799 -0.4733
vn -0.5305 -0.4115 -0.7411
vn -0.8753 -0.3667 0.3152
vn 0.3949 -0.6075 0.6893
vn 0.0968 0.9572 0.2727
vn -0.6317 -0.3420 0.6957
vn 0.3490 -0.3769 -0.8580
vn -0.3539 0.5775 -0.7357
vn -0.8585 0.4632 0.2202
vn 0.7411 0.6243 0.2470
vn -0.5237 0.4578 0.7185
vn 0.1145 0.7313 -0.6724
vn -0.1817 0.9763 -0.1176
vn 0.9740 -0.1293 0.1860
vn 0.3096 0.9424 0.1263
vn 0.2752 0.5590 0.7822
# 17 vertex normals

vt 0.6673 0.1026 0.0000
vt 0.7896 0.1160 0.0000
vt 0.7892 0.2233 0.0000
vt 0.8648 0.4373 0.0000
vt 0.8087 0.4773 0.0000
vt 0.8067 0.3858 0.0000
vt 0.8779 0.3725 0.0000
vt 0.6849 0.5277 0.0000
vt 0.7137 0.4911 0.0000
vt 0.9122 0.4661 0.0000
vt 0.8218 0.5464 0.0000
vt 0.6103 0.3979 0.0000
vt 0.6799 0.4040 0.0000
vt 0.6914 0.2565 0.0000
vt 0.7956 0.2462 0.0000
vt 0.7946 0.2839 0.0000
vt 0.7177 0.2893 0.0000
vt 0.8005 0.0272 0.0000
vt 0.7356 0.3991 0.0000
vt 0.7635 0.3326 0.0000
vt 0.8058 0.3277 0.0000
vt 0.9703 0.3109 0.0000
vt 0.9322 0.3399 0.0000
vt 0.9119 0.1294 0.0000
vt 0.8879 0.2254 0.0000
vt 0.8808 0.0287 0.0000
# 26 texture coords

g Stone_05
usemtl wire_196088225
s off
f 89/116/80 90/117/80 91/118/80 
f 92/119/81 93/120/81 94/121/81 95/122/81 
f 96/123/82 97/124/82 98/125/82 91/126/82 
f 99/127/83 100/128/83 97/124/83 96/123/83 
f 101/129/84 102/130/84 103/131/84 104/132/84 
f 89/116/80 102/133/80 90/117/80 
f 105/134/85 106/135/85 107/136/85 94/121/85 
f 99/127/86 101/129/86 104/132/86 100/128/86 
f 89/137/87 91/126/87 98/125/87 108/138/87 
f 93/120/88 92/119/88 98/125/88 97/124/88 
f 100/128/89 105/134/89 93/120/89 97/124/89 
f 95/122/90 107/136/90 103/131/90 108/138/90 
f 106/135/91 105/134/91 100/128/91 104/132/91 
f 92/119/92 95/122/92 108/138/92 98/125/92 
f 90/117/80 99/139/80 96/140/80 91/118/80 
f 93/120/93 105/134/93 94/121/93 
f 89/137/94 108/138/94 103/131/94 102/130/94 
f 101/141/80 99/139/80 90/117/80 102/133/80 
f 107/136/95 95/122/95 94/121/95 
f 106/135/96 104/132/96 103/131/96 107/136/96 
# 16 polygons - 4 triangles

#
# object Stone_06
#

v  1126.2217 -0.3162 -830.8099
v  749.7084 -0.3162 -958.8328
v  806.6588 -0.3162 -1101.3839
v  1109.2767 -0.3162 -1053.5870
v  836.3440 263.9250 -1067.4995
v  779.8635 306.8851 -966.7610
v  1032.1566 248.5034 -887.5031
v  1052.0864 183.2684 -1022.4973
v  805.2063 87.5483 -1104.3916
v  1112.5024 80.6257 -1066.5995
v  750.7974 123.4675 -964.9664
v  1092.6401 131.4918 -826.0459
v  784.1062 68.6080 -768.0812
v  782.4685 -0.3162 -761.7531
v  807.0016 237.4858 -847.1899
# 15 vertices

vn 0.0000 -1.0000 -0.0000
vn 0.3436 0.8908 -0.2975
vn 0.1373 -0.0950 -0.9860
vn -0.9307 -0.0174 -0.3653
vn 0.1875 0.0375 0.9815
vn 0.0459 0.8685 0.4936
vn -0.9854 0.0249 0.1687
vn 0.9900 0.1409 -0.0092
vn 0.1971 0.2923 -0.9358
vn -0.8661 0.1900 -0.4623
vn 0.1012 0.4496 0.8875
vn -0.9453 0.1988 0.2586
vn 0.8766 0.4781 -0.0549
# 13 vertex normals

vt 0.0833 0.5511 0.0000
vt 0.3305 0.5782 0.0000
vt 0.3063 0.6752 0.0000
vt 0.1067 0.6710 0.0000
vt 0.1599 0.9078 0.0000
vt 0.1523 0.8508 0.0000
vt 0.2962 0.8240 0.0000
vt 0.2830 0.8895 0.0000
vt 0.1011 0.9808 0.0000
vt 0.1302 0.9439 0.0000
vt 0.3308 0.9185 0.0000
vt 0.3682 0.9562 0.0000
vt 0.0257 0.8496 0.0000
vt 0.0960 0.8558 0.0000
vt 0.3896 0.7616 0.0000
vt 0.3511 0.7909 0.0000
vt 0.1343 0.7398 0.0000
vt 0.1077 0.7067 0.0000
vt 0.2991 0.4763 0.0000
vt 0.1805 0.7836 0.0000
# 20 texture coords

g Stone_06
usemtl wire_196088225
s off
f 109/142/97 110/143/97 111/144/97 112/145/97 
f 113/146/98 114/147/98 115/148/98 116/149/98 
f 111/150/99 117/151/99 118/152/99 112/153/99 
f 110/154/100 119/155/100 117/151/100 111/150/100 
f 109/156/101 120/157/101 121/158/101 122/159/101 
f 109/142/97 122/160/97 110/143/97 
f 114/147/102 123/161/102 115/148/102 
f 110/154/103 122/159/103 121/158/103 119/155/103 
f 109/156/104 112/153/104 118/152/104 120/157/104 
f 117/151/105 113/146/105 116/149/105 118/152/105 
f 119/155/106 114/147/106 113/146/106 117/151/106 
f 115/148/107 123/161/107 121/158/107 120/157/107 
f 123/161/108 114/147/108 119/155/108 121/158/108 
f 116/149/109 115/148/109 120/157/109 118/152/109 
# 12 polygons - 2 triangles

