# 3ds Max Wavefront OBJ Exporter v0.97b - (c)2007 guruware
# File Created: 24.07.2015 22:12:16

mtllib Road Desert Line WE.mtl

#
# object Road_Desert_Line_WE
#

v  -7000.0000 0.0000 5151.5332
v  7000.0000 0.0000 5151.5332
v  7000.0000 0.0000 -5151.5332
v  -7000.0000 0.0000 -5151.5332
v  -7000.0000 270.7544 5816.9814
v  7000.0000 270.7544 5816.9814
v  7000.0000 270.7544 5410.3184
v  -7000.0000 270.7544 5410.3184
v  7000.0000 270.7544 -5816.9814
v  -7000.0000 270.7544 -5816.9814
v  -7000.0000 270.7544 -5410.3184
v  7000.0000 270.7544 -5410.3184
v  -7000.0000 0.0000 7000.0000
v  7000.0000 0.0000 7000.0000
v  7000.0000 0.0000 6075.7666
v  -7000.0000 0.0000 6075.7666
v  7000.0000 0.0000 -7000.0000
v  -7000.0000 0.0000 -7000.0000
v  -7000.0000 0.0000 -6075.7666
v  7000.0000 0.0000 -6075.7666
# 20 vertices

vn 0.0000 1.0000 -0.0000
vn 0.0000 0.6909 0.7229
vn 0.0000 0.6909 -0.7229
# 3 vertex normals

vt 0.0000 0.1320 0.0000
vt 1.0000 0.1320 0.0000
vt 1.0000 0.8680 0.0000
vt 0.0000 0.8680 0.0000
vt 0.0000 0.0845 0.0000
vt 1.0000 0.0845 0.0000
vt 1.0000 0.1135 0.0000
vt 0.0000 0.1135 0.0000
vt 1.0000 0.9155 0.0000
vt 0.0000 0.9155 0.0000
vt 0.0000 0.8865 0.0000
vt 1.0000 0.8865 0.0000
vt 0.0000 0.0000 0.0000
vt 1.0000 0.0000 0.0000
vt 1.0000 0.0660 0.0000
vt 0.0000 0.0660 0.0000
vt 1.0000 1.0000 0.0000
vt 0.0000 1.0000 0.0000
vt 0.0000 0.9340 0.0000
vt 1.0000 0.9340 0.0000
# 20 texture coords

g Road_Desert_Line_WE
usemtl wire_198225087
s off
f 1/1/1 2/2/1 3/3/1 4/4/1 
f 5/5/1 6/6/1 7/7/1 8/8/1 
f 9/9/1 10/10/1 11/11/1 12/12/1 
f 13/13/1 14/14/1 15/15/1 16/16/1 
f 17/17/1 18/18/1 19/19/1 20/20/1 
f 16/16/2 15/15/2 6/6/2 5/5/2 
f 2/2/3 1/1/3 8/8/3 7/7/3 
f 20/20/3 19/19/3 10/10/3 9/9/3 
f 4/4/2 3/3/2 12/12/2 11/11/2 
# 9 polygons

