# 3ds Max Wavefront OBJ Exporter v0.97b - (c)2007 guruware
# File Created: 13.10.2015 19:44:32

mtllib Road Desert Turn W.mtl

#
# object Road_Desert_Turn_W
#

v  7000.0010 270.7544 5816.9819
v  -3122.0107 270.7544 5816.9805
v  -3122.0107 0.0000 6075.7651
v  7000.0010 0.0000 6075.7671
v  7000.0010 270.7544 5410.3188
v  -3148.2373 270.7544 5410.3169
v  7000.0010 0.0000 5151.5337
v  -3141.9053 0.0000 5151.5317
v  7000.0010 0.0000 7000.0000
v  -3122.0127 0.0000 6999.9985
v  7000.0029 270.7544 -5410.3169
v  6391.6582 270.7544 -5531.3242
v  6292.6250 0.0000 -5292.2378
v  7000.0029 0.0000 -5151.5317
v  7000.0029 270.7544 -5816.9800
v  6547.2813 270.7544 -5907.0317
v  7000.0029 0.0000 -6075.7651
v  6646.3140 0.0000 -6146.1177
v  5875.9282 270.7544 -5875.9243
v  5692.9395 0.0000 -5692.9355
v  6163.4824 270.7544 -6163.4775
v  6346.4712 0.0000 -6346.4663
v  5531.3291 270.7544 -6391.6538
v  5292.2422 0.0000 -6292.6211
v  5907.0361 270.7544 -6547.2769
v  6146.1226 0.0000 -6646.3091
v  5151.5361 0.0000 -6999.9985
v  -5151.5283 0.0000 -7000.0005
v  -5151.5283 0.0000 3141.9072
v  5410.3213 270.7544 -6999.9985
v  5816.9844 270.7544 -6999.9985
v  6075.7695 0.0000 -6999.9980
v  -6075.7607 0.0000 -7000.0005
v  -6999.9951 0.0000 -7000.0005
v  -6999.9990 0.0000 3141.9070
v  -6075.7627 0.0000 3141.9072
v  -5816.9775 270.7544 3141.9072
v  -5816.9756 270.7544 -7000.0005
v  -5410.3154 270.7544 3141.9072
v  -5410.3135 270.7544 -7000.0005
v  6537.8872 0.0000 -6537.8809
v  7000.0029 0.0000 -6999.9980
v  -4246.2646 0.0000 5860.0513
v  -4651.1240 0.0000 6999.9976
v  -5202.3877 0.0000 5230.5254
v  -7000.0010 0.0000 6999.9976
v  -5844.8232 0.0000 4283.0259
v  -6999.9990 0.0000 4739.3418
v  -3910.9580 0.0000 4998.5576
v  -4998.5576 0.0000 3910.9565
v  -4562.9229 0.0000 4562.9258
v  -4147.2314 270.7544 5620.9653
v  -4015.8389 270.7544 5235.2212
v  -5019.3994 270.7544 5047.5366
v  -4750.3896 270.7544 4741.4370
v  -5605.7373 270.7544 4183.9937
v  -5240.0654 270.7544 4004.1396
# 57 vertices

vn -0.0000 0.6909 0.7229
vn 0.0000 1.0000 -0.0000
vn 0.0000 0.6909 -0.7229
vn -0.1423 0.6839 0.7155
vn 0.1423 0.6839 -0.7155
vn -0.4053 0.6839 0.6066
vn 0.4053 0.6839 -0.6066
vn -0.6066 0.6839 0.4053
vn 0.6066 0.6839 -0.4053
vn -0.7155 0.6839 0.1423
vn 0.7155 0.6839 -0.1423
vn -0.7229 0.6909 -0.0000
vn 0.7229 0.6909 0.0000
vn -0.1373 0.6839 0.7165
vn 0.1434 0.6839 -0.7153
vn -0.4010 0.6839 0.6095
vn 0.4062 0.6839 -0.6060
vn -0.6037 0.6839 0.4096
vn 0.6072 0.6839 -0.4044
vn -0.7150 0.6839 0.1448
vn 0.7148 0.6848 -0.1416
# 21 vertex normals

vt 0.9995 0.0849 0.9995
vt 0.2772 0.0849 0.9995
vt 0.2772 0.0665 0.0005
vt 0.9995 0.0665 0.0005
vt 0.9995 0.1139 0.9995
vt 0.2754 0.1139 0.9995
vt 0.9995 0.1324 0.0005
vt 0.2758 0.1324 0.0005
vt 0.9995 0.0005 0.0005
vt 0.2772 0.0005 0.0005
vt 0.9995 0.8861 0.9995
vt 0.9561 0.8947 0.9995
vt 0.9490 0.8776 0.0005
vt 0.9995 0.8676 0.0005
vt 0.9995 0.9151 0.9995
vt 0.9672 0.9215 0.9995
vt 0.9995 0.9335 0.0005
vt 0.9743 0.9386 0.0005
vt 0.9193 0.9193 0.9995
vt 0.9062 0.9062 0.0005
vt 0.9398 0.9398 0.9995
vt 0.9529 0.9529 0.0005
vt 0.8947 0.9561 0.9995
vt 0.8776 0.9490 0.0005
vt 0.9215 0.9672 0.9995
vt 0.9386 0.9743 0.0005
vt 0.8676 0.9995 0.0005
vt 0.1324 0.9995 0.0005
vt 0.1324 0.2758 0.0005
vt 0.8861 0.9995 0.9995
vt 0.9151 0.9995 0.9995
vt 0.9335 0.9995 0.0005
vt 0.0665 0.9995 0.0005
vt 0.0005 0.9995 0.0005
vt 0.0005 0.2758 0.0005
vt 0.0665 0.2758 0.0005
vt 0.0849 0.2758 0.9995
vt 0.0849 0.9995 0.9995
vt 0.1139 0.2758 0.9995
vt 0.1139 0.9995 0.9995
vt 0.9665 0.9665 0.0005
vt 0.9995 0.9995 0.0005
vt 0.1970 0.0818 0.0005
vt 0.1681 0.0005 0.0005
vt 0.1288 0.1268 0.0005
vt 0.0005 0.0005 0.0005
vt 0.0829 0.1944 0.0005
vt 0.0005 0.1618 0.0005
vt 0.2209 0.1433 0.0005
vt 0.1433 0.2209 0.0005
vt 0.1744 0.1744 0.0005
vt 0.2041 0.0989 0.9995
vt 0.2134 0.1264 0.9995
vt 0.1418 0.1398 0.9995
vt 0.1610 0.1617 0.9995
vt 0.1000 0.2014 0.9995
vt 0.1261 0.2143 0.9995
# 57 texture coords

g Road_Desert_Turn_W
usemtl wire_198225087
s off
f 1/1/1 2/2/1 3/3/1 4/4/1 
f 5/5/2 6/6/2 2/2/2 1/1/2 
f 7/7/3 8/8/3 6/6/3 5/5/3 
f 9/9/2 4/4/2 3/3/2 10/10/2 
f 11/11/4 12/12/4 13/13/4 14/14/4 
f 15/15/2 16/16/2 12/12/2 11/11/2 
f 17/17/5 18/18/5 16/16/5 15/15/5 
f 12/12/6 19/19/6 20/20/6 13/13/6 
f 16/16/2 21/21/2 19/19/2 12/12/2 
f 18/18/7 22/22/7 21/21/7 16/16/7 
f 19/19/8 23/23/8 24/24/8 20/20/8 
f 21/21/2 25/25/2 23/23/2 19/19/2 
f 22/22/9 26/26/9 25/25/9 21/21/9 
f 24/24/2 27/27/2 28/28/2 29/29/2 
f 23/23/10 30/30/10 27/27/10 24/24/10 
f 25/25/2 31/31/2 30/30/2 23/23/2 
f 26/26/11 32/32/11 31/31/11 25/25/11 
f 33/33/2 34/34/2 35/35/2 36/36/2 
f 37/37/12 38/38/12 33/33/12 36/36/12 
f 39/39/2 40/40/2 38/38/2 37/37/2 
f 29/29/13 28/28/13 40/40/13 39/39/13 
f 26/26/2 22/22/2 41/41/2 32/32/2 
f 41/41/2 17/17/2 42/42/2 32/32/2 
f 7/7/2 14/14/2 13/13/2 8/8/2 
f 10/10/2 3/3/2 43/43/2 44/44/2 
f 43/43/2 45/45/2 46/46/2 44/44/2 
f 45/45/2 47/47/2 48/48/2 46/46/2 
f 47/47/2 36/36/2 35/35/2 48/48/2 
f 8/8/2 13/13/2 20/20/2 49/49/2 
f 29/29/2 50/50/2 20/20/2 24/24/2 
f 50/50/2 51/51/2 49/49/2 20/20/2 
f 18/18/2 17/17/2 41/41/2 22/22/2 
f 2/2/14 52/52/14 43/43/14 3/3/14 
f 6/6/2 53/53/2 52/52/2 2/2/2 
f 6/6/15 8/8/15 49/49/15 53/53/15 
f 52/52/16 54/54/16 45/45/16 43/43/16 
f 53/53/2 55/55/2 54/54/2 52/52/2 
f 53/53/17 49/49/17 51/51/17 55/55/17 
f 54/54/18 56/56/18 47/47/18 45/45/18 
f 55/55/2 57/57/2 56/56/2 54/54/2 
f 55/55/19 51/51/19 50/50/19 57/57/19 
f 56/56/20 37/37/20 36/36/20 47/47/20 
f 57/57/2 39/39/2 37/37/2 56/56/2 
f 57/57/21 50/50/21 29/29/21 39/39/21 
# 44 polygons

