# 3ds Max Wavefront OBJ Exporter v0.97b - (c)2007 guruware
# File Created: 24.07.2015 22:11:16

mtllib Road Desert Line NS.mtl

#
# object Road_Desert_Line_NS
#

v  5151.5337 0.0000 7000.0000
v  5151.5327 0.0000 -7000.0000
v  -5151.5337 0.0000 -7000.0000
v  -5151.5327 0.0000 7000.0000
v  5816.9819 270.7544 6999.9995
v  5816.9810 270.7544 -7000.0005
v  5410.3179 270.7544 -7000.0000
v  5410.3188 270.7544 7000.0000
v  -5816.9819 270.7544 -6999.9995
v  -5816.9810 270.7544 7000.0005
v  -5410.3179 270.7544 7000.0000
v  -5410.3188 270.7544 -7000.0000
v  7000.0005 0.0000 6999.9995
v  6999.9995 0.0000 -7000.0005
v  6075.7661 0.0000 -7000.0005
v  6075.7671 0.0000 6999.9995
v  -7000.0005 0.0000 -6999.9995
v  -6999.9995 0.0000 7000.0005
v  -6075.7661 0.0000 7000.0005
v  -6075.7671 0.0000 -6999.9995
# 20 vertices

vn 0.0000 1.0000 -0.0000
vn 0.7229 0.6909 -0.0000
vn -0.7229 0.6909 0.0000
# 3 vertex normals

vt 0.8676 0.0005 0.0005
vt 0.8676 0.9995 0.0005
vt 0.1324 0.9995 0.0005
vt 0.1324 0.0005 0.0005
vt 0.9151 0.0005 0.9995
vt 0.9151 0.9995 0.9995
vt 0.8861 0.9995 0.9995
vt 0.8861 0.0005 0.9995
vt 0.0849 0.9995 0.9995
vt 0.0849 0.0005 0.9995
vt 0.1139 0.0005 0.9995
vt 0.1139 0.9995 0.9995
vt 0.9995 0.0005 0.0005
vt 0.9995 0.9995 0.0005
vt 0.9335 0.9995 0.0005
vt 0.9335 0.0005 0.0005
vt 0.0005 0.9995 0.0005
vt 0.0005 0.0005 0.0005
vt 0.0665 0.0005 0.0005
vt 0.0665 0.9995 0.0005
# 20 texture coords

g Road_Desert_Line_NS
usemtl wire_198225087
s off
f 1/1/1 2/2/1 3/3/1 4/4/1 
f 5/5/1 6/6/1 7/7/1 8/8/1 
f 9/9/1 10/10/1 11/11/1 12/12/1 
f 13/13/1 14/14/1 15/15/1 16/16/1 
f 17/17/1 18/18/1 19/19/1 20/20/1 
f 16/16/2 15/15/2 6/6/2 5/5/2 
f 2/2/3 1/1/3 8/8/3 7/7/3 
f 20/20/3 19/19/3 10/10/3 9/9/3 
f 4/4/2 3/3/2 12/12/2 11/11/2 
# 9 polygons

