# Exported from Wings 3D 1.5.4
mtllib PURE_SCORE.mtl
o Plane003
#68 vertices, 64 faces
v -204.07626172 966.59670000 56.70297653
v -204.07626172 383.76870000 56.70307653
v -98.63626172 488.94220000 56.70297653
v -98.63626172 861.42310000 56.70297653
v 144.68793828 383.76860000 56.70297653
v 39.24793828 488.94220000 56.70297653
v 144.68793828 966.59660000 56.70307653
v 39.24793828 861.42300000 56.70297653
v -245.01076172 966.59660000 56.70307653
v -350.45076172 861.42310000 56.70297653
v -350.45076172 383.76860000 56.70297653
v -245.01076172 383.76860000 56.70297653
v -435.82576172 966.59660000 56.70307653
v -435.82576172 861.42310000 56.70297653
v 185.62253828 966.59650000 56.70297653
v 185.62253828 383.76850000 56.70307653
v 291.06243828 488.94200000 56.70297653
v 291.06243828 861.42290000 56.70297653
v 534.38663828 383.76840000 56.70297653
v 428.94673828 488.94200000 56.70297653
v 534.38663828 966.59640000 56.70307653
v 428.94673828 861.42290000 56.70297653
v -476.23026172 723.08480000 56.70297653
v -561.60526172 723.08480000 56.70297653
v -561.60526172 617.91130000 56.70297653
v -476.23026172 617.91140000 56.70297653
v -667.04526172 723.08480000 56.70297653
v -667.04526172 617.91130000 56.70287653
v -752.42026172 617.91130000 56.70287653
v -752.42046172 723.08480000 56.70287653
v -561.60506172 804.18220000 56.70287653
v -667.04496172 804.18210000 56.70287653
v -667.04526172 536.81410000 56.70287653
v -561.60526172 536.81400000 56.70287653
v -98.63626172 488.94220000 -56.70302347
v -204.07626172 383.76870000 -56.70292347
v -204.07596172 966.59670000 -56.70302347
v -98.63626172 861.42310000 -56.70302347
v 39.24793828 488.94220000 -56.70302347
v 144.68793828 383.76860000 -56.70302347
v 39.24793828 861.42300000 -56.70302347
v 144.68793828 966.59660000 -56.70292347
v -350.45076172 383.76870000 -56.70302347
v -350.45076172 861.42310000 -56.70302347
v -245.01076172 966.59660000 -56.70292347
v -245.01076172 383.76860000 -56.70302347
v -435.82576172 861.42310000 -56.70302347
v -435.82576172 966.59660000 -56.70292347
v 291.06243828 488.94200000 -56.70302347
v 185.62253828 383.76850000 -56.70292347
v 185.62253828 966.59640000 -56.70302347
v 291.06243828 861.42290000 -56.70302347
v 428.94673828 488.94200000 -56.70302347
v 534.38663828 383.76840000 -56.70302347
v 428.94673828 861.42290000 -56.70302347
v 534.38663828 966.59640000 -56.70292347
v -561.60526172 617.91130000 -56.70302347
v -561.60526172 723.08480000 -56.70302347
v -476.23026172 723.08480000 -56.70302347
v -476.23026172 617.91130000 -56.70302347
v -667.04526172 617.91140000 -56.70312347
v -667.04526172 723.08480000 -56.70302347
v -752.42026172 617.91140000 -56.70312347
v -752.42026172 723.08490000 -56.70312347
v -561.60506172 804.18210000 -56.70312347
v -667.04496172 804.18210000 -56.70312347
v -667.04526172 536.81420000 -56.70312347
v -561.60526172 536.81410000 -56.70312347
vt 0.0000000e+0 0.0000000e+0
vt 0.0000000e+0 0.25000000
vt 0.0000000e+0 0.50000000
vt 0.0000000e+0 1.00000000
vt 0.50000000 0.75000000
vt 1.00000000 0.0000000e+0
vt 1.00000000 0.38720000
vt 1.00000000 0.50000000
vn 4.7420339e-7 1.0467818e-7 1.00000000
vn -2.0548736e-7 -4.7540447e-7 1.00000000
vn -1.00000000 2.5736558e-7 -1.3226813e-6
vn 2.8672680e-7 1.00000000 3.7924819e-13
vn 4.7420339e-7 1.0467818e-7 1.00000000
vn 2.0548726e-7 4.7540470e-7 1.00000000
vn -1.00000000 2.5736558e-7 -1.3226813e-6
vn -2.8672668e-7 -1.00000000 0.0000000e+0
vn 4.7420339e-7 1.0467818e-7 1.00000000
vn 2.0548726e-7 4.7540470e-7 1.00000000
vn 1.00000000 0.0000000e+0 0.0000000e+0
vn 0.0000000e+0 1.00000000 0.0000000e+0
vn 4.7420339e-7 1.0467818e-7 1.00000000
vn -2.0548736e-7 -4.7540447e-7 1.00000000
vn 1.00000000 0.0000000e+0 0.0000000e+0
vn -7.2524626e-7 -1.00000000 0.0000000e+0
vn 2.0548726e-7 4.7540470e-7 1.00000000
vn -4.7420334e-7 -1.0467819e-7 1.00000000
vn -2.8672668e-7 -1.00000000 0.0000000e+0
vn 1.00000000 0.0000000e+0 0.0000000e+0
vn 2.0548726e-7 4.7540470e-7 1.00000000
vn -4.7420334e-7 -1.0467819e-7 1.00000000
vn 0.0000000e+0 1.00000000 0.0000000e+0
vn -1.00000000 0.0000000e+0 0.0000000e+0
vn -4.7420334e-7 -1.0467819e-7 1.00000000
vn -2.0548736e-7 -4.7540447e-7 1.00000000
vn 1.00000000 0.0000000e+0 0.0000000e+0
vn 2.8672680e-7 1.00000000 3.7924819e-13
vn -4.7420334e-7 -1.0467819e-7 1.00000000
vn -2.0548736e-7 -4.7540447e-7 1.00000000
vn -1.00000000 0.0000000e+0 0.0000000e+0
vn -7.2524626e-7 -1.00000000 0.0000000e+0
vn -4.2717416e-7 -9.4296700e-8 1.00000000
vn 0.0000000e+0 -9.5080985e-7 1.00000000
vn 1.00000000 0.0000000e+0 0.0000000e+0
vn 0.0000000e+0 1.00000000 0.0000000e+0
vn -4.2717416e-7 -9.4296700e-8 1.00000000
vn 0.0000000e+0 -9.5080985e-7 1.00000000
vn -1.00000000 0.0000000e+0 0.0000000e+0
vn 0.0000000e+0 -1.00000000 0.0000000e+0
vn -4.2717416e-7 -9.4296700e-8 1.00000000
vn -4.7420334e-7 -1.00000000 -4.4089378e-7
vn -1.00000000 0.0000000e+0 0.0000000e+0
vn -4.2717416e-7 -9.4296700e-8 1.00000000
vn -4.7420334e-7 -1.00000000 -4.4089378e-7
vn 1.00000000 0.0000000e+0 0.0000000e+0
vn 0.0000000e+0 -9.5080985e-7 1.00000000
vn 0.0000000e+0 1.00000000 0.0000000e+0
vn -1.00000000 0.0000000e+0 0.0000000e+0
vn 0.0000000e+0 -9.5080985e-7 1.00000000
vn -1.00000000 0.0000000e+0 0.0000000e+0
vn 0.0000000e+0 -1.00000000 0.0000000e+0
vn 4.7420384e-7 1.0467818e-7 1.00000000
vn -2.0548726e-7 -4.7540470e-7 1.00000000
vn -1.00000000 0.0000000e+0 0.0000000e+0
vn 1.4336351e-7 1.00000000 -4.4089378e-7
vn 4.7420384e-7 1.0467818e-7 1.00000000
vn 2.0548726e-7 4.7540470e-7 1.00000000
vn -1.00000000 0.0000000e+0 0.0000000e+0
vn -2.8672676e-7 -1.00000000 0.0000000e+0
vn 4.7420384e-7 1.0467818e-7 1.00000000
vn 2.0548726e-7 4.7540470e-7 1.00000000
vn 1.00000000 0.0000000e+0 0.0000000e+0
vn 0.0000000e+0 1.00000000 0.0000000e+0
vn 4.7420384e-7 1.0467818e-7 1.00000000
vn -2.0548726e-7 -4.7540470e-7 1.00000000
vn 1.00000000 0.0000000e+0 0.0000000e+0
vn 0.0000000e+0 -1.00000000 0.0000000e+0
vn 2.0548726e-7 4.7540470e-7 1.00000000
vn -4.7420384e-7 -1.0467818e-7 1.00000000
vn -2.8672676e-7 -1.00000000 0.0000000e+0
vn 1.00000000 0.0000000e+0 0.0000000e+0
vn 2.0548726e-7 4.7540470e-7 1.00000000
vn -4.7420384e-7 -1.0467818e-7 1.00000000
vn 0.0000000e+0 1.00000000 0.0000000e+0
vn -1.00000000 0.0000000e+0 0.0000000e+0
vn -4.7420384e-7 -1.0467818e-7 1.00000000
vn -2.0548726e-7 -4.7540470e-7 1.00000000
vn 1.00000000 0.0000000e+0 0.0000000e+0
vn 1.4336351e-7 1.00000000 -4.4089378e-7
vn -4.7420384e-7 -1.0467818e-7 1.00000000
vn -2.0548726e-7 -4.7540470e-7 1.00000000
vn -1.00000000 0.0000000e+0 0.0000000e+0
vn 0.0000000e+0 -1.00000000 0.0000000e+0
vn 0.0000000e+0 0.0000000e+0 1.00000000
vn 1.00000000 0.0000000e+0 0.0000000e+0
vn 0.0000000e+0 1.00000000 0.0000000e+0
vn 0.0000000e+0 0.0000000e+0 1.00000000
vn -4.7420334e-7 -4.7540493e-7 1.00000000
vn -5.8473373e-13 1.2330859e-6 1.00000000
vn 0.0000000e+0 1.00000000 0.0000000e+0
vn 1.00000000 -2.4661718e-6 1.0873198e-12
vn 0.0000000e+0 0.0000000e+0 1.00000000
vn -4.7420334e-7 -4.7540493e-7 1.00000000
vn -4.7420363e-7 -6.1654372e-7 1.00000000
vn 5.8565154e-7 -1.00000000 4.4089378e-7
vn 1.00000000 0.0000000e+0 0.0000000e+0
vn 0.0000000e+0 0.0000000e+0 1.00000000
vn 5.8565154e-7 -1.00000000 4.4089378e-7
vn 1.00000000 0.0000000e+0 0.0000000e+0
vn -4.7420334e-7 -4.7540493e-7 1.00000000
vn -5.8565085e-7 -4.7540548e-7 1.00000000
vn -5.8473373e-13 1.2330859e-6 1.00000000
vn 5.8565033e-7 1.00000000 4.4089430e-7
vn -1.00000000 3.6992600e-6 0.0000000e+0
vn -4.7420334e-7 -4.7540493e-7 1.00000000
vn -5.8565085e-7 -4.7540548e-7 1.00000000
vn -4.7420363e-7 -6.1654372e-7 1.00000000
vn 0.0000000e+0 -1.00000000 -8.8178756e-7
vn -1.00000000 0.0000000e+0 0.0000000e+0
vn -5.8565085e-7 -4.7540548e-7 1.00000000
vn -1.00000000 -9.5080985e-7 -8.8178840e-7
vn 0.0000000e+0 -1.00000000 -8.8178756e-7
vn -5.8565085e-7 -4.7540548e-7 1.00000000
vn 5.8565033e-7 1.00000000 4.4089430e-7
vn -1.00000000 -9.5080985e-7 -8.8178840e-7
vn -5.8473373e-13 1.2330859e-6 1.00000000
vn -4.7420379e-7 1.00000000 -4.4089378e-7
vn 1.00000000 -2.4661718e-6 1.0873198e-12
vn -5.8473373e-13 1.2330859e-6 1.00000000
vn -4.7420379e-7 1.00000000 -4.4089378e-7
vn -1.00000000 3.6992600e-6 0.0000000e+0
vn -4.7420363e-7 -6.1654372e-7 1.00000000
vn -9.4840668e-7 -1.00000000 -8.8178756e-7
vn -1.00000000 0.0000000e+0 0.0000000e+0
vn -4.7420363e-7 -6.1654372e-7 1.00000000
vn -9.4840668e-7 -1.00000000 -8.8178756e-7
vn 1.00000000 0.0000000e+0 0.0000000e+0
vn -4.7420406e-7 -1.0467803e-7 -1.00000000
vn -2.0548726e-7 -4.7540470e-7 -1.00000000
vn 1.00000000 0.0000000e+0 0.0000000e+0
vn 0.0000000e+0 1.00000000 0.0000000e+0
vn -4.7420406e-7 -1.0467803e-7 -1.00000000
vn -2.0548726e-7 -4.7540470e-7 -1.00000000
vn -1.00000000 2.5736558e-7 -1.3226813e-6
vn -2.8672668e-7 -1.00000000 0.0000000e+0
vn -4.7420406e-7 -1.0467803e-7 -1.00000000
vn 2.0548749e-7 4.7540418e-7 -1.00000000
vn -1.00000000 2.5736558e-7 -1.3226813e-6
vn 2.8672680e-7 1.00000000 3.7924819e-13
vn -4.7420406e-7 -1.0467803e-7 -1.00000000
vn 2.0548749e-7 4.7540418e-7 -1.00000000
vn 1.00000000 0.0000000e+0 0.0000000e+0
vn -7.2524626e-7 -1.00000000 0.0000000e+0
vn -2.0548726e-7 -4.7540470e-7 -1.00000000
vn 4.7420334e-7 1.0467819e-7 -1.00000000
vn 0.0000000e+0 1.00000000 0.0000000e+0
vn -1.00000000 0.0000000e+0 0.0000000e+0
vn -2.0548726e-7 -4.7540470e-7 -1.00000000
vn 4.7420334e-7 1.0467819e-7 -1.00000000
vn -2.8672668e-7 -1.00000000 0.0000000e+0
vn 1.00000000 0.0000000e+0 0.0000000e+0
vn 4.7420334e-7 1.0467819e-7 -1.00000000
vn 2.0548749e-7 4.7540418e-7 -1.00000000
vn -1.00000000 0.0000000e+0 0.0000000e+0
vn -7.2524626e-7 -1.00000000 0.0000000e+0
vn 4.7420334e-7 1.0467819e-7 -1.00000000
vn 2.0548749e-7 4.7540418e-7 -1.00000000
vn 1.00000000 0.0000000e+0 0.0000000e+0
vn 2.8672680e-7 1.00000000 3.7924819e-13
vn 4.2717420e-7 9.4296709e-8 -1.00000000
vn -4.7420334e-7 -1.00000000 -4.4089378e-7
vn -1.00000000 0.0000000e+0 0.0000000e+0
vn 4.2717420e-7 9.4296709e-8 -1.00000000
vn 0.0000000e+0 9.5080985e-7 -1.00000000
vn -1.00000000 0.0000000e+0 0.0000000e+0
vn 0.0000000e+0 -1.00000000 0.0000000e+0
vn 4.2717420e-7 9.4296709e-8 -1.00000000
vn 0.0000000e+0 9.5080985e-7 -1.00000000
vn 1.00000000 0.0000000e+0 0.0000000e+0
vn 0.0000000e+0 1.00000000 0.0000000e+0
vn 4.2717420e-7 9.4296709e-8 -1.00000000
vn -4.7420334e-7 -1.00000000 -4.4089378e-7
vn 1.00000000 0.0000000e+0 0.0000000e+0
vn 0.0000000e+0 9.5080985e-7 -1.00000000
vn -1.00000000 0.0000000e+0 0.0000000e+0
vn 0.0000000e+0 -1.00000000 0.0000000e+0
vn 0.0000000e+0 9.5080985e-7 -1.00000000
vn 0.0000000e+0 1.00000000 0.0000000e+0
vn -1.00000000 0.0000000e+0 0.0000000e+0
vn -4.7420379e-7 -1.0467819e-7 -1.00000000
vn -2.0548726e-7 -4.7540470e-7 -1.00000000
vn 1.00000000 0.0000000e+0 0.0000000e+0
vn 0.0000000e+0 1.00000000 0.0000000e+0
vn -4.7420379e-7 -1.0467819e-7 -1.00000000
vn -2.0548726e-7 -4.7540470e-7 -1.00000000
vn -1.00000000 0.0000000e+0 0.0000000e+0
vn -2.8672676e-7 -1.00000000 0.0000000e+0
vn -4.7420379e-7 -1.0467819e-7 -1.00000000
vn 2.0548716e-7 4.7540493e-7 -1.00000000
vn -1.00000000 0.0000000e+0 0.0000000e+0
vn 1.4336351e-7 1.00000000 -4.4089378e-7
vn -4.7420379e-7 -1.0467819e-7 -1.00000000
vn 2.0548716e-7 4.7540493e-7 -1.00000000
vn 1.00000000 0.0000000e+0 0.0000000e+0
vn 0.0000000e+0 -1.00000000 0.0000000e+0
vn -2.0548726e-7 -4.7540470e-7 -1.00000000
vn 4.7420384e-7 1.0467818e-7 -1.00000000
vn 0.0000000e+0 1.00000000 0.0000000e+0
vn -1.00000000 0.0000000e+0 0.0000000e+0
vn -2.0548726e-7 -4.7540470e-7 -1.00000000
vn 4.7420384e-7 1.0467818e-7 -1.00000000
vn -2.8672676e-7 -1.00000000 0.0000000e+0
vn 1.00000000 0.0000000e+0 0.0000000e+0
vn 4.7420384e-7 1.0467818e-7 -1.00000000
vn 2.0548716e-7 4.7540493e-7 -1.00000000
vn -1.00000000 0.0000000e+0 0.0000000e+0
vn 0.0000000e+0 -1.00000000 0.0000000e+0
vn 4.7420384e-7 1.0467818e-7 -1.00000000
vn 2.0548716e-7 4.7540493e-7 -1.00000000
vn 1.00000000 0.0000000e+0 0.0000000e+0
vn 1.4336351e-7 1.00000000 -4.4089378e-7
vn 0.0000000e+0 0.0000000e+0 -1.00000000
vn 4.7420356e-7 4.7540515e-7 -1.00000000
vn 4.7420392e-7 6.1654410e-7 -1.00000000
vn 5.8565154e-7 -1.00000000 4.4089378e-7
vn 1.00000000 0.0000000e+0 0.0000000e+0
vn 0.0000000e+0 0.0000000e+0 -1.00000000
vn 4.7420356e-7 4.7540515e-7 -1.00000000
vn 0.0000000e+0 -1.2330867e-6 -1.00000000
vn 0.0000000e+0 1.00000000 0.0000000e+0
vn 1.00000000 -2.4661718e-6 1.0873198e-12
vn 0.0000000e+0 0.0000000e+0 -1.00000000
vn 1.00000000 0.0000000e+0 0.0000000e+0
vn 0.0000000e+0 1.00000000 0.0000000e+0
vn 0.0000000e+0 0.0000000e+0 -1.00000000
vn 5.8565154e-7 -1.00000000 4.4089378e-7
vn 1.00000000 0.0000000e+0 0.0000000e+0
vn 4.7420356e-7 4.7540515e-7 -1.00000000
vn 5.8565182e-7 4.7540515e-7 -1.00000000
vn 4.7420392e-7 6.1654410e-7 -1.00000000
vn 0.0000000e+0 -1.00000000 -8.8178756e-7
vn -1.00000000 0.0000000e+0 0.0000000e+0
vn 4.7420356e-7 4.7540515e-7 -1.00000000
vn 5.8565182e-7 4.7540515e-7 -1.00000000
vn 0.0000000e+0 -1.2330867e-6 -1.00000000
vn 5.8565033e-7 1.00000000 4.4089430e-7
vn -1.00000000 3.6992600e-6 0.0000000e+0
vn 5.8565182e-7 4.7540515e-7 -1.00000000
vn -1.00000000 -9.5080985e-7 -8.8178840e-7
vn 0.0000000e+0 -1.00000000 -8.8178756e-7
vn 5.8565182e-7 4.7540515e-7 -1.00000000
vn 5.8565033e-7 1.00000000 4.4089430e-7
vn -1.00000000 -9.5080985e-7 -8.8178840e-7
vn 0.0000000e+0 -1.2330867e-6 -1.00000000
vn -4.7420379e-7 1.00000000 -4.4089378e-7
vn 1.00000000 -2.4661718e-6 1.0873198e-12
vn 0.0000000e+0 -1.2330867e-6 -1.00000000
vn -4.7420379e-7 1.00000000 -4.4089378e-7
vn -1.00000000 3.6992600e-6 0.0000000e+0
vn 4.7420392e-7 6.1654410e-7 -1.00000000
vn -9.4840668e-7 -1.00000000 -8.8178756e-7
vn -1.00000000 0.0000000e+0 0.0000000e+0
vn 4.7420392e-7 6.1654410e-7 -1.00000000
vn -9.4840668e-7 -1.00000000 -8.8178756e-7
vn 1.00000000 0.0000000e+0 0.0000000e+0
g Plane003_wire_225198087
usemtl wire_225198087
s 1
f 1/1/3 37/1/139 36/8/135 2/8/7
f 3/3/11 35/3/131 38/2/143 4/2/15
f 5/1/18 7/8/25 8/3/29 6/2/22
f 9/8/34 13/4/47 14/3/50 10/3/38
f 11/1/42 43/1/162 46/6/173 12/6/45
f 16/8/57 17/3/61 18/2/65 15/1/53
f 16/8/60 50/8/188 54/4/203 19/4/71
f 21/8/80 56/8/212 51/4/192 15/4/56
f 22/3/83 55/3/207 53/2/200 20/2/76
f 24/3/92 58/3/222 65/1/247 31/1/119
f 26/4/100 60/4/228 59/3/224 23/3/86
f 27/5/102 30/4/114 29/3/111 28/3/107
f 28/3/110 61/3/233 67/1/253 33/1/125
f 32/6/122 66/6/250 62/7/238 27/7/105
f 34/6/128 68/6/256 57/7/217 25/7/97
f 39/2/146 41/3/153 42/8/157 40/1/150
f 44/3/165 47/3/175 48/4/178 45/8/169
f 50/8/185 51/1/189 52/2/193 49/3/181
f 61/3/230 63/3/239 64/4/242 62/5/235
s 2
f 2/8/5 3/3/9 4/2/13 1/1/1
f 4/3/16 38/3/144 41/3/156 8/3/32
f 5/1/20 40/1/152 42/8/159 7/8/27
f 6/3/23 39/3/147 35/3/132 3/3/12
f 10/3/37 11/1/41 12/6/44 9/8/33
f 13/4/49 48/4/180 47/3/176 14/3/51
f 15/1/55 51/1/191 50/8/187 16/8/59
f 16/8/58 19/4/69 20/3/73 17/3/62
f 18/3/68 52/3/196 55/3/208 22/3/84
f 19/1/72 54/1/204 56/8/211 21/8/79
f 24/3/88 25/5/93 26/4/98 23/3/85
f 24/3/90 31/1/117 32/6/120 27/7/103
f 27/5/104 62/5/237 64/4/243 30/4/115
f 28/3/108 33/1/123 34/6/126 25/7/95
f 29/3/113 63/3/241 61/3/232 28/3/109
f 36/8/133 37/1/137 38/2/141 35/3/129
f 44/3/164 45/8/168 46/6/172 43/1/161
f 49/3/182 53/3/197 54/4/201 50/8/186
f 57/7/215 68/6/254 67/1/251 61/3/231
f 58/3/218 59/3/223 60/4/226 57/5/213
f 62/7/236 66/6/248 65/1/245 58/3/220
s 3
f 2/8/8 36/8/136 40/4/151 5/4/19
f 4/3/14 8/3/30 7/8/26 1/4/2
f 8/3/31 41/3/155 39/2/148 6/2/24
f 12/6/46 46/6/174 45/8/170 9/8/35
f 14/3/52 47/3/177 44/3/167 10/3/40
f 17/3/63 49/3/183 52/2/195 18/2/67
f 18/3/66 22/3/82 21/8/78 15/4/54
f 23/3/87 59/3/225 58/3/221 24/3/91
f 24/8/89 27/5/101 28/3/106 25/7/94
f 25/5/96 57/5/216 60/4/227 26/4/99
f 30/4/116 64/4/244 63/3/240 29/3/112
f 31/1/118 65/1/246 66/6/249 32/6/121
f 33/1/124 67/1/252 68/6/255 34/6/127
f 37/4/138 42/8/158 41/3/154 38/3/142
f 53/2/198 55/3/205 56/8/209 54/1/202
f 57/7/214 61/3/229 62/5/234 58/8/219
s 4
f 2/8/6 5/4/17 6/3/21 3/3/10
f 7/8/28 42/8/160 37/4/140 1/4/4
f 9/8/36 45/8/171 48/4/179 13/4/48
f 10/3/39 44/3/166 43/1/163 11/1/43
f 19/1/70 21/8/77 22/3/81 20/2/74
f 20/3/75 53/3/199 49/3/184 17/3/64
f 35/3/130 39/3/145 40/4/149 36/8/134
f 51/4/190 56/8/210 55/3/206 52/3/194
