# Blender v2.74 (sub 0) OBJ File: ''
# www.blender.org
mtllib untitled-scene.mtl
o fantabulous_trug_bojo__1__obj_1
v -1654.400024 1199.600098 0.000000
v -1345.599976 2274.799805 0.000000
v -727.200012 1825.600098 0.000000
v -1037.199951 3350.000000 0.000000
v -1654.400024 1199.600098 100.000000
v -1654.400024 1199.600098 200.050003
v -1345.599976 2274.799805 200.050003
v 964.400024 4804.399902 200.050003
v 582.399963 5855.200195 200.050003
v -182.399994 5855.200195 200.050003
v 200.000000 6906.399902 200.050003
v 1437.199951 3350.000000 200.050003
v 2082.399902 4765.600098 200.050003
v -1037.199951 3350.000000 200.050003
v 200.000000 2451.199951 100.000000
v 2054.400146 1199.600098 200.050003
v 1745.599976 2274.799805 200.050003
v 1127.200073 1825.600098 200.050003
v 200.000000 2451.199951 200.050003
v 964.400024 4804.399902 0.000000
v -564.400024 4804.399902 0.000000
v 582.399963 5855.200195 0.000000
v -182.399994 5855.200195 0.000000
v 200.000000 6906.399902 0.000000
v 2318.800049 4038.399902 0.000000
v 1437.199951 3350.000000 0.000000
v 2082.399902 4765.600098 0.000000
v 3200.000000 4726.799805 0.000000
v 200.000000 2451.199951 0.000000
v 3200.000000 4726.799805 200.050003
v 2318.800049 4038.399902 200.050003
v -564.400024 4804.399902 200.050003
v 2054.400146 1199.600098 0.000000
v 1127.200073 1825.600098 0.000000
v 1745.599976 2274.799805 0.000000
v -727.200012 1825.600098 200.050003
v -2800.399902 4726.799805 0.000000
v -2800.399902 4726.799805 200.050003
v -564.400024 4804.399902 100.000000
v 200.000000 6906.399902 100.000000
v 2054.400146 1199.600098 100.000000
v 3200.000000 4726.799805 100.000000
v 1437.199951 3350.000000 100.000000
vn 0.000000 0.000000 -1.000000
vn -0.961100 0.276000 0.000000
vn 0.000000 0.000000 1.000000
vn -0.961200 0.275700 0.000000
vn 0.559400 -0.828900 -0.001700
vn 0.559400 -0.828900 0.001700
vn -0.034700 0.999400 0.000000
vn 0.559600 -0.828800 0.000000
vn -0.939800 0.341900 0.000000
vn -0.615400 -0.788200 0.000000
vn -0.939800 0.341800 -0.001200
vn -0.939800 0.341700 0.000000
vn 0.961100 0.276000 0.000000
vn -0.939800 0.341800 0.001200
vn 0.559300 -0.829000 0.000000
vn 0.615600 -0.788000 0.000000
vn 0.961200 0.275700 0.000000
vn 0.615400 -0.788200 0.000000
vn 0.615500 -0.788100 -0.001200
vn 0.939800 0.341700 0.000000
vn 0.615500 -0.788100 0.001200
vn 0.939800 0.341900 0.000000
vn 0.034700 0.999400 0.000000
vn -0.559600 -0.828800 0.000000
vn -0.559400 -0.828900 -0.001700
vn -0.559400 -0.828900 0.001700
vn -0.559300 -0.829000 0.000000
usemtl RAL_2007
s off
f 1//1 2//1 3//1
f 3//1 2//1 4//1
f 2//2 1//2 5//2
f 6//2 7//2 5//2
f 2//2 5//2 7//2
f 8//3 9//3 10//3
f 11//3 10//3 9//3
f 8//3 12//3 13//3
f 4//4 2//4 7//4
f 4//4 7//4 14//4
f 5//5 3//5 15//5
f 16//3 17//3 18//3
f 17//3 12//3 18//3
f 19//3 18//3 12//3
f 20//1 21//1 22//1
f 23//1 24//1 22//1
f 23//1 22//1 21//1
f 25//1 26//1 27//1
f 28//1 25//1 27//1
f 20//1 27//1 26//1
f 20//1 29//1 21//1
f 30//3 13//3 31//3
f 12//3 31//3 13//3
f 12//3 8//3 19//3
f 8//3 32//3 19//3
f 33//1 34//1 35//1
f 29//1 26//1 34//1
f 3//1 4//1 29//1
f 32//3 8//3 10//3
f 35//1 34//1 26//1
f 4//1 21//1 29//1
f 26//1 29//1 20//1
f 19//3 14//3 36//3
f 37//1 21//1 4//1
f 15//6 36//6 5//6
f 38//7 39//7 37//7
f 3//8 5//8 1//8
f 5//8 36//8 6//8
f 40//9 10//9 11//9
f 38//10 37//10 14//10
f 21//7 37//7 39//7
f 32//7 39//7 38//7
f 7//3 36//3 14//3
f 6//3 36//3 7//3
f 40//11 39//11 10//11
f 14//3 32//3 38//3
f 14//3 19//3 32//3
f 39//12 32//12 10//12
f 40//9 24//9 23//9
f 16//13 41//13 17//13
f 35//13 17//13 41//13
f 39//14 40//14 23//14
f 15//15 3//15 29//15
f 42//16 30//16 31//16
f 15//15 19//15 36//15
f 17//17 35//17 43//17
f 25//16 28//16 42//16
f 43//18 31//18 12//18
f 25//18 43//18 26//18
f 42//19 31//19 43//19
f 9//20 8//20 22//20
f 20//20 22//20 8//20
f 42//21 43//21 25//21
f 22//22 40//22 9//22
f 24//22 40//22 22//22
f 11//22 9//22 40//22
f 12//17 17//17 43//17
f 26//17 43//17 35//17
f 30//23 42//23 13//23
f 27//23 13//23 42//23
f 28//23 27//23 42//23
f 27//23 20//23 8//23
f 27//23 8//23 13//23
f 34//24 33//24 41//24
f 4//10 14//10 37//10
f 23//12 21//12 39//12
f 34//25 41//25 15//25
f 41//24 16//24 18//24
f 41//26 18//26 15//26
f 33//13 35//13 41//13
f 29//27 34//27 15//27
f 15//27 18//27 19//27
