# 3ds Max Wavefront OBJ Exporter v0.97b - (c)2007 guruware
# File Created: 28.10.2015 00:45:05

mtllib SpaceRoadCrossway.mtl

#
# object SpaceRoadCrossway
#

v  7000.0010 0.0006 -5092.9443
v  6292.6245 0.0005 -5292.2388
v  7000.0000 0.0006 0.0006
v  7000.0005 -2583.1707 -6999.9995
v  -0.0001 -2583.1716 0.0001
v  0.0006 -2583.1714 -7000.0000
v  5292.2417 0.0005 -6292.6221
v  0.0006 0.0000 -7000.0000
v  -0.0003 0.0000 0.0003
v  5692.9390 0.0005 -5692.9360
v  5123.1685 251.3861 -6999.9995
v  5292.2417 251.3862 -6292.6221
v  5692.9390 251.3862 -5692.9360
v  7000.0005 251.3862 -6999.9995
v  6292.6245 251.3862 -5292.2388
v  7000.0010 251.3863 -5092.9443
v  5123.1685 0.0004 -6999.9995
v  7000.0000 -2583.1709 0.0006
v  -7000.0000 0.0006 -5092.9453
v  -7000.0000 0.0006 -0.0006
v  -6292.6235 0.0005 -5292.2397
v  -6999.9995 -2583.1707 -7000.0005
v  -5292.2407 0.0005 -6292.6230
v  -5692.9380 0.0005 -5692.9370
v  -5092.9434 251.3861 -7000.0005
v  -6999.9995 251.3862 -7000.0005
v  -5692.9380 251.3862 -5692.9370
v  -5292.2407 251.3862 -6292.6230
v  -7000.0000 251.3863 -5092.9453
v  -6292.6235 251.3862 -5292.2397
v  -5092.9434 0.0005 -7000.0005
v  -7000.0000 -2583.1709 -0.0006
v  7000.0000 0.0006 5123.1689
v  6292.6235 0.0005 5292.2397
v  6999.9995 -2583.1707 7000.0005
v  -0.0006 -2583.1714 7000.0000
v  -0.0006 0.0000 7000.0000
v  5292.2407 0.0005 6292.6230
v  5692.9380 0.0005 5692.9370
v  5123.1675 251.3861 7000.0005
v  6999.9995 251.3862 7000.0005
v  5692.9380 251.3862 5692.9370
v  5292.2407 251.3862 6292.6230
v  7000.0000 251.3863 5123.1689
v  6292.6235 251.3862 5292.2397
v  5123.1675 0.0004 7000.0005
v  -7000.0010 0.0006 5123.1680
v  -6292.6245 0.0005 5292.2388
v  -7000.0005 -2583.1707 6999.9995
v  -5292.2417 0.0005 6292.6221
v  -5692.9390 0.0005 5692.9360
v  -5092.9453 251.3861 6999.9995
v  -5292.2417 251.3862 6292.6221
v  -5692.9390 251.3862 5692.9360
v  -7000.0005 251.3862 6999.9995
v  -6292.6245 251.3862 5292.2388
v  -7000.0010 251.3863 5123.1680
v  -5092.9453 0.0005 6999.9995
# 58 vertices

vn -0.0000 1.0000 -0.0000
vn 0.0000 -1.0000 -0.0000
vn -0.9726 0.0000 0.2325
vn -0.5556 0.0000 0.8315
vn -0.2712 0.0000 0.9625
vn -0.8315 0.0000 0.5556
vn -0.0000 1.0000 0.0000
vn 0.0000 1.0000 -0.0000
vn -0.0000 -1.0000 -0.0000
vn 0.9625 0.0000 0.2712
vn 0.5556 0.0000 0.8315
vn 0.2712 0.0000 0.9625
vn 0.8315 0.0000 0.5556
vn 0.0000 1.0000 0.0000
vn 0.0000 -1.0000 0.0000
vn -0.9726 0.0000 -0.2325
vn -0.5556 0.0000 -0.8315
vn -0.2325 0.0000 -0.9726
vn -0.8315 0.0000 -0.5556
vn -0.0000 -1.0000 0.0000
vn 0.9625 0.0000 -0.2712
vn 0.5556 0.0000 -0.8315
vn 0.2325 0.0000 -0.9726
vn 0.8315 0.0000 -0.5556
# 24 vertex normals

vt 0.0169 0.2621 0.0000
vt 0.0541 0.2533 0.0000
vt 0.0169 0.5314 0.0000
vt 0.0069 0.9927 0.0000
vt 0.0471 0.9526 0.0000
vt 0.0471 0.9927 0.0000
vt 0.1066 0.2007 0.0000
vt 0.3848 0.1635 0.0000
vt 0.3848 0.5314 0.0000
vt 0.0856 0.2322 0.0000
vt 0.1085 0.1581 0.0000
vt 0.0997 0.1949 0.0000
vt 0.0789 0.2261 0.0000
vt 0.0109 0.1581 0.0000
vt 0.0477 0.2470 0.0000
vt 0.0109 0.2558 0.0000
vt 0.1155 0.1635 0.0000
vt 0.0069 0.9526 0.0000
# 18 texture coords

g SpaceRoadCrossway
usemtl wire_027177148
s off
f 1/1/1 2/2/1 3/3/1 
f 4/4/2 5/5/2 6/6/2 
f 7/7/1 8/8/1 9/9/1 10/10/1 
f 11/11/1 12/12/1 13/13/1 14/14/1 
f 13/13/1 15/15/1 16/16/1 14/14/1 
f 17/17/3 7/7/3 12/12/3 11/11/3 
f 10/10/4 2/2/4 15/15/4 13/13/4 
f 2/2/5 1/1/5 16/16/5 15/15/5 
f 7/7/6 10/10/6 13/13/6 12/12/6 
f 4/4/2 18/18/2 5/5/2 
f 7/7/7 17/17/7 8/8/7 
f 10/10/7 9/9/7 3/3/7 2/2/7 
f 19/1/8 20/3/8 21/2/8 
f 22/4/9 6/6/9 5/5/9 
f 9/9/8 8/8/8 23/7/8 24/10/8 
f 25/11/8 26/14/8 27/13/8 28/12/8 
f 27/13/8 26/14/8 29/16/8 30/15/8 
f 31/17/10 25/11/10 28/12/10 23/7/10 
f 24/10/11 27/13/11 30/15/11 21/2/11 
f 21/2/12 30/15/12 29/16/12 19/1/12 
f 23/7/13 28/12/13 27/13/13 24/10/13 
f 22/4/9 5/5/9 32/18/9 
f 23/7/14 8/8/14 31/17/14 
f 24/10/14 21/2/14 20/3/14 9/9/14 
f 33/1/1 3/3/1 34/2/1 
f 35/4/15 36/6/15 5/5/15 
f 9/9/7 37/8/7 38/7/7 39/10/7 
f 40/11/7 41/14/7 42/13/7 43/12/7 
f 42/13/7 41/14/7 44/16/7 45/15/7 
f 46/17/16 40/11/16 43/12/16 38/7/16 
f 39/10/17 42/13/17 45/15/17 34/2/17 
f 34/2/18 45/15/18 44/16/18 33/1/18 
f 38/7/19 43/12/19 42/13/19 39/10/19 
f 35/4/15 5/5/15 18/18/15 
f 38/7/1 37/8/1 46/17/1 
f 39/10/1 34/2/1 3/3/1 9/9/1 
f 47/1/14 48/2/14 20/3/14 
f 49/4/20 5/5/20 36/6/20 
f 50/7/14 37/8/14 9/9/14 51/10/14 
f 52/11/14 53/12/14 54/13/14 55/14/14 
f 54/13/14 56/15/14 57/16/14 55/14/14 
f 58/17/21 50/7/21 53/12/21 52/11/21 
f 51/10/22 48/2/22 56/15/22 54/13/22 
f 48/2/23 47/1/23 57/16/23 56/15/23 
f 50/7/24 51/10/24 54/13/24 53/12/24 
f 49/4/20 32/18/20 5/5/20 
f 50/7/8 58/17/8 37/8/8 
f 51/10/8 9/9/8 20/3/8 48/2/8 
# 32 polygons - 16 triangles

