# 3ds Max Wavefront OBJ Exporter v0.97b - (c)2007 guruware
# File Created: 28.10.2015 00:44:09

mtllib SpaceRoadCrosswayT.mtl

#
# object SpaceRoadCrosswayT
#

v  7000.0005 0.0011 5123.1685
v  6999.9995 0.0002 -5092.9448
v  6292.6240 0.0010 5292.2393
v  7000.0000 -2583.1719 -7000.0000
v  0.0000 -2583.1724 -7000.0000
v  0.0000 251.3859 -7000.0000
v  7000.0000 251.3862 -7000.0000
v  5123.1680 251.3867 7000.0000
v  7000.0000 251.3868 7000.0000
v  5692.9385 251.3867 5692.9365
v  5292.2412 251.3867 6292.6226
v  7000.0005 251.3867 5123.1685
v  6292.6240 251.3867 5292.2393
v  5123.1680 0.0011 7000.0000
v  5292.2412 0.0010 6292.6226
v  5692.9385 0.0010 5692.9365
v  0.0000 251.3862 -5092.9443
v  6999.9995 251.3870 -5092.9448
v  0.0000 -0.0004 -5092.9443
v  0.0000 -2583.1707 7000.0000
v  7000.0000 -2583.1699 7000.0000
v  -7000.0005 0.0011 5123.1685
v  -6292.6240 0.0010 5292.2393
v  -6999.9995 0.0002 -5092.9448
v  -7000.0000 -2583.1719 -7000.0000
v  -7000.0000 251.3862 -7000.0000
v  -5123.1680 251.3867 7000.0000
v  -5292.2412 251.3867 6292.6226
v  -5692.9385 251.3867 5692.9365
v  -7000.0000 251.3868 7000.0000
v  -6292.6240 251.3867 5292.2393
v  -7000.0005 251.3867 5123.1685
v  -5123.1680 0.0011 7000.0000
v  -5292.2412 0.0010 6292.6226
v  -5692.9385 0.0010 5692.9365
v  0.0000 0.0006 7000.0000
v  -6999.9995 251.3870 -5092.9448
v  -7000.0000 -2583.1699 7000.0000
# 38 vertices

vn -0.0000 1.0000 -0.0000
vn 0.0000 0.0000 -1.0000
vn -0.9726 0.0000 -0.2325
vn -0.5556 0.0000 -0.8315
vn -0.2325 0.0000 -0.9726
vn -0.8315 0.0000 -0.5556
vn 0.0000 0.0000 1.0000
vn 0.0000 -1.0000 0.0000
vn 0.0000 1.0000 -0.0000
vn 0.9726 0.0000 -0.2325
vn 0.5556 0.0000 -0.8315
vn 0.2325 0.0000 -0.9726
vn 0.8315 0.0000 -0.5556
vn -0.0000 0.0000 1.0000
vn -0.0000 -1.0000 0.0000
# 15 vertex normals

vt 0.0169 0.2621 0.0000
vt 0.0169 0.7990 0.0000
vt 0.0541 0.2533 0.0000
vt 0.9716 0.0143 0.0000
vt 0.7162 0.0143 0.0000
vt 0.7162 0.1177 0.0000
vt 0.9716 0.1177 0.0000
vt 0.1085 0.1581 0.0000
vt 0.0109 0.1581 0.0000
vt 0.0789 0.2261 0.0000
vt 0.0997 0.1949 0.0000
vt 0.0109 0.2558 0.0000
vt 0.0477 0.2470 0.0000
vt 0.1155 0.1635 0.0000
vt 0.1066 0.2007 0.0000
vt 0.0856 0.2322 0.0000
vt 0.0411 0.9046 0.0000
vt 0.4002 0.9056 0.0000
vt 0.4005 0.8077 0.0000
vt 0.0413 0.8068 0.0000
vt 0.3848 0.7990 0.0000
vt 0.0471 0.9927 0.0000
vt 0.0471 0.9124 0.0000
vt 0.0069 0.9124 0.0000
vt 0.0069 0.9927 0.0000
vt 0.7866 0.0143 0.0000
vt 0.3848 0.1635 0.0000
vt 0.0360 0.9124 0.0000
# 28 texture coords

g SpaceRoadCrosswayT
usemtl wire_027177148
s off
f 1/1/1 2/2/1 3/3/1 
f 4/4/2 5/5/2 6/6/2 7/7/2 
f 8/8/1 9/9/1 10/10/1 11/11/1 
f 10/10/1 9/9/1 12/12/1 13/13/1 
f 14/14/3 8/8/3 11/11/3 15/15/3 
f 16/16/4 10/10/4 13/13/4 3/3/4 
f 3/3/5 13/13/5 12/12/5 1/1/5 
f 15/15/6 11/11/6 10/10/6 16/16/6 
f 7/17/1 6/18/1 17/19/1 18/20/1 
f 18/20/7 17/19/7 19/21/7 2/2/7 
f 20/22/8 5/23/8 4/24/8 21/25/8 
f 22/1/9 23/3/9 24/2/9 
f 25/26/2 26/7/2 6/6/2 5/5/2 
f 27/8/9 28/11/9 29/10/9 30/9/9 
f 29/10/9 31/13/9 32/12/9 30/9/9 
f 33/14/10 34/15/10 28/11/10 27/8/10 
f 35/16/11 23/3/11 31/13/11 29/10/11 
f 23/3/12 22/1/12 32/12/12 31/13/12 
f 34/15/13 35/16/13 29/10/13 28/11/13 
f 34/15/9 33/14/9 36/27/9 
f 17/19/9 6/18/9 26/17/9 37/20/9 
f 19/21/14 17/19/14 37/20/14 24/2/14 
f 5/23/15 20/22/15 38/25/15 25/28/15 
f 19/21/9 24/2/9 23/3/9 35/16/9 
f 3/3/1 2/2/1 19/21/1 16/16/1 
f 36/27/9 19/21/9 35/16/9 34/15/9 
f 15/15/1 16/16/1 19/21/1 36/27/1 
f 15/15/1 36/27/1 14/14/1 
# 24 polygons - 4 triangles

